<svg width="353" height="174" viewBox="0 0 353 174" fill="none" xmlns="http://www.w3.org/2000/svg">
<path d="M167.952 0.034572C128.157 1.42895 91.8915 16.6058 63.7205 40.9209C63.7205 40.9209 63.7205 40.9209 63.709 40.9209C61.2528 42.9491 58.8082 45.1501 55.8561 48.1578C55.7062 48.3077 55.5448 48.4459 55.3949 48.5957C55.3372 48.6534 55.2911 48.734 55.2334 48.7916C51.8202 52.3064 47.6804 56.939 42.0647 63.5766C40.9807 64.8212 39.9199 66.0888 38.8705 67.368C38.7667 67.4832 38.6745 67.5984 38.5707 67.7252C15.9347 95.5551 1.97029 130.703 0.874814 169.1C0.794095 171.785 2.95045 173.997 5.63725 173.997H102.558C105.095 173.997 107.159 172.015 107.309 169.48C108.231 154.246 112.187 142.549 121.17 131.717C121.504 131.313 121.746 130.864 121.919 130.391C124.813 127.027 128.296 123.904 131.317 121.426C131.594 121.276 131.859 121.092 132.113 120.884C132.966 120.147 133.854 119.432 134.742 118.741C136.529 117.393 137.855 116.482 138.351 116.148C147.415 110.144 158.15 106.48 169.624 105.419C172.057 105.189 173.948 103.195 173.948 100.752V5.85408C173.948 2.5698 171.227 -0.0691419 167.952 0.034572Z" fill="#E16E86"/>
<path d="M179.968 4.75931V100.729C179.968 103.207 181.87 105.224 184.327 105.466C198.821 106.871 211.298 112.23 221.838 121.069C223.671 122.601 226.37 122.486 228.122 120.861L298.475 55.533C300.458 53.6892 300.516 50.5663 298.59 48.6649C269.185 19.625 229.183 1.26761 184.88 -4.16348e-06C182.193 -0.0806706 179.968 2.07427 179.968 4.75931Z" fill="#B1488A"/>
<path d="M352.372 169.088C351.185 127.591 334.972 89.8739 309.026 61.1106C307.25 59.14 304.195 59.0017 302.246 60.8109L232.654 125.425C230.855 127.096 230.625 129.861 232.124 131.797C241.291 143.598 244.405 153.139 246.088 169.711C246.33 172.131 248.383 173.974 250.816 173.974H347.621C350.308 173.974 352.465 171.762 352.384 169.077L352.372 169.088Z" fill="#7C3B66"/>
<path d="M176.428 110.547C143.091 110.547 115.761 136.211 113.132 168.858C112.913 171.635 115.093 174.009 117.883 174.009H234.984C237.774 174.009 239.954 171.623 239.735 168.858C237.105 136.222 209.776 110.547 176.439 110.547H176.428Z" fill="#F2E4FF"/>
<path d="M179.749 142.174C175.607 141.367 171.554 142.996 169.07 146.068L106.004 131.851C105.699 131.776 105.387 131.741 105.077 131.74L65.8623 130.761C65.1924 130.744 65.0079 131.683 65.6389 131.914L102.179 145.489C102.461 145.59 102.742 145.674 103.03 145.718L167.327 156.767C168.615 160.231 171.607 162.97 175.503 163.74C181.457 164.902 187.233 161.021 188.407 155.073C189.572 149.118 185.695 143.345 179.749 142.174Z" fill="#5A073E"/>
</svg>
