<svg width="353" height="174" viewBox="0 0 353 174" fill="none" xmlns="http://www.w3.org/2000/svg">
<path d="M167.952 0.034572C128.157 1.42895 91.8914 16.6058 63.7204 40.9209C63.7204 40.9209 63.7204 40.9209 63.7089 40.9209C61.2527 42.9491 58.8081 45.1501 55.8561 48.1578C55.7062 48.3077 55.5447 48.4459 55.3948 48.5957C55.3372 48.6534 55.291 48.734 55.2334 48.7916C51.8201 52.3064 47.6804 56.939 42.0646 63.5766C40.9807 64.8212 39.9198 66.0888 38.8704 67.368C38.7667 67.4832 38.6744 67.5984 38.5706 67.7252C15.9346 95.5551 1.97023 130.703 0.874753 169.1C0.794034 171.785 2.95039 173.997 5.63718 173.997H102.558C105.095 173.997 107.159 172.015 107.309 169.48C108.231 154.246 112.187 142.549 121.169 131.717C121.504 131.313 121.746 130.864 121.919 130.391C124.813 127.027 128.296 123.904 131.317 121.426C131.594 121.276 131.859 121.092 132.113 120.884C132.966 120.147 133.854 119.432 134.742 118.741C136.529 117.393 137.855 116.482 138.351 116.148C147.415 110.144 158.15 106.48 169.624 105.419C172.057 105.189 173.948 103.195 173.948 100.752V5.85408C173.948 2.5698 171.227 -0.0691419 167.952 0.034572Z" fill="#E16E86"/>
<path d="M179.968 4.75931V100.729C179.968 103.207 181.87 105.224 184.327 105.466C198.821 106.871 211.298 112.23 221.838 121.069C223.671 122.601 226.37 122.486 228.123 120.861L298.475 55.533C300.459 53.6892 300.516 50.5663 298.59 48.6649C269.186 19.625 229.183 1.26761 184.88 -4.16348e-06C182.193 -0.0806706 179.968 2.07427 179.968 4.75931Z" fill="#B1488A"/>
<path d="M352.372 169.088C351.185 127.591 334.972 89.8739 309.026 61.1106C307.25 59.14 304.194 59.0017 302.246 60.8109L232.654 125.425C230.855 127.096 230.625 129.861 232.124 131.797C241.291 143.598 244.405 153.139 246.088 169.711C246.33 172.131 248.383 173.974 250.816 173.974H347.621C350.308 173.974 352.465 171.762 352.384 169.077L352.372 169.088Z" fill="#7C3B66"/>
<path d="M176.428 110.547C143.091 110.547 115.762 136.211 113.132 168.858C112.913 171.635 115.093 174.009 117.883 174.009H234.984C237.774 174.009 239.954 171.623 239.735 168.858C237.106 136.222 209.776 110.547 176.439 110.547H176.428Z" fill="#F2E4FF"/>
</svg>
