<svg width="447" height="175" viewBox="0 0 447 175" fill="none" xmlns="http://www.w3.org/2000/svg">
<path d="M213.952 0.034572C174.157 1.42895 137.891 16.6058 109.72 40.9209C109.72 40.9209 109.72 40.9209 109.709 40.9209C107.253 42.9491 104.808 45.1501 101.856 48.1578C101.706 48.3077 101.545 48.4459 101.395 48.5957C101.337 48.6534 101.291 48.734 101.233 48.7916C97.8201 52.3064 93.6804 56.939 88.0646 63.5766C86.9807 64.8212 85.9198 66.0888 84.8704 67.368C84.7667 67.4832 84.6744 67.5984 84.5706 67.7252C61.9346 95.5551 47.9702 130.703 46.8748 169.1C46.794 171.785 48.9504 173.997 51.6372 173.997H148.558C151.095 173.997 153.159 172.015 153.309 169.48C154.231 154.246 158.187 142.549 167.169 131.717C167.504 131.313 167.746 130.864 167.919 130.391C170.813 127.027 174.296 123.904 177.317 121.426C177.594 121.276 177.859 121.092 178.113 120.884C178.966 120.147 179.854 119.432 180.742 118.741C182.529 117.393 183.855 116.482 184.351 116.148C193.415 110.144 204.15 106.48 215.624 105.419C218.057 105.189 219.948 103.195 219.948 100.752V5.85408C219.948 2.5698 217.227 -0.0691419 213.952 0.034572Z" fill="#E16E86"/>
<path d="M225.968 4.75931V100.729C225.968 103.207 227.87 105.224 230.327 105.466C244.821 106.871 257.298 112.23 267.838 121.069C269.671 122.601 272.37 122.486 274.123 120.861L344.475 55.533C346.459 53.6892 346.516 50.5663 344.59 48.6649C315.186 19.625 275.183 1.26761 230.88 -4.16348e-06C228.193 -0.0806706 225.968 2.07427 225.968 4.75931Z" fill="#B1488A"/>
<path d="M398.372 169.088C397.185 127.591 380.972 89.8739 355.026 61.1106C353.25 59.14 350.194 59.0017 348.246 60.8109L278.654 125.425C276.855 127.096 276.625 129.861 278.124 131.797C287.291 143.598 290.405 153.139 292.088 169.711C292.33 172.131 294.383 173.974 296.816 173.974H393.621C396.308 173.974 398.465 171.762 398.384 169.077L398.372 169.088Z" fill="#7C3B66"/>
<path d="M222.428 110.547C189.091 110.547 161.762 136.211 159.132 168.858C158.913 171.635 161.093 174.009 163.883 174.009H280.984C283.774 174.009 285.954 171.623 285.735 168.858C283.106 136.222 255.776 110.547 222.439 110.547H222.428Z" fill="#F2E4FF"/>
<path d="M0.57666 174.424H446.424" stroke="#5A073E" stroke-miterlimit="10" stroke-linecap="round"/>
</svg>
