<svg width="409" height="443" viewBox="0 0 409 443" fill="none" xmlns="http://www.w3.org/2000/svg">
<g clip-path="url(#clip0_54_717)">
<path d="M73.9904 66.7549C83.3801 50.903 78.1415 30.4405 62.2896 21.0508C46.4376 11.661 25.9752 16.8997 16.5854 32.7516C7.19564 48.6036 12.4343 69.066 28.2862 78.4558C44.1382 87.8455 64.6006 82.6069 73.9904 66.7549Z" fill="#9B4987"/>
<path d="M70.8181 57.565C75.1343 43.4648 67.2029 28.5353 53.1027 24.2191C39.0026 19.9029 24.0731 27.8343 19.7569 41.9345C15.4407 56.0346 23.3721 70.9641 37.4723 75.2803C51.5724 79.5966 66.5019 71.6651 70.8181 57.565Z" fill="#F5E9F3"/>
<path d="M45.2898 33.6099V49.7499L53.5598 43.2999" stroke="#263238" stroke-width="2.5" stroke-linecap="round" stroke-linejoin="round"/>
<path d="M2.06982 440.81H382.39" stroke="#263238" stroke-width="2.5" stroke-linecap="round" stroke-linejoin="round"/>
<path d="M387.57 305.8H2.06982" stroke="#F5E9F3" stroke-width="7" stroke-miterlimit="10"/>
<path d="M2.06982 230.24H387.57" stroke="#F5E9F3" stroke-width="7" stroke-miterlimit="10"/>
<path d="M346.1 295.78C361.87 299.49 375.55 245.5 350.52 241.93C325.49 238.36 329.42 291.86 346.1 295.78Z" fill="#E09B9B"/>
<path d="M347.32 245.81V399.43" stroke="#263238" stroke-width="2.5" stroke-linecap="round" stroke-linejoin="round"/>
<path d="M348.49 321.44C338.35 334.75 371.87 367.74 387.57 354.09C403.28 340.44 362.05 303.63 348.49 321.44Z" fill="#E09B9B"/>
<path d="M387.57 354.09L348.49 321.44" stroke="#263238" stroke-width="2.5" stroke-linecap="round" stroke-linejoin="round"/>
<path d="M356.89 301.77C356.6 318.53 407.69 320.68 407.2 295.96C406.71 271.24 357.14 287.64 356.89 301.77Z" fill="#E09B9B"/>
<path d="M407.2 294.14C407.2 294.14 357.3 302.79 353.86 305.4C350.42 308.02 347.32 316.66 347.32 316.66" stroke="#263238" stroke-width="2.5" stroke-linecap="round" stroke-linejoin="round"/>
<path d="M339.72 304.57C351.02 315.9 317.39 366.94 294.08 346.57C270.77 326.2 326.23 291.04 339.72 304.57Z" fill="#E09B9B"/>
<path d="M294.07 346.57C294.07 346.57 333.74 309.11 339.71 304.57C345.68 300.03 347.32 307.72 347.32 307.72" stroke="#263238" stroke-width="2.5" stroke-linecap="round" stroke-linejoin="round"/>
<path d="M333.09 337.58C318.31 332.84 286.24 374.22 307.56 389.57C331.97 407.15 358.76 345.81 333.09 337.58Z" fill="#E09B9B"/>
<path d="M308.95 390.49C308.95 390.49 334.69 336.14 338.98 332.59C343.27 329.03 347.32 333.08 347.32 337" stroke="#263238" stroke-width="2.5" stroke-linecap="round" stroke-linejoin="round"/>
<path d="M371.49 396.88H323.15V407.77H371.49V396.88Z" fill="#9B4987"/>
<path d="M367.28 407.77H327.36V440.81H367.28V407.77Z" fill="#9B4987"/>
<path d="M332.31 407.77H327.36V440.81H332.31V407.77Z" fill="#F5E9F3"/>
<path d="M367.28 407.77H327.36V440.81H367.28V407.77Z" stroke="#263238" stroke-width="2.5" stroke-linecap="round" stroke-linejoin="round"/>
<path d="M172.22 421.55V440.81H102.64L124.55 421.55H172.22Z" fill="#9B4987"/>
<path d="M172.22 421.55V440.81H102.64L124.55 421.55H172.22Z" fill="#E09B9B"/>
<path d="M123.57 398.44L124.55 421.55H172.22L175.45 398.44H123.57Z" fill="#F5E9F3"/>
<path d="M168.6 405.06H123.78" stroke="#263238" stroke-width="2.5" stroke-linecap="round" stroke-linejoin="round"/>
<path d="M134.36 426.97L120.15 422.65" stroke="#263238" stroke-width="2.5" stroke-linecap="round" stroke-linejoin="round"/>
<path d="M130.68 430.02L116.46 425.7" stroke="#263238" stroke-width="2.5" stroke-linecap="round" stroke-linejoin="round"/>
<path d="M188.47 177.25H125.91C120.93 206.73 113.77 290.06 114.5 298.49C115.08 305.25 113.27 383.04 111.86 406.11C111.51 411.8 116.91 417.25 116.91 417.25C116.91 417.25 112.03 409.72 155.44 417.08C163.66 418.47 178.84 418.74 180.59 411.42C181.42 407.93 178.93 399.53 178.93 399.53C179.79 383.32 178.36 352.93 179.1 334.55C180.06 310.47 174.49 299.19 174.49 299.19C176.55 287.59 177.61 258.61 181.21 232.34L188.48 177.25H188.47Z" fill="#9B4987"/>
<path d="M120.33 406.12C120.15 409.04 121.49 411.9 122.84 413.99C115.48 414.58 116.78 417.05 116.89 417.24C116.58 416.92 111.51 411.64 111.85 406.12C113.26 383.05 115.07 305.26 114.49 298.5C113.77 290.07 120.92 206.74 125.9 177.26H134.38C129.4 206.74 122.25 290.07 122.97 298.5C123.55 305.26 121.74 383.05 120.33 406.12Z" fill="#F5E9F3"/>
<path d="M188.47 177.25H125.91C120.93 206.73 113.77 290.06 114.5 298.49C115.08 305.25 113.27 383.04 111.86 406.11C111.51 411.8 116.91 417.25 116.91 417.25C116.91 417.25 112.03 409.72 155.44 417.08C163.66 418.47 178.84 418.74 180.59 411.42C181.42 407.93 178.93 399.53 178.93 399.53C179.79 383.32 178.36 352.93 179.1 334.55C180.06 310.47 174.49 299.19 174.49 299.19C176.55 287.59 177.61 258.61 181.21 232.34L188.48 177.25H188.47Z" stroke="#263238" stroke-width="2.5" stroke-linecap="round" stroke-linejoin="round"/>
<path d="M133.69 210.6C133.69 210.6 126.36 285.87 126.42 297.31C126.45 303.65 125.65 400.99 125.65 400.99" stroke="#263238" stroke-width="2.5" stroke-linecap="round" stroke-linejoin="round"/>
<path d="M125.38 412.99L125.41 419.15C125.41 419.15 117.54 420.35 116.02 417.89C114.5 415.43 125.38 412.99 125.38 412.99Z" fill="#263238"/>
<path d="M143 185.97C143 185.97 141.53 207.42 127.95 203.26" stroke="#263238" stroke-width="2.5" stroke-linecap="round" stroke-linejoin="round"/>
<path d="M215 421.55V440.81H284.57L262.66 421.55H215Z" fill="#E09B9B"/>
<path d="M215 421.55V440.81H284.57L262.66 421.55H215Z" stroke="#263238" stroke-width="2.5" stroke-linecap="round" stroke-linejoin="round"/>
<path d="M258.97 398.44L262.66 421.55H214.99L208.24 398.44H258.97Z" fill="#F5E9F3"/>
<path d="M217.24 405.06H259.96" stroke="#263238" stroke-width="2.5" stroke-linecap="round" stroke-linejoin="round"/>
<path d="M252.85 426.97L267.06 422.65" stroke="#263238" stroke-width="2.5" stroke-linecap="round" stroke-linejoin="round"/>
<path d="M256.53 430.02L270.75 425.7" stroke="#263238" stroke-width="2.5" stroke-linecap="round" stroke-linejoin="round"/>
<path d="M161.28 221.2C165.77 223.2 172.45 225.56 173 228.98C178.64 264.12 185 297.56 185 297.56C185 297.56 186.26 311.15 186.77 321.8C187.83 344.19 200.12 378.15 203.85 398.38C203.85 398.38 202.44 410.9 205.14 414.22C208.46 418.31 210.46 415.91 225.08 414.69C269.82 410.96 268.7 415.37 268.7 415.37C268.7 415.37 277.59 410.15 275.06 400.1C266.06 364.36 254.45 310.49 252.85 298.74C252.09 293.15 227.64 177.26 227.64 177.26H165.78" fill="#9B4987"/>
<path d="M259.64 412.91L260.3 417.53C260.3 417.53 268.45 418.28 269.75 415.82C271.04 413.36 259.64 412.91 259.64 412.91Z" fill="#263238"/>
<path d="M222.93 210.6C222.93 210.6 242.46 295.59 243.69 304.72C244.52 310.81 263.43 398.99 263.43 398.99" stroke="#263238" stroke-width="2.5" stroke-linecap="round" stroke-linejoin="round"/>
<path d="M199.62 185.97C199.62 185.97 201.85 207.42 222.47 203.26" stroke="#263238" stroke-width="2.5" stroke-linecap="round" stroke-linejoin="round"/>
<path d="M159.84 182.96C159.84 182.96 158.9 210.06 160.59 212.72C162.28 215.38 169.43 216.88 170.1 216.38C170.76 215.88 170.1 182.96 170.1 182.96" stroke="#263238" stroke-width="2.5" stroke-linecap="round" stroke-linejoin="round"/>
<path d="M214.06 73.5502C223.97 83.9602 227.5 115.11 230.56 141.15C230.56 141.15 237.93 157.67 237.06 169.48C236.58 175.96 234.99 178.67 232.33 179.96C232.33 179.96 132.77 182.72 126.16 179.41C121.96 177.3 114.85 174.51 119.42 156.52C121.2 149.51 122.73 135.79 125.81 120.79C128.05 109.87 126.83 94.2402 140.42 76.0102C142.89 72.7002 154.39 59.9602 178.94 63.7802C194.69 66.2302 201.71 60.5902 214.05 73.5502H214.06Z" fill="#E09B9B"/>
<path d="M157.61 62.0302C164.77 62.0302 170.66 61.8202 176.07 62.4902C191.88 64.4402 200.41 60.5902 212.75 73.5502C222.66 83.9602 226.19 115.11 229.25 141.15C229.25 141.15 236.62 157.67 235.75 169.48C235.27 175.96 233.68 178.67 231.02 179.96C231.02 179.96 131.46 182.72 124.85 179.41C120.65 177.3 114.54 174.51 119.11 156.52C120.89 149.51 119.92 140.51 125.5 121.79C127.12 116.36 128.72 99.4802 132.03 90.1702" stroke="#263238" stroke-width="2.5" stroke-linecap="round" stroke-linejoin="round"/>
<path d="M223.66 173.07C223.66 173.07 212.25 179.88 199.34 180.61C186.44 181.34 173.91 174.52 173.91 174.52" stroke="#263238" stroke-width="2.5" stroke-linecap="round" stroke-linejoin="round"/>
<path d="M144.37 180.66C139.32 179.89 130.34 173.06 130.34 173.06" stroke="#263238" stroke-width="2.5" stroke-linecap="round" stroke-linejoin="round"/>
<path d="M185.58 63.1701C185.58 63.1701 182.62 136.05 184.49 146.99C186.36 157.94 195.71 274.07 197.03 283.75C198.93 297.68 202.35 308.68 202.35 308.68C202.35 308.68 215.32 312.35 232.94 311.35C241.74 310.85 253.44 306.53 256.43 308.52C259.42 310.52 257.76 312.34 257.76 312.34C257.76 312.34 264.74 311.34 263.25 304.03C261.75 296.71 235.78 148.73 233.25 140.25C230.72 131.78 224.45 88.1001 217.38 74.6201C210.31 61.1401 185.59 63.1601 185.59 63.1601L185.58 63.1701Z" fill="#F5E9F3"/>
<path d="M190.55 65.9102C190.55 65.9102 202.68 89.4102 201.32 94.2902C200.65 96.6802 192.64 99.9402 192.64 99.9402C192.64 99.9402 198.63 112.97 198.63 117.87C198.63 122.77 197.84 152.87 191.55 178.2" stroke="#263238" stroke-width="2.5" stroke-linecap="round" stroke-linejoin="round"/>
<path d="M249.43 230.24C249.43 230.24 236.96 227.26 232.1 224.23C227.05 221.08 219.69 211.93 219.69 211.93" stroke="#263238" stroke-width="2.5" stroke-linecap="round" stroke-linejoin="round"/>
<path d="M256.37 265.81C256.37 265.81 231.97 262.14 225.83 258.81C219.69 255.48 218.36 223.12 218.36 223.12C218.36 223.12 225.83 231.54 232.55 235.09C237.03 237.46 250.61 239.62 250.61 239.62" stroke="#263238" stroke-width="2.5" stroke-linecap="round" stroke-linejoin="round"/>
<path d="M158.54 62.0001C158.54 62.0001 153.74 132.25 153.17 147C152.74 158.1 157.4 274 157.71 283.76C158.23 299.72 156.62 308.69 156.62 308.69C156.62 308.69 150.31 314.52 132.69 313.52C123.89 313.02 109.37 306.54 106.37 308.53C103.38 310.53 105.04 312.35 105.04 312.35C105.04 312.35 98.0597 311.35 99.5497 304.04C101.04 296.73 118.59 152.2 120.55 140.26C121.99 131.53 128.9 87.2501 136.72 71.4801C142.04 60.7401 158.53 61.9901 158.53 61.9901L158.54 62.0001Z" fill="#F5E9F3"/>
<path d="M153.14 65.8501C153.14 65.8501 139.69 90.4601 141.06 95.3301C141.73 97.7201 150.05 100.87 150.05 100.87C150.05 100.87 143.06 112.9 143.06 117.8C143.06 122.7 141.5 145.54 152.14 178.13" stroke="#263238" stroke-width="2.5" stroke-linecap="round" stroke-linejoin="round"/>
<path d="M104.63 313.46C107.38 314.94 114.51 315.79 114.51 315.79V309.51C114.51 309.51 109.16 308.1 106.29 308.97C103.42 309.84 103.01 312.59 104.63 313.46Z" fill="#263238"/>
<path d="M104.62 222.24L108.79 230.24C108.79 230.24 120.73 228.29 125.89 224.54C131.05 220.79 138.11 212.8 138.11 212.8L134.49 203.05C134.49 203.05 127.06 212.76 121.36 215.95C115.66 219.14 104.62 222.23 104.62 222.23V222.24Z" fill="#B5846B" stroke="#263238" stroke-width="2.5" stroke-linecap="round" stroke-linejoin="round"/>
<path d="M153.14 62.1101C140.78 62.3301 129.52 64.0901 117.09 82.1201C102.58 103.17 78.0098 145.12 75.4398 158.92C72.6398 173.96 91.7898 222 91.7898 222C91.7898 222 96.0398 224.37 111.84 219.15C128.94 213.5 135.48 200.07 135.48 200.07C135.48 200.07 119.21 160.48 119.42 156.52C119.6 153.2 123.25 134.67 131.56 102.16" fill="#F5E9F3"/>
<path d="M119.88 158.92C117.94 151.59 107.8 144.26 107.8 144.26" stroke="#263238" stroke-width="2.5" stroke-linecap="round" stroke-linejoin="round"/>
<path d="M118.63 154.74C118.63 154.74 119.52 147.93 117.08 141.94" stroke="#263238" stroke-width="2.5" stroke-linecap="round" stroke-linejoin="round"/>
<path d="M128.94 112.52C128.94 112.52 129.31 106 124.65 102.15L128.94 112.52Z" fill="#F5E9F3"/>
<path d="M129.34 183.85C129.34 183.85 135.52 195.85 136.35 199.22C136.35 199.22 129.75 212.5 116.57 218.68C103.24 224.93 90.7497 223.74 89.7697 223.53C88.7997 223.32 77.5497 210.75 82.5297 204.33C82.5297 204.33 81.1597 208.61 86.1797 208.11C95.6897 207.16 103.17 204.97 109.55 201.09C124.79 191.81 129.34 183.85 129.34 183.85Z" fill="#F5E9F3"/>
<path d="M85.1098 200.11L87.6298 207.95C87.6298 207.95 81.8898 207.7 81.0898 205.89C79.9998 203.43 85.1198 200.1 85.1198 200.1L85.1098 200.11Z" fill="#263238"/>
<path d="M109.09 230.24C109.09 230.24 121.56 227.26 126.42 224.23C131.47 221.08 138.83 211.93 138.83 211.93" stroke="#263238" stroke-width="2.5" stroke-linecap="round" stroke-linejoin="round"/>
<path d="M105.23 264.8C105.23 264.8 126.55 262.14 132.7 258.81C138.85 255.48 140.17 223.12 140.17 223.12C140.17 223.12 132.7 231.54 125.98 235.09C121.5 237.46 107.92 239.62 107.92 239.62" stroke="#263238" stroke-width="2.5" stroke-linecap="round" stroke-linejoin="round"/>
<path d="M184.33 178.61L140.92 191.78L118.53 136.01L161.94 122.84L184.33 178.61Z" fill="#F5E9F3"/>
<path d="M152.04 129.11L130.83 135.55L128.4 129.51L149.62 123.08L152.04 129.11Z" fill="#263238" stroke="#263238" stroke-width="2.5" stroke-linecap="round" stroke-linejoin="round"/>
<path d="M148.68 161.32C148.68 161.32 147.4 169.82 155.74 171.99C155.74 171.99 156.2 178.87 162.15 180.55C170.72 182.97 190.9 178.66 199.26 176.17C199.26 176.17 202.75 155.96 188.49 138.82C188.4 138.72 176.52 135.26 168.21 137.84L170.56 144.98C170.56 144.98 151.7 149.13 147.36 151.33C142.75 153.66 143.49 159.65 148.69 161.32H148.68Z" fill="#B5846B" stroke="#263238" stroke-width="2.5" stroke-linecap="round" stroke-linejoin="round"/>
<path d="M147.69 160.9C152.39 163.18 165.24 159.91 165.24 159.91" stroke="#263238" stroke-width="2.5" stroke-linecap="round" stroke-linejoin="round"/>
<path d="M155.74 171.99C159.66 172.73 163.69 171.47 163.69 171.47" stroke="#263238" stroke-width="2.5" stroke-linecap="round" stroke-linejoin="round"/>
<path d="M193.15 63.1899C222.64 63.2999 231.13 75.9399 234.73 81.9299C248.38 104.69 269.55 140.29 264.71 155.94C264.05 158.06 261.11 165.33 248.56 169.62C231.33 175.51 205.29 179.77 205.29 179.77C205.29 179.77 209.62 174.46 204.73 156.35C199.56 137.2 196.12 134.45 196.12 134.45C196.12 134.45 206.43 131.69 216.66 129.78C221.81 128.82 230.2 132.56 230.2 132.56" fill="#F5E9F3"/>
<path d="M216.66 129.79C216.66 129.79 217.65 126.84 224.05 125.34" stroke="#263238" stroke-width="2.5" stroke-linecap="round" stroke-linejoin="round"/>
<path d="M216.66 129.79C216.66 129.79 210.69 121.09 204.73 107.5" stroke="#263238" stroke-width="2.5" stroke-linecap="round" stroke-linejoin="round"/>
<path d="M209.25 117.81L202.27 111.54" stroke="#263238" stroke-width="2.5" stroke-linecap="round" stroke-linejoin="round"/>
<path d="M183.82 135.49C183.82 135.49 198.8 130.85 202.25 131.15C202.25 131.15 212.4 140.46 213.95 154.94C215.52 169.58 210.33 181.01 209.82 181.86C209.31 182.71 193.76 189.26 189.31 182.46C189.31 182.46 192.91 185.15 194.07 180.24C196.26 170.94 196.63 163.15 195.03 155.86C191.22 138.43 183.81 135.49 183.81 135.49H183.82Z" fill="#F5E9F3"/>
<path d="M186.16 178.66L194.55 176.86C194.55 176.86 192.29 184.18 190.32 184.35C187.64 184.58 186.16 178.66 186.16 178.66Z" fill="#263238"/>
<path d="M155.96 92.26C155.8 95.17 153.31 97.39 150.4 97.23C147.49 97.07 145.27 94.58 145.43 91.67C145.59 88.76 148.08 86.54 150.99 86.7C153.9 86.86 156.12 89.35 155.96 92.26Z" fill="#9B4987"/>
<path d="M150.99 86.7001C152.69 79.8101 157.52 56.3401 172.92 57.6401C180.6 58.2901 186.72 61.4601 190.95 81.5501" stroke="#263238" stroke-width="2.5" stroke-linecap="round" stroke-linejoin="round"/>
<path d="M190.96 123.71C181.19 114.63 179.37 79.55 192.36 81.72C205.36 83.89 198.33 121.47 198.33 121.47" stroke="#263238" stroke-width="2.5" stroke-linecap="round" stroke-linejoin="round"/>
<path d="M189.506 122.724L189.654 122.639C190.728 122.02 192.094 122.388 192.713 123.462L193.526 124.875C194.145 125.949 193.778 127.315 192.703 127.934L192.556 128.019C191.481 128.638 190.116 128.27 189.497 127.196L188.683 125.783C188.065 124.709 188.432 123.343 189.506 122.724Z" fill="#9B4987"/>
<path d="M198.552 119.283L198.721 119.302C199.953 119.442 200.834 120.548 200.694 121.78L200.511 123.39C200.372 124.622 199.265 125.503 198.033 125.363L197.864 125.344C196.632 125.204 195.751 124.098 195.891 122.866L196.074 121.256C196.213 120.024 197.32 119.143 198.552 119.283Z" fill="#9B4987"/>
<path d="M166.7 72.73L167.64 77.6L172.88 77.78L174.57 73.44L170.11 71.49L166.7 72.73Z" fill="#263238"/>
<path d="M167.64 77.6001L172.88 77.7801L177.04 115L168.53 126.71L160.68 115.17L167.64 77.6001Z" fill="#263238"/>
<path d="M181.63 61.7L181.47 76.05L170.47 70.93L160.57 74.54L165.57 61.7H181.63Z" fill="#9B4987"/>
<path d="M169.36 64.66C169.36 64.66 166.26 70.94 169.64 71.19C174.94 71.58 180.94 62.46 180.94 62.46L169.36 64.66Z" fill="#263238"/>
<path d="M185.58 50.82C186.35 41.9 180.88 34.14 173.36 33.5C165.84 32.85 159.13 39.5601 158.36 48.4901C157.59 57.4101 163.06 65.17 170.58 65.81C178.1 66.46 184.81 59.75 185.58 50.82Z" fill="#B5846B" stroke="#263238" stroke-width="2.5" stroke-linecap="round" stroke-linejoin="round"/>
<path d="M170.58 65.81C172.68 65.99 174.72 65.6 176.58 64.73C175.6 64.92 174.6 64.97 173.58 64.89C166.46 64.27 161.27 56.92 161.99 48.46C162.72 40 169.08 33.64 176.21 34.25C176.39 34.27 176.57 34.28 176.75 34.31C175.68 33.87 174.55 33.59 173.36 33.49C165.85 32.85 159.13 39.56 158.37 48.48C157.6 57.4 163.07 65.16 170.59 65.8L170.58 65.81Z" fill="#F5E9F3"/>
<path d="M185.58 50.82C186.35 41.9 180.88 34.14 173.36 33.5C165.84 32.85 159.13 39.5601 158.36 48.4901C157.59 57.4101 163.06 65.17 170.58 65.81C178.1 66.46 184.81 59.75 185.58 50.82Z" stroke="#263238" stroke-width="2.5" stroke-linecap="round" stroke-linejoin="round"/>
<path d="M185.55 53.72C185.55 53.72 179.42 51.97 178.34 45.74C178.34 45.74 168.53 45.29 168.79 37.51C168.79 37.51 163.81 40.7 161.25 38.18C161.25 38.18 169.17 27.19 179.93 34.66C190.69 42.13 185.55 53.72 185.55 53.72Z" fill="#263238"/>
<path d="M157.26 34.51C157.85 37.41 160.67 39.28 163.57 38.69C166.47 38.1 168.34 35.28 167.75 32.38C167.16 29.48 164.34 27.61 161.44 28.2C158.54 28.79 156.67 31.61 157.26 34.51Z" fill="#263238"/>
<path d="M260.07 3.03005C250.79 -0.519952 238.58 0.450048 230.76 6.94005C223.79 12.71 221.51 23.15 224.81 31.47C228.75 41.4 240.1 46.81 250.38 45.09C251.06 44.97 249.79 49.75 246.82 52.43C245.66 53.48 244.49 54.47 243.12 55.17C249.44 54.68 255.62 52 257.3 45.2C264.83 42.84 275.94 35.93 276.23 26.05C276.53 15.79 269.44 6.62005 260.06 3.04005L260.07 3.03005Z" stroke="#F5E9F3" stroke-width="2" stroke-miterlimit="10"/>
<path d="M260.59 21.0001V25.7601H252.16V34.1901H247.41V25.7601H238.97V21.0001H247.41V12.5701H252.16V21.0001H260.59Z" fill="#9B4987"/>
</g>
<defs>
<clipPath id="clip0_54_717">
<rect width="407.63" height="442.06" fill="white" transform="translate(0.819824)"/>
</clipPath>
</defs>
</svg>
