<svg width="103" height="104" viewBox="0 0 103 104" fill="none" xmlns="http://www.w3.org/2000/svg">
<g clip-path="url(#clip0_136_3888)">
<path d="M61.1965 5.24805C61.2034 5.32085 61.2102 5.39365 61.217 5.46645C61.2398 5.4164 61.2625 5.36407 61.2853 5.31175C61.2739 5.2617 61.258 5.21165 61.2398 5.16843C61.2261 5.19573 61.2102 5.22075 61.1965 5.24805Z" fill="#B1488A"/>
<path d="M61.1737 2.55223C61.2988 2.34976 61.4262 2.15866 61.4922 1.84017C61.4717 1.75372 61.4604 1.71049 61.4558 1.68774C61.3853 1.79239 61.2875 1.93571 61.1919 2.07676C61.0031 2.35658 61.044 2.53858 61.176 2.55223H61.1737Z" fill="#B1488A"/>
<path d="M61.4535 1.68774C61.5195 1.58991 61.565 1.52621 61.565 1.52621C61.5263 1.56034 61.4876 1.59219 61.449 1.62404C61.449 1.66044 61.449 1.66044 61.449 1.66044C61.449 1.66044 61.449 1.66044 61.4558 1.68774H61.4535Z" fill="#B1488A"/>
<path d="M54.0075 62.2426C53.7936 64.3947 53.7026 66.5559 53.5843 68.7216C53.4501 70.8874 53.4365 73.0554 53.391 75.2257C53.3887 75.3713 53.4296 75.4942 53.4888 75.4987C53.5388 75.5056 53.5912 75.3918 53.5889 75.2576C53.6412 73.0896 53.6549 70.9261 53.7891 68.7671C53.9096 66.6082 53.9984 64.4538 54.2122 62.304C54.2213 62.1584 54.1849 62.0378 54.1303 62.0151C54.0712 62.006 54.0188 62.1061 54.0052 62.2403L54.0075 62.2426Z" fill="#B1488A"/>
<path d="M49.0027 94.9997C48.9503 94.8996 48.8912 94.9064 48.8593 95.0201C48.832 95.1157 48.8389 95.2818 48.8889 95.3819C48.9321 95.466 49.0027 95.4569 49.0322 95.3614C49.0664 95.2499 49.0459 95.0838 49.0027 94.9997Z" fill="#B1488A"/>
<path d="M98.2941 60.4476C98.2213 60.4544 98.1485 60.4613 98.0757 60.4681C98.1257 60.4908 98.1781 60.5136 98.2304 60.5363C98.2804 60.5249 98.3305 60.509 98.3737 60.4908C98.3464 60.4772 98.3214 60.4613 98.2941 60.4476Z" fill="#B1488A"/>
<path d="M100.99 60.4249C101.192 60.55 101.384 60.6774 101.702 60.7433C101.789 60.7229 101.832 60.7115 101.854 60.7069C101.75 60.6364 101.607 60.5386 101.465 60.4431C101.186 60.2542 101.004 60.2952 100.99 60.4271V60.4249Z" fill="#B1488A"/>
<path d="M101.857 60.707C101.955 60.7729 102.018 60.8184 102.018 60.8184C101.984 60.7798 101.952 60.7411 101.92 60.7024C101.884 60.7024 101.884 60.7024 101.884 60.7024C101.884 60.7024 101.884 60.7024 101.857 60.7092V60.707Z" fill="#B1488A"/>
<path d="M8.54259 48.2538C8.64269 48.2015 8.63586 48.1424 8.52212 48.1105C8.42657 48.0832 8.2605 48.09 8.1604 48.1401C8.07622 48.1833 8.08532 48.2538 8.18087 48.2834C8.29234 48.3175 8.45842 48.2971 8.54259 48.2538Z" fill="#B1488A"/>
<path d="M102.956 60.3498C102.913 60.2937 102.902 60.2042 102.922 60.0813C102.922 60.0813 102.849 59.9881 102.733 59.8948C102.614 59.8266 102.585 59.8106 102.143 59.5786C102.191 59.5604 102.239 59.5376 102.282 59.5149C102.402 59.3101 102.335 58.8999 102.08 58.2841C102.08 58.2841 101.807 57.9884 101.311 57.6972C100.91 57.541 100.477 57.3749 100.012 57.199C100.012 57.199 99.864 57.1307 99.6023 57.0215C99.434 56.8441 99.3976 56.7986 99.277 56.6484C99.277 56.6484 99.277 56.6484 99.2748 56.6462C99.4135 56.6735 99.5546 56.6871 99.6751 56.6803C100.025 56.6553 100.121 56.4801 99.8799 56.2822C100.369 55.8636 100.276 55.3449 99.9345 54.783C100.116 54.651 100.226 54.4872 100.255 54.2984C100.901 54.0004 101.354 53.6227 101.623 53.1655L101.8 52.7514C101.739 52.3465 101.377 51.8892 100.772 51.4524L100.594 51.2955L100.879 50.9906C100.569 50.406 100.032 49.8122 99.4681 49.2161C98.9039 48.6178 98.3033 48.0514 97.8802 47.4667L97.1886 46.8001C96.6949 46.2769 95.8305 45.7741 94.7703 45.3806L93.6465 44.9734C93.4054 44.9097 93.1642 44.846 92.9185 44.7936C94.2471 44.623 95.0752 44.1362 95.0069 43.3877C94.9751 43.0806 94.7885 42.7598 94.4814 42.4413C94.1743 42.1206 93.7421 41.8066 93.2143 41.5291C92.161 40.9672 90.7391 40.4962 89.2035 40.2574C81.0728 38.6513 73.14 37.4523 64.6863 36.9428C63.1211 36.8609 61.5946 36.7835 60.0863 36.7039C59.2105 36.6789 58.3414 36.6538 57.4747 36.6265C57.5247 35.9782 57.5338 35.3435 57.5156 34.7019C57.4155 35.1387 57.3177 35.5664 57.2176 36.0032C57.3655 34.6906 57.2654 33.5394 57.1698 32.3974C57.1971 32.3041 57.2267 32.2086 57.2495 32.1085C57.7181 30.8709 58.048 29.5037 58.3414 28.1068C58.4916 27.4084 58.619 26.7009 58.7805 26.0025C58.942 25.3041 59.1081 24.6102 59.2901 23.9346C59.1627 23.9732 59.0217 24.0165 58.8943 24.0551C59.0808 23.5637 59.3538 23.3089 59.5244 22.7652C59.4061 22.904 59.2924 23.0337 59.1741 23.1747C59.1764 23.1633 59.1809 23.152 59.1832 23.1429C59.4903 22.5855 59.7087 21.8848 59.8543 21.1432C60.7415 19.5666 61.4832 17.5874 62.0974 15.4808C62.2999 15.2351 62.4841 14.8438 62.6047 14.3638C62.6912 14.1682 62.7799 13.9384 62.8754 13.8042C63.7718 12.6144 64.5498 11.0992 65.2619 9.39986C65.0731 9.7138 64.8751 10.0437 64.6863 10.3599C64.8979 9.8685 65.1117 9.38621 65.2505 8.81747C65.1686 8.86069 65.0799 8.91984 64.9957 8.96306C65.4416 8.13953 65.8124 7.12945 65.9853 6.13757C66.165 5.14796 66.1764 4.18793 65.9762 3.48497C65.5758 2.07677 64.4861 2.23374 63.5284 3.87626L63.385 4.11286C63.5102 3.18012 63.4829 2.32702 63.1871 1.76738C63.0233 1.46708 62.6843 1.59903 62.4068 1.58083C62.0451 1.40566 61.5264 2.03582 61.2511 2.98448C61.176 3.24382 61.1283 3.49634 61.1032 3.73294C60.6778 4.79762 60.2729 5.89642 59.8224 6.92698C59.7292 7.12945 59.7064 7.40017 59.7678 7.53439C59.8338 7.65269 59.9589 7.58444 60.0499 7.37287C60.4162 6.64033 60.803 5.93737 61.1897 5.24351C61.1829 5.17754 61.1783 5.11156 61.1715 5.04331C61.1965 5.07744 61.2147 5.12066 61.2329 5.16389C61.2693 5.10019 61.3034 5.03649 61.3398 4.97279C61.3421 5.02966 61.3489 5.08426 61.3489 5.14341C61.3239 5.19801 61.3012 5.25034 61.2784 5.30493C61.3034 5.41186 61.3194 5.53016 61.3239 5.66438C61.1897 6.02837 61.0555 6.39236 60.9167 6.75408C60.5664 7.67999 60.2297 8.59452 59.8315 9.44991C59.7974 9.51815 59.6564 9.35663 59.5608 9.47493C59.5131 9.53408 59.4698 9.59778 59.4243 9.66375C59.5153 9.44763 59.6018 9.21786 59.6859 8.96761C59.67 7.94388 59.6632 7.55714 59.6586 7.29097L59.6609 7.28642C59.6609 7.28642 59.6609 7.28415 59.6564 7.20452C59.6564 7.08168 59.6541 6.97248 59.6518 6.81551C59.6518 6.81551 59.645 6.81551 59.6359 6.81323C59.6359 6.78138 59.6359 6.74953 59.6336 6.71313C59.6814 6.57209 59.7314 6.43331 59.7792 6.28999C59.8361 6.13074 59.8452 5.96695 59.8133 5.87367C59.8702 5.82817 59.9294 5.77813 59.9931 5.71443C60.1902 5.18209 60.3874 4.64141 60.5846 4.09238C60.5846 4.09238 60.5413 4.08328 60.4731 4.09238C60.4776 4.05826 60.5049 3.76479 60.6119 3.44402C60.6619 3.23321 60.7787 2.87149 60.9622 2.35887L60.6915 2.69328L60.8962 2.39071L60.6778 2.42711L60.9303 2.32929L60.8075 2.14274C60.8075 2.14274 60.8075 2.14274 61.4422 1.60585C61.4445 1.55126 61.4536 1.42386 61.4741 1.10081C61.4741 1.10081 61.4513 1.00299 61.4149 0.927917C61.3785 0.912751 61.3171 0.799761 61.2306 0.588949C61.2306 0.588949 61.167 0.566199 61.0919 0.573024C61.0358 0.61549 60.9463 0.626865 60.8234 0.607148C60.8234 0.607148 60.7302 0.679947 60.6369 0.79597C60.5686 0.914268 60.5527 0.943842 60.3207 1.38518C60.3025 1.33741 60.2797 1.28964 60.2547 1.24641C60.0499 1.1266 59.6397 1.19409 59.0239 1.44888C59.0239 1.44888 58.7282 1.72188 58.437 2.21782C58.2808 2.61821 58.1147 3.05121 57.9388 3.51682C57.9388 3.51682 57.8705 3.66469 57.7613 3.92631C57.5839 4.09466 57.5384 4.13106 57.3882 4.25163C57.3882 4.25163 57.3882 4.25163 57.386 4.2539C57.4133 4.11513 57.4269 3.97408 57.4201 3.85351C57.3951 3.50317 57.2199 3.40762 57.022 3.64649C56.6034 3.15738 56.0847 3.25065 55.5228 3.59189C55.3908 3.4099 55.227 3.3007 55.0382 3.27112C54.7402 2.62504 54.3625 2.17232 53.9053 1.90387L53.4912 1.72643C53.0863 1.78785 52.629 2.14957 52.1922 2.75471L52.0353 2.93215L51.7304 2.64778C51.1458 2.95718 50.552 3.49407 49.956 4.05826C49.3576 4.62245 48.7912 5.22304 48.2065 5.64618L47.54 6.33776C47.0167 6.83143 46.5139 7.69591 46.1204 8.75604L45.7132 9.87987C45.6495 10.121 45.5858 10.3622 45.5334 10.6079C45.3628 9.27928 44.876 8.4512 44.1275 8.51945C43.8204 8.5513 43.4974 8.73784 43.1811 9.04496C42.8604 9.35208 42.5464 9.78432 42.2689 10.3121C41.707 11.3631 41.236 12.7873 40.9972 14.3229C39.5253 21.7802 38.3946 29.0691 37.8259 36.7448C35.0186 36.9905 32.2363 37.3113 29.4472 37.7253C28.2574 37.8937 27.1381 38.103 26.0666 38.3396C24.9951 38.5989 23.9691 38.8833 22.9659 39.179C21.9603 39.4748 20.9776 39.7796 19.9857 40.0799C18.9938 40.3779 17.9996 40.7169 16.9691 41.0149C16.8485 41.0468 16.8417 41.1128 16.9077 41.1583C17.0055 41.2015 17.1761 41.1969 17.283 41.1583C23.8395 39.9958 30.5392 39.0994 37.6689 39.1222C37.6484 39.5226 37.628 39.923 37.6075 40.3188C36.9136 40.4075 36.2198 40.5008 35.5305 40.5963C34.9936 40.6077 34.4976 40.6691 34.0722 40.767C33.0348 40.6646 31.9929 40.61 30.9487 40.5554C29.9045 40.4985 28.858 40.4394 27.8115 40.3825L27.2928 40.3279C26.6058 40.2869 25.9438 40.4121 25.6185 40.6578C25.5138 40.7283 25.4524 40.8034 25.4205 40.8784C24.233 41.0104 23.0432 41.1423 21.8534 41.2743C20.6659 41.4085 19.4806 41.5268 18.3068 41.7111C17.1329 41.884 15.9704 42.066 14.8238 42.2684C14.2505 42.3685 13.6818 42.4755 13.1199 42.5869C12.5557 42.6984 12.0006 42.8394 11.45 42.9737C11.2271 43.0305 11.1133 43.1215 11.1566 43.2103C11.0701 43.1943 10.9586 43.1966 10.8631 43.2262C10.3421 43.4196 9.75519 43.5606 9.1364 43.6903C9.00218 43.7335 8.93166 43.7927 8.9999 43.8336C9.07043 43.8882 9.22513 43.8996 9.3457 43.8655C9.97814 43.729 10.5969 43.5743 11.1634 43.3809C11.2248 43.3581 11.2635 43.3263 11.2703 43.2967C11.4023 43.3445 11.607 43.3559 11.8049 43.3149C12.9492 43.1511 14.089 43.026 15.2242 42.869C16.3594 42.7143 17.4923 42.5596 18.6252 42.4027L19.4761 42.2866L20.3292 42.1934C20.9002 42.1365 21.4712 42.0773 22.0422 42.0205C23.1888 41.9113 24.3422 41.8203 25.5093 41.7566C24.3695 41.9659 23.2184 42.1456 22.0468 42.3185C20.8752 42.4959 19.6831 42.6347 18.4637 42.844C15.5199 43.3195 12.8332 43.8859 9.88259 44.3182C9.72789 44.3295 9.63007 44.3932 9.65054 44.4456C9.67557 44.4979 9.80524 44.5366 9.95539 44.5093C12.9788 44.1134 15.8111 43.6038 18.6821 43.0806C19.3987 42.9441 20.1199 42.8372 20.8479 42.7348C21.5736 42.6324 22.3061 42.5346 23.0478 42.4504C24.531 42.2866 26.0507 42.1342 27.6318 42.1433C27.8798 42.1433 28.13 42.1479 28.3757 42.1547C27.8889 42.273 27.4066 42.3936 26.9243 42.5119C26.6831 42.571 26.4443 42.6324 26.2031 42.6916L25.4865 42.8872C24.5356 43.1488 23.5869 43.4105 22.6428 43.6721C19.7514 43.8222 16.8735 44.1225 14.0139 44.4205L12.9424 44.5366L11.8755 44.6776C11.1657 44.7754 10.4536 44.8733 9.74609 44.9711C9.03858 45.0735 8.33107 45.1736 7.62356 45.2759L6.5657 45.4329C6.21308 45.4875 5.86274 45.5535 5.5124 45.6149C5.23713 45.6445 5.02328 45.7582 5.03921 45.8651C5.05513 45.9721 5.29628 46.0358 5.57155 46.0062C6.37461 45.9584 7.18221 45.9425 7.98755 45.9197C8.79288 45.897 9.60049 45.872 10.4081 45.8492C11.2157 45.8242 12.0233 45.7969 12.8332 45.7719C13.6431 45.7605 14.4507 45.7491 15.2629 45.7377C15.0399 45.7992 14.817 45.8583 14.594 45.9197L13.9229 46.0085C12.8833 46.0585 11.8504 46.17 10.813 46.2587C9.77567 46.3543 8.74056 46.4544 7.70318 46.5636C6.92514 46.6091 6.30408 46.898 6.29043 47.2187C6.30408 47.519 6.90012 47.7147 7.64858 47.6851C7.53028 47.7124 7.41199 47.7397 7.29141 47.767C7.17084 47.7898 7.08894 47.8557 7.12534 47.9012C7.17767 47.9513 7.33464 47.974 7.45293 47.9513C7.8829 47.8444 8.30377 47.7397 8.72691 47.6351C12.6649 47.4098 16.6074 47.1846 20.5521 46.9594L19.7582 47.0481L18.9642 47.1505C18.4342 47.2165 17.9018 47.2847 17.3717 47.3507C16.3093 47.4804 15.2424 47.6032 14.1732 47.717C13.1039 47.8193 12.0347 47.9695 10.9632 48.0878C9.89169 48.2106 8.81791 48.3244 7.73958 48.4313C7.82375 48.3881 7.8283 48.3221 7.71683 48.2902C7.62128 48.2629 7.43929 48.2766 7.35284 48.3221C7.25501 48.3721 7.27776 48.4358 7.37331 48.4654C7.37786 48.4654 7.38014 48.4654 7.38241 48.4654C6.80457 48.5155 6.22673 48.5837 5.64889 48.6497C5.07105 48.7111 4.49094 48.7725 3.9131 48.834C2.75515 48.9523 1.59265 49.0569 0.427867 49.1502C0.29137 49.1593 0.179897 49.2184 0.188997 49.2776C0.198097 49.3367 0.327769 49.3708 0.477916 49.3549C8.17865 48.6474 15.7907 47.7579 23.2912 46.8388C23.7007 46.8206 24.1102 46.8024 24.5219 46.7865C24.5219 46.7865 24.5219 46.7888 24.5219 46.791C24.6562 47.0231 24.9314 47.221 25.3045 47.3803C23.9782 47.4735 22.6565 47.5668 21.3347 47.6578C20.675 47.7101 20.013 47.7488 19.3555 47.8171C18.6958 47.8853 18.0383 47.9535 17.3786 48.0218L14.0731 48.1628L13.245 48.1992L12.4192 48.2538L10.7653 48.3653C10.4468 48.3858 10.1897 48.5041 10.192 48.6429C10.192 48.7703 10.4627 48.8499 10.7948 48.834L12.4146 48.7316C11.9801 48.9272 11.7071 49.1752 11.6935 49.4345C11.6798 49.6825 11.9187 49.8918 12.3031 50.0374C11.127 50.2444 9.95766 50.456 8.80198 50.6812C8.22414 50.7927 7.64858 50.9087 7.07757 51.0293C6.50655 51.1544 5.94236 51.2977 5.38045 51.4388C5.2485 51.4706 5.18253 51.5321 5.23485 51.5821C5.28718 51.6299 5.42822 51.6458 5.5579 51.614C5.96966 51.5525 6.38143 51.4934 6.7932 51.432C7.20496 51.3774 7.61673 51.325 8.02622 51.2727C8.84748 51.1635 9.66874 51.0566 10.4877 50.9474C11.3067 50.8382 12.1257 50.7267 12.9447 50.6175C13.7637 50.5083 14.5849 50.4333 15.4062 50.3445C16.7143 50.4287 18.0087 50.5197 19.3259 50.5879C20.6431 50.6607 21.9854 50.754 23.389 50.7677C24.4127 50.7813 25.4183 50.7608 26.4124 50.7244C27.4066 50.7085 28.3894 50.6698 29.3653 50.6152C30.3413 50.5606 31.3081 50.4924 32.2727 50.4151C33.2373 50.3377 34.1996 50.2945 35.1596 50.2262C35.8489 50.2808 36.5383 50.3286 37.223 50.3718C37.2185 50.5629 37.2139 50.754 37.2071 50.9428C36.5929 50.9224 35.9763 50.9019 35.353 50.8814C34.6432 50.8632 33.9334 50.8473 33.2282 50.8291C32.523 50.8109 31.82 50.8336 31.1193 50.8405C29.7179 50.8632 28.3257 50.9042 26.9402 50.9542C26.2486 50.9724 25.5593 51.0316 24.87 51.0771C24.183 51.1294 23.4959 51.1794 22.8112 51.2318C22.1264 51.2886 21.4439 51.3455 20.7637 51.4001C20.4225 51.432 20.0835 51.457 19.7445 51.4934L18.7276 51.6117C16.0181 51.9324 13.3314 52.2487 10.6583 52.6968C9.32295 52.9107 7.98527 53.1086 6.65442 53.3406C5.32358 53.5818 3.99272 53.8252 2.6596 54.0686C1.97484 54.171 1.5062 54.4759 1.61767 54.742C1.72914 55.0127 2.38206 55.1492 3.06227 55.0491C4.34534 54.9217 5.60339 54.7648 6.84552 54.5896C8.08992 54.4258 9.32295 54.2688 10.5583 54.0823C11.1748 53.9867 11.7936 53.8912 12.4146 53.7956C13.0357 53.6955 13.6567 53.5909 14.2869 53.509C15.545 53.3293 16.8167 53.145 18.1179 52.9585C19.9743 52.6741 21.7237 52.5035 23.4777 52.3146C24.3559 52.2259 25.234 52.1372 26.1258 52.0462C27.0198 51.9711 27.9298 51.9142 28.8694 51.8483C29.9705 51.7755 31.0511 51.7232 32.1226 51.6845C32.6572 51.6595 33.1918 51.6595 33.7219 51.6617C34.2542 51.664 34.782 51.6686 35.3121 51.6708C35.9354 51.6822 36.5587 51.6913 37.1821 51.7027C37.1752 51.9256 37.1707 52.1486 37.1639 52.3715C37.157 52.5603 37.1479 52.7537 37.1411 52.9448C36.3631 52.9016 35.5851 52.8629 34.807 52.8197C32.6413 52.6855 30.4732 52.6718 28.3029 52.6263C28.1573 52.624 28.0367 52.665 28.0299 52.7241C28.0231 52.7742 28.1368 52.8265 28.2711 52.8242C30.4391 52.8766 32.6026 52.8902 34.7615 53.0244C35.5532 53.0677 36.3449 53.1086 37.1343 53.1541C37.0888 54.3871 37.0296 55.627 36.9478 56.8873C37.1775 62.759 37.6348 68.4009 38.4765 74.0701C38.6449 75.2599 38.8542 76.3791 39.0908 77.4506C39.3501 78.5221 39.6345 79.5481 39.9302 80.5514C40.226 81.5569 40.5308 82.5397 40.8311 83.5316C41.1291 84.5235 41.4681 85.5176 41.7661 86.5482C41.798 86.6688 41.8639 86.6756 41.9094 86.6096C41.9527 86.5118 41.9481 86.3412 41.9094 86.2343C40.7469 79.671 39.8483 72.9644 39.8733 65.8256C39.8756 65.0089 39.8711 64.2036 39.9166 63.4096C39.937 63.3232 39.9552 63.2253 39.9621 63.123C40.044 62.4018 40.1259 61.6784 40.2078 60.9549C40.2009 61.2074 40.1941 61.46 40.1873 61.7125C40.1577 62.213 40.2874 62.6475 40.4853 62.6884C40.5695 62.693 40.6468 62.6247 40.7151 62.511C40.7469 62.9751 40.7833 63.4369 40.8243 63.8965C40.8721 64.356 40.9267 64.8133 40.9835 65.2682C41.095 66.1805 41.2178 67.0837 41.3452 67.9868C41.3566 68.5237 41.418 69.0196 41.5159 69.4451C41.4135 70.4824 41.3589 71.5244 41.3043 72.5686C41.2474 73.6128 41.1883 74.6593 41.1314 75.7057L41.0768 76.2244C41.0381 76.9115 41.161 77.5735 41.4067 77.8988C41.4772 78.0035 41.5523 78.0649 41.6273 78.0967C41.7593 79.2843 41.8912 80.4741 42.0232 81.6639C42.1574 82.8514 42.2757 84.0366 42.46 85.2105C42.6329 86.3844 42.8149 87.5469 43.0173 88.6935C43.1174 89.2668 43.2244 89.8355 43.3358 90.3974C43.4473 90.9616 43.5884 91.5167 43.7226 92.0672C43.7794 92.2902 43.8704 92.4039 43.9592 92.3607C43.9432 92.4472 43.9455 92.5564 43.9751 92.6542C44.1685 93.1751 44.3095 93.7621 44.4392 94.3809C44.4824 94.5151 44.5416 94.5856 44.5825 94.5174C44.6371 94.4468 44.6485 94.2921 44.6144 94.1716C44.4779 93.5391 44.3232 92.9203 44.1298 92.3539C44.107 92.2925 44.0752 92.2538 44.0456 92.247C44.0934 92.115 44.1048 91.9103 44.0638 91.7123C43.9 90.568 43.7749 89.4283 43.6179 88.2931C43.4632 87.1579 43.3085 86.0249 43.1516 84.892L43.0355 84.0412L42.9423 83.1881C42.8854 82.6171 42.8262 82.0461 42.7694 81.475C42.6602 80.3285 42.5692 79.1751 42.5055 78.008C42.7148 79.1478 42.8945 80.2989 43.0674 81.4705C43.2448 82.6421 43.3836 83.8342 43.5929 85.0536C44.0684 87.9973 44.6348 90.6841 45.0671 93.6347C45.0784 93.7894 45.1421 93.8872 45.1945 93.8667C45.2468 93.8417 45.2855 93.712 45.2582 93.5619C44.8623 90.5385 44.3527 87.7061 43.8295 84.8351C43.693 84.1185 43.5861 83.3974 43.4837 82.6694C43.3813 81.9437 43.2835 81.2112 43.1993 80.4695C43.0355 78.9862 42.8831 77.4666 42.8922 75.8855C42.8922 75.6375 42.8968 75.3873 42.9036 75.1416C43.0219 75.6284 43.1425 76.1107 43.2608 76.593C43.3199 76.8341 43.3813 77.073 43.4405 77.3141L43.6361 78.0308C43.8977 78.9817 44.1594 79.9303 44.421 80.8745C44.5711 83.7659 44.8714 86.6437 45.1694 89.5034L45.2855 90.5749L45.4288 91.6418C45.5266 92.3516 45.6244 93.0637 45.7223 93.7712C45.8246 94.4787 45.9247 95.1862 46.0271 95.8937L46.1841 96.9516C46.2387 97.3042 46.3046 97.6545 46.3661 98.0049C46.3956 98.2801 46.5094 98.494 46.6163 98.4781C46.7232 98.4621 46.7869 98.221 46.7574 97.9457C46.7096 97.1427 46.6937 96.3351 46.6709 95.5297C46.6482 94.7244 46.6231 93.9168 46.6004 93.1092C46.5754 92.3016 46.5481 91.4939 46.523 90.6841C46.5117 89.8742 46.5003 89.0666 46.4889 88.2544C46.5503 88.4774 46.6095 88.7003 46.6709 88.9232L46.7596 89.5944C46.8097 90.634 46.9212 91.6668 47.0099 92.7042C47.1054 93.7416 47.2055 94.7767 47.3147 95.8141C47.3602 96.5921 47.6492 97.2132 47.9699 97.2268C48.2702 97.2132 48.4659 96.6171 48.4363 95.8687C48.4636 95.987 48.4909 96.1053 48.5182 96.2259C48.5409 96.3464 48.6069 96.4283 48.6524 96.3919C48.7025 96.3396 48.7252 96.1826 48.7025 96.0643C48.5955 95.6344 48.4909 95.2135 48.3862 94.7904C48.161 90.8524 47.9358 86.9099 47.7106 82.9651L47.7993 83.7591L47.9017 84.5531C47.9676 85.0831 48.0359 85.6155 48.1019 86.1455C48.2315 87.2079 48.3544 88.2749 48.4681 89.3441C48.5705 90.4133 48.7207 91.4826 48.839 92.5541C48.9618 93.6256 49.0756 94.6994 49.1825 95.7777C49.1392 95.6935 49.0733 95.689 49.0414 95.8004C49.0141 95.896 49.0278 96.078 49.0733 96.1644C49.1233 96.2623 49.187 96.2395 49.2166 96.144C49.2166 96.1394 49.2166 96.1371 49.2166 96.1349C49.2666 96.7127 49.3349 97.2905 49.4009 97.8684C49.4623 98.4462 49.5237 99.0263 49.5851 99.6042C49.7034 100.762 49.8081 101.925 49.9014 103.089C49.9105 103.226 49.9696 103.337 50.0288 103.328C50.0879 103.319 50.122 103.19 50.1061 103.039C49.3986 95.3386 48.5091 87.7266 47.59 80.2261C47.5718 79.8166 47.5536 79.4071 47.5377 78.9953C47.5377 78.9953 47.54 78.9953 47.5422 78.9953C47.7743 78.8611 47.9722 78.5858 48.1314 78.2128C48.2247 79.5391 48.318 80.8608 48.409 82.1826C48.4613 82.8423 48.5 83.502 48.5682 84.1618C48.6365 84.8215 48.7047 85.479 48.773 86.1387L48.914 89.4442L48.9504 90.2723L49.005 91.0981L49.1165 92.752C49.137 93.0705 49.2553 93.3276 49.394 93.3253C49.5214 93.3253 49.6011 93.0546 49.5851 92.7224L49.4828 91.1027C49.6784 91.5372 49.9264 91.8102 50.1857 91.8238C50.4337 91.8375 50.643 91.5986 50.7886 91.2141C50.9956 92.3903 51.2072 93.5596 51.4324 94.7153C51.5439 95.2931 51.6599 95.8687 51.7805 96.4397C51.9056 97.0107 52.0489 97.5749 52.19 98.1368C52.2218 98.2688 52.2832 98.3347 52.3333 98.2824C52.3811 98.2301 52.397 98.0891 52.3651 97.9594C52.3037 97.5476 52.2446 97.1358 52.1831 96.7241C52.1285 96.3123 52.0762 95.9005 52.0239 95.4911C51.9147 94.6698 51.8078 93.8485 51.6986 93.0318C51.5894 92.2128 51.4779 91.3939 51.3687 90.5749C51.2595 89.7559 51.1844 88.9346 51.0957 88.1134C51.1799 86.8053 51.2709 85.5108 51.3391 84.1936C51.4119 82.8764 51.5052 81.5342 51.5188 80.1305C51.5325 79.1068 51.512 78.1013 51.4756 77.1071C51.4597 76.113 51.421 75.1302 51.3664 74.1542C51.3118 73.1783 51.2436 72.2114 51.1662 71.2468C51.0889 70.2822 51.0457 69.3222 50.9774 68.3599C51.0843 66.979 51.1708 65.6049 51.2345 64.24C51.346 64.4356 51.487 64.5539 51.6371 64.5585C51.6758 64.5585 51.7122 64.5471 51.7509 64.5312C51.7122 65.7301 51.6713 66.9358 51.6326 68.162C51.6144 68.8718 51.5985 69.5816 51.5803 70.2868C51.5621 70.992 51.5848 71.695 51.5916 72.3957C51.6144 73.7971 51.6553 75.1893 51.7054 76.5748C51.7236 77.2664 51.7827 77.9557 51.8282 78.645C51.8806 79.332 51.9306 80.0191 51.9829 80.7038C52.0398 81.3886 52.0967 82.0711 52.1513 82.7513C52.1809 83.0925 52.2082 83.4315 52.2446 83.7705L52.3629 84.7874C52.6836 87.4968 52.9998 90.1836 53.448 92.8567C53.6619 94.192 53.8598 95.5297 54.0918 96.8606C54.3352 98.1914 54.5764 99.5223 54.8198 100.855C54.9222 101.54 55.227 102.009 55.4932 101.897C55.7639 101.786 55.9004 101.133 55.8003 100.453C55.6729 99.1697 55.5159 97.9116 55.3408 96.6695C55.177 95.4251 55.02 94.192 54.8335 92.9567C54.7379 92.3402 54.6424 91.7214 54.5468 91.1004C54.4467 90.4793 54.3421 89.8583 54.2602 89.2281C54.0805 87.97 53.8962 86.6983 53.7096 85.3971C53.4253 83.5407 53.2546 81.7913 53.0658 80.0373C52.9771 79.1591 52.8884 78.281 52.7974 77.3892C52.7223 76.4952 52.6654 75.5852 52.5995 74.6456C52.5267 73.5445 52.4743 72.4639 52.4357 71.3924C52.4106 70.8578 52.4106 70.3232 52.4129 69.7931C52.4152 69.2608 52.4197 68.733 52.422 68.2029C52.4402 67.1451 52.4561 66.0895 52.4743 65.0294C52.4812 64.4993 52.5039 63.967 52.5312 63.4346C52.5562 62.9 52.579 62.3654 52.604 61.8262C52.6654 61.4031 52.7155 60.9799 52.7155 60.55C52.7178 60.1155 52.72 59.681 52.7223 59.251C52.7473 58.8301 52.7724 58.4093 52.7974 57.9884C52.8292 57.5698 52.8725 57.1512 52.9111 56.7326C52.9907 55.8977 53.0795 55.0673 53.1705 54.2393C53.1864 54.0914 53.2046 53.9458 53.2205 53.8002C53.3729 53.8116 53.5276 53.8207 53.6801 53.832C53.6755 54.2939 53.671 54.7557 53.6641 55.2152C53.6619 56.1957 53.655 57.1762 53.6755 58.1522C53.7096 59.1304 53.7529 60.1041 53.8052 61.0732C53.8097 61.353 53.9076 61.5396 54.0145 61.5168C54.1259 61.4713 54.2147 61.2256 54.2101 60.9481L54.2147 58.9257L54.2215 57.9133L54.2556 56.9032C54.2943 55.8954 54.3307 54.8899 54.3694 53.8821C54.4831 53.8889 54.5969 53.898 54.7106 53.9048C56.0597 54.0004 57.4087 54.08 58.7555 54.1915C59.438 54.7534 60.5368 55.263 61.8062 55.6748C63.0756 56.0911 64.518 56.3845 65.8875 56.6052C66.8998 56.7622 67.853 56.7849 68.8245 56.7576C68.3877 56.6575 67.96 56.5597 67.5232 56.4596C68.8358 56.6075 69.987 56.5074 71.129 56.4118C71.2223 56.4391 71.3178 56.4687 71.4179 56.4915C72.6555 56.9601 74.0227 57.29 75.4195 57.5834C76.118 57.7336 76.8255 57.861 77.5239 58.0225C78.2223 58.184 78.9162 58.3501 79.5918 58.5321C79.5531 58.4047 79.5099 58.2637 79.4713 58.1363C79.9626 58.3228 80.2174 58.5958 80.7612 58.7664C80.6224 58.6481 80.4927 58.5344 80.3517 58.4161C80.363 58.4184 80.3744 58.4229 80.3835 58.4252C80.9409 58.7323 81.6416 58.9507 82.3832 59.0963C83.9597 59.9835 85.9389 60.7252 88.0456 61.3394C88.2913 61.5419 88.6825 61.7261 89.1626 61.8467C89.3582 61.9332 89.588 62.0219 89.7222 62.1174C90.912 63.0138 92.4271 63.7918 94.1265 64.5039C93.8126 64.315 93.4827 64.1171 93.1665 63.9283C93.6579 64.1399 94.1402 64.3537 94.7089 64.4925C94.6657 64.4106 94.6065 64.3219 94.5633 64.2377C95.3868 64.6836 96.3969 65.0544 97.3888 65.2273C98.3784 65.407 99.3384 65.4184 100.041 65.2182C101.45 64.8178 101.293 63.7281 99.6501 62.7703L99.4135 62.627C100.346 62.7521 101.199 62.7248 101.759 62.4291C102.059 62.2653 101.927 61.9263 101.946 61.6488C102.121 61.2871 101.491 60.7684 100.542 60.4931C100.283 60.418 100.03 60.3703 99.7934 60.3452C98.7288 59.9198 97.63 59.5126 96.5994 59.0644C96.3969 58.9712 96.1262 58.9484 95.992 59.0098C95.8737 59.0758 95.9419 59.2009 96.1535 59.2919C96.886 59.6582 97.589 60.0449 98.2829 60.4317C98.3488 60.4249 98.4148 60.4203 98.4831 60.4135C98.4489 60.4385 98.4057 60.4567 98.3625 60.4749C98.4262 60.5113 98.4899 60.5454 98.5536 60.5818C98.4967 60.5841 98.4421 60.5909 98.383 60.5909C98.3284 60.5659 98.276 60.5432 98.2215 60.5204C98.1145 60.5454 97.9962 60.5614 97.862 60.5659C97.498 60.4317 97.134 60.2975 96.7723 60.1587C95.8464 59.8083 94.9319 59.4717 94.0765 59.0735C94.0082 59.0394 94.1697 58.8984 94.0514 58.8028C93.9923 58.755 93.9286 58.7118 93.8626 58.6663C94.0788 58.7573 94.3085 58.8438 94.5588 58.9279C95.5825 58.912 95.9692 58.9052 96.2354 58.9006L96.24 58.9029C96.24 58.9029 96.2422 58.9029 96.3219 58.8984C96.4447 58.8984 96.5539 58.8961 96.7109 58.8938C96.7109 58.8938 96.7109 58.887 96.7132 58.8779C96.745 58.8779 96.7768 58.8779 96.8132 58.8756C96.9543 58.9234 97.0931 58.9734 97.2364 59.0212C97.3956 59.0781 97.5594 59.0872 97.6527 59.0553C97.6982 59.1122 97.7483 59.1714 97.812 59.2351C98.3443 59.4322 98.885 59.6294 99.434 59.8265C99.434 59.8265 99.4431 59.7833 99.434 59.7151C99.4681 59.7196 99.7616 59.7469 100.082 59.8538C100.293 59.9039 100.655 60.0207 101.168 60.2042L100.833 59.9335L101.136 60.1382L101.102 59.9198L101.199 60.1723L101.386 60.0495C101.386 60.0495 101.386 60.0495 101.923 60.6842C101.977 60.6865 102.105 60.6956 102.428 60.7161C102.428 60.7161 102.526 60.6956 102.601 60.6569C102.616 60.6205 102.729 60.5591 102.94 60.4726C102.94 60.4726 102.962 60.4089 102.956 60.3339V60.3498ZM100.387 51.5207L100.43 51.5798L99.4909 52.4898L100.385 51.5207H100.387ZM59.3606 3.56914C59.3174 3.63512 59.2674 3.67834 59.1832 3.75341C59.1832 3.75341 59.1832 3.75341 59.3606 3.56914ZM59.5813 16.6547C59.9794 15.6856 60.3457 14.6596 60.6778 13.604C60.8621 13.058 61.0327 12.5029 61.1942 11.9433C61.1988 12.4506 61.2215 12.9329 61.2648 13.3879C60.919 14.2865 60.5777 15.1737 60.241 16.0655C59.8179 17.1984 59.413 18.3518 59.0854 19.5803C59.0239 19.7213 58.9648 19.8601 58.9034 19.9989C58.76 20.1877 58.6144 20.3788 58.4688 20.5699C58.4757 20.5403 58.4848 20.5107 58.4916 20.4812C58.5894 20.2127 58.6781 19.9397 58.7851 19.6713L58.6645 19.8078C58.9648 18.7499 59.2651 17.6966 59.579 16.6524L59.5813 16.6547ZM57.3632 13.6313C57.4133 13.4197 57.4565 13.2059 57.4906 12.9943C57.5293 12.7827 57.5611 12.5734 57.5816 12.3687C57.9729 11.9819 58.3596 11.5702 58.7282 11.0128C58.321 11.9956 57.9661 13.1444 57.6385 14.2C57.2586 15.3693 56.8923 16.5227 56.5374 17.6761C56.5533 17.5351 56.5715 17.3963 56.5875 17.2553C56.5966 17.1165 56.6716 16.8572 56.4896 16.9686C56.8013 15.8835 57.0925 14.7756 57.3655 13.6336L57.3632 13.6313ZM56.046 8.02351C56.1302 7.95526 56.2303 7.87564 56.36 7.77099C56.36 7.77099 56.228 7.87791 56.046 8.02578C56.046 8.02578 56.046 8.02427 56.046 8.02123V8.02351ZM52.3265 3.11188L53.2364 4.05143L52.2673 3.15738L52.3265 3.11415V3.11188ZM53.3252 53.0335C53.3297 53.004 53.332 52.9721 53.3365 52.9425C53.4594 52.9607 53.5822 52.9789 53.7051 52.9971V53.0495L53.3252 53.0335ZM86.2893 55.8386C86.4281 55.8476 86.6874 55.9227 86.5759 55.7407C87.6611 56.0524 88.769 56.3436 89.911 56.6166C90.1226 56.6666 90.3364 56.7099 90.548 56.744C90.7596 56.7827 90.9689 56.8145 91.1736 56.835C91.5581 57.2263 91.9721 57.613 92.5295 57.9816C91.5467 57.5743 90.3979 57.2194 89.3423 56.8919C88.173 56.5119 87.0196 56.1457 85.8662 55.7908C86.0072 55.8067 86.146 55.8249 86.287 55.8408L86.2893 55.8386ZM83.9597 58.3365C83.8187 58.275 83.6799 58.2159 83.5412 58.1545C83.3523 58.0111 83.1612 57.8655 82.9701 57.7199C82.9997 57.7268 83.0293 57.7359 83.0589 57.7427C83.3273 57.8405 83.6003 57.9292 83.8687 58.0362L83.7322 57.9156C84.7901 58.2159 85.8434 58.5162 86.8876 58.8301C87.8567 59.2282 88.8828 59.5945 89.9383 59.9266C90.4843 60.1109 91.0394 60.2815 91.599 60.4431C91.0917 60.4476 90.6094 60.4704 90.1544 60.5136C89.2558 60.1678 88.3686 59.8266 87.4768 59.4899C86.3439 59.0667 85.1905 58.6618 83.962 58.3342L83.9597 58.3365ZM95.5143 55.2971C95.5143 55.2971 95.5165 55.2971 95.5188 55.2971C95.587 55.3813 95.6667 55.4814 95.7713 55.6111C95.7713 55.6111 95.6644 55.4791 95.5165 55.2971H95.5143ZM99.7889 58.4343C99.7889 58.4343 99.7889 58.4343 99.9732 58.6117C99.9072 58.5685 99.864 58.5184 99.7889 58.4343Z" fill="#B1488A"/>
</g>
<defs>
<clipPath id="clip0_136_3888">
<rect width="102.758" height="102.758" fill="white" transform="translate(0.197998 0.58667)"/>
</clipPath>
</defs>
</svg>
