<svg width="393" height="343" viewBox="0 0 393 343" fill="none" xmlns="http://www.w3.org/2000/svg">
<g clip-path="url(#clip0_122_3569)">
<path d="M276.685 316.966H284.186V339.713H276.685V316.966Z" fill="#A5328E"/>
<path d="M291.687 306.444H299.188V339.713H291.687V306.444Z" fill="#C69CF6"/>
<path d="M306.69 294.179H314.191V339.713H306.69V294.179Z" fill="#2C0A15"/>
<path d="M321.693 274.097H329.194V339.713H321.693V274.097Z" fill="#A5328E"/>
<path d="M336.696 261.296H344.197V339.714H336.696V261.296Z" fill="#FFEEEE"/>
<path d="M336.696 339.961H344.197C344.334 339.961 344.445 339.85 344.445 339.713V261.295C344.445 261.158 344.334 261.047 344.197 261.047H336.696C336.559 261.047 336.447 261.158 336.447 261.295V339.713C336.447 339.85 336.559 339.961 336.696 339.961ZM343.948 339.465H336.944V261.544H343.948V339.465Z" fill="#2C0A15"/>
<path d="M26.4033 316.966H33.9043V339.713H26.4033V316.966Z" fill="#A5328E"/>
<path d="M41.4062 306.444H48.9072V339.713H41.4062V306.444Z" fill="#C69CF6"/>
<path d="M56.4094 294.179H63.9104V339.713H56.4094V294.179Z" fill="#2C0A15"/>
<path d="M71.4113 274.097H78.9124V339.713H71.4113V274.097Z" fill="#A5328E"/>
<path d="M86.4143 261.296H93.9153V339.714H86.4143V261.296Z" fill="#FFEEEE"/>
<path d="M86.4143 339.961H93.9152C94.0522 339.961 94.1638 339.85 94.1638 339.713V261.295C94.1638 261.158 94.0522 261.047 93.9152 261.047H86.4143C86.2773 261.047 86.1657 261.158 86.1657 261.295V339.713C86.1657 339.85 86.2773 339.961 86.4143 339.961ZM93.6667 339.465H86.6628V261.544H93.6667V339.465Z" fill="#2C0A15"/>
<path d="M353.801 58.7359L344.097 46.4247C349.486 42.2223 352.836 36.3408 352.836 29.8311C352.836 17.0598 339.951 6.70636 324.056 6.70636C308.161 6.70636 295.275 17.0598 295.275 29.8311C295.275 42.6023 308.161 52.9558 324.056 52.9558C327.035 52.9558 329.908 52.592 332.61 51.9171L353.801 58.7369V58.7359Z" fill="#C69CF6"/>
<path d="M314.34 21.1294H334.102C334.238 21.1294 334.35 21.0179 334.35 20.8811C334.35 20.7443 334.238 20.6329 334.102 20.6329H314.34C314.203 20.6329 314.091 20.7443 314.091 20.8811C314.091 21.0179 314.203 21.1294 314.34 21.1294Z" fill="#2C0A15"/>
<path d="M307.696 28.5593H339.78C339.917 28.5593 340.029 28.4478 340.029 28.311C340.029 28.1742 339.917 28.0627 339.78 28.0627H307.696C307.559 28.0627 307.448 28.1742 307.448 28.311C307.448 28.4478 307.559 28.5593 307.696 28.5593Z" fill="#2C0A15"/>
<path d="M307.696 35.9892H339.78C339.917 35.9892 340.029 35.8778 340.029 35.7409C340.029 35.6041 339.917 35.4927 339.78 35.4927H307.696C307.559 35.4927 307.448 35.6041 307.448 35.7409C307.448 35.8778 307.559 35.9892 307.696 35.9892Z" fill="#2C0A15"/>
<path d="M254.335 57.1774L262.794 46.446C258.096 42.7827 255.176 37.6562 255.176 31.9814C255.176 20.8497 266.408 11.8248 280.262 11.8248C294.117 11.8248 305.348 20.8487 305.348 31.9814C305.348 43.1141 294.117 52.138 280.262 52.138C277.666 52.138 275.162 51.8208 272.806 51.2331L254.335 57.1774Z" fill="#FFEEEE"/>
<path d="M254.335 57.4257C254.36 57.4257 254.386 57.4216 254.411 57.4135L272.815 51.4905C275.219 52.0843 277.725 52.3863 280.262 52.3863C287.019 52.3863 293.375 50.2704 298.157 46.4277C302.955 42.573 305.597 37.4424 305.597 31.9814C305.597 26.5204 302.955 21.3898 298.157 17.535C293.375 13.6924 287.019 11.5765 280.262 11.5765C273.505 11.5765 267.149 13.6924 262.368 17.535C257.569 21.3898 254.927 26.5204 254.927 31.9814C254.927 34.7965 255.626 37.5234 257.004 40.0852C258.297 42.4878 260.126 44.6402 262.445 46.4865L254.14 57.0223C254.072 57.1085 254.069 57.2281 254.131 57.3182C254.179 57.3861 254.256 57.4246 254.335 57.4246V57.4257ZM272.806 50.9848C272.78 50.9848 272.754 50.9888 272.73 50.9969L255.035 56.692L262.988 46.601C263.029 46.5493 263.048 46.4835 263.04 46.4176C263.032 46.3517 262.999 46.292 262.947 46.2514C258.096 42.4686 255.425 37.4018 255.425 31.9824C255.425 21.0048 266.567 12.0741 280.262 12.0741C293.957 12.0741 305.1 21.0048 305.1 31.9824C305.1 42.9601 293.957 51.8907 280.262 51.8907C277.74 51.8907 275.252 51.5887 272.866 50.9929C272.845 50.9878 272.825 50.9858 272.806 50.9858V50.9848Z" fill="#2C0A15"/>
<path d="M288.697 34.6658C287.644 34.6658 286.791 33.8137 286.791 32.7627C286.791 31.7117 287.644 30.8596 288.697 30.8596C289.749 30.8596 290.602 31.7117 290.602 32.7627C290.602 33.8137 289.749 34.6658 288.697 34.6658Z" fill="#2C0A15"/>
<path d="M280.685 34.7499C279.633 34.7499 278.78 33.8978 278.78 32.8468C278.78 31.7958 279.633 30.9437 280.685 30.9437C281.738 30.9437 282.591 31.7958 282.591 32.8468C282.591 33.8978 281.738 34.7499 280.685 34.7499Z" fill="#2C0A15"/>
<path d="M273.251 34.6242C272.199 34.6242 271.346 33.7722 271.346 32.7211C271.346 31.6701 272.199 30.8181 273.251 30.8181C274.304 30.8181 275.157 31.6701 275.157 32.7211C275.157 33.7722 274.304 34.6242 273.251 34.6242Z" fill="#2C0A15"/>
<path d="M121.351 266.379L127.924 255.008L134.498 243.637L141.07 255.008L147.644 266.379H140.139V293.786H128.856V266.379H121.351Z" fill="#A5328E"/>
<path d="M99.1049 216.227L104.656 206.624L110.208 197.021L115.759 206.624L121.31 216.227H114.971V239.374H105.443V216.227H99.1049Z" fill="#C69CF6"/>
<path d="M91.9641 168.708C92.1234 169.374 92.2766 170.109 92.4796 170.832C92.8641 172.202 93.277 173.564 93.6778 174.93C92.373 175.767 88.342 177.892 88.0143 178.045C86.4254 176.455 84.942 174.971 83.4445 173.473C81.1403 174.035 78.8361 174.598 76.534 175.16C75.9293 177.253 75.3438 179.283 74.7239 181.431C72.5892 181.397 70.5234 181.366 68.4516 181.334C67.9879 179.703 67.6572 178.1 67.2249 176.566C67.0748 176.034 66.9135 175.511 66.7288 174.997C65.7832 174.728 64.867 174.468 63.9508 174.207C62.6328 173.832 61.324 173.461 60.004 173.086C58.4648 174.63 56.9591 176.14 55.3662 177.738C53.5582 176.677 51.7451 175.612 49.9096 174.535C50.5022 172.392 51.0653 170.357 51.6406 168.279C49.8579 166.59 48.3664 164.684 46.5117 163.285C44.3993 163.793 42.4421 164.263 40.4758 164.736C39.1122 163.043 38.2417 161.171 37.2869 159.24C38.7185 157.827 40.1481 156.416 41.7552 154.83C41.2753 152.546 40.6656 150.155 40 147.834C37.9708 147.278 36.0886 146.761 34.2552 146.258C33.685 145.228 33.6161 143.328 34.0148 139.826C36.0288 139.328 38.1057 138.814 40.211 138.293C40.8603 136.054 41.4996 133.848 42.1773 131.51C40.7031 129.975 39.2248 128.436 37.6654 126.812C38.6678 124.964 39.6357 123.109 40.9598 121.411C43.0813 121.996 45.1278 122.561 47.1367 123.114C48.8636 121.416 50.5194 119.788 52.1884 118.147C51.668 116.09 51.1566 114.069 50.6604 112.106C52.4614 110.803 54.2948 109.853 56.2408 109.02C57.7586 110.538 59.2369 112.017 60.7193 113.499C63.0975 112.885 65.3865 112.295 67.6135 111.72C68.2304 109.618 68.7996 107.678 69.381 105.695C71.4975 105.392 73.5104 105.471 75.5569 105.705C75.7192 106.072 75.91 106.385 75.9993 106.725C76.328 107.976 76.6547 109.229 76.9165 110.495C77.0392 111.089 77.2158 111.618 77.6196 112.018C78.7631 112.339 79.8944 112.656 81.0155 112.972C82.0808 113.27 83.1381 113.568 84.1851 113.862C85.7131 112.351 87.2056 110.875 88.7539 109.345C90.636 110.362 92.6186 111.211 94.2196 112.724C93.6393 114.732 93.0893 116.635 92.5151 118.619C94.1395 120.297 95.7557 121.967 97.4532 123.72C97.5861 123.688 97.72 123.656 97.8529 123.624C99.8162 123.15 101.8 122.671 103.758 122.197C105.056 124.002 106.014 125.857 106.833 127.729C105.266 129.284 103.81 130.73 102.325 132.204C102.962 134.528 103.333 136.864 104.193 139.114C106.169 139.669 108.089 140.208 109.985 140.741C110.432 141.756 110.482 144.19 110.109 146.994C109.742 147.116 109.328 147.276 108.904 147.392C107.607 147.751 106.305 148.084 105.009 148.446C104.588 148.564 104.183 148.739 103.838 148.863C103.17 151.202 102.541 153.406 101.942 155.504C103.541 157.111 105.013 158.591 106.489 160.075C105.458 161.972 104.614 163.909 103.088 165.472C101.054 164.935 99.0786 164.412 97.0372 163.873C95.357 165.474 93.7052 167.048 91.9631 168.708H91.9641ZM88.6788 132.907C82.7779 123.823 70.5833 121.212 61.4407 127.076C52.298 132.94 49.6702 145.058 55.5712 154.142C61.4721 163.227 73.6667 165.838 82.8093 159.974C91.952 154.11 94.5798 141.992 88.6788 132.907Z" fill="#FFEEEE"/>
<path d="M74.7238 181.679C74.8344 181.679 74.9318 181.606 74.9632 181.499L76.7337 175.367L83.3673 173.746L87.8386 178.219C87.9127 178.293 88.0243 178.312 88.1197 178.269C88.4423 178.119 92.5018 175.979 93.8126 175.138C93.906 175.078 93.9476 174.964 93.9172 174.859C93.7995 174.46 93.6818 174.06 93.5631 173.662C93.282 172.714 92.9908 171.733 92.7189 170.764C92.5789 170.265 92.4632 169.761 92.3506 169.272C92.3131 169.108 92.2755 168.947 92.239 168.789C93.5519 167.539 94.8141 166.336 96.0773 165.132L97.1091 164.149L103.025 165.712C103.112 165.735 103.205 165.709 103.267 165.646C104.527 164.355 105.344 162.791 106.134 161.278C106.32 160.922 106.513 160.553 106.708 160.194C106.761 160.097 106.744 159.978 106.666 159.9L102.222 155.432L104.043 149.053C104.112 149.027 104.183 148.999 104.256 148.972C104.521 148.87 104.795 148.764 105.077 148.685C105.766 148.493 106.469 148.305 107.149 148.124C107.746 147.965 108.364 147.799 108.97 147.631C109.274 147.547 109.564 147.446 109.845 147.346C109.963 147.305 110.078 147.265 110.188 147.228C110.279 147.197 110.344 147.119 110.356 147.025C110.737 144.151 110.682 141.705 110.212 140.639C110.181 140.571 110.122 140.521 110.051 140.5L104.382 138.907C103.851 137.488 103.503 136.001 103.166 134.561C102.991 133.813 102.81 133.041 102.604 132.277C104.053 130.838 105.479 129.423 107.01 127.903C107.083 127.831 107.103 127.722 107.062 127.628C106.098 125.424 105.112 123.651 103.961 122.05C103.902 121.968 103.798 121.93 103.7 121.954L97.5332 123.444L92.794 118.548L94.459 112.791C94.4843 112.702 94.4589 112.606 94.391 112.542C93.0892 111.313 91.5298 110.507 90.0221 109.728C89.6436 109.532 89.252 109.331 88.8725 109.125C88.7761 109.073 88.6574 109.09 88.5793 109.166L84.114 113.583L77.7524 111.796C77.4013 111.421 77.2603 110.925 77.1609 110.443C76.9093 109.223 76.6079 108.058 76.2417 106.66C76.1747 106.406 76.0631 106.178 75.9444 105.936C75.8916 105.828 75.8368 105.717 75.7861 105.602C75.7506 105.521 75.6745 105.466 75.5872 105.457C73.1654 105.179 71.2407 105.177 69.3474 105.447C69.251 105.462 69.1709 105.53 69.1435 105.624L67.4156 111.513C65.2748 112.066 63.0761 112.633 60.7963 113.222L56.4182 108.843C56.3462 108.771 56.2376 108.75 56.1443 108.79C53.9284 109.74 52.1407 110.729 50.5163 111.903C50.4341 111.963 50.3965 112.067 50.4209 112.166L51.9144 118.069L47.0666 122.835L41.0276 121.17C40.9313 121.143 40.8267 121.177 40.7649 121.257C39.5331 122.837 38.5946 124.573 37.6855 126.254L37.4481 126.692C37.3964 126.788 37.4126 126.905 37.4877 126.983L41.9002 131.578L40.013 138.085L33.9568 139.584C33.8564 139.61 33.7813 139.694 33.7691 139.797C33.3602 143.385 33.4384 145.291 34.039 146.377C34.0715 146.435 34.1263 146.478 34.1912 146.496L39.801 148.035C40.4767 150.402 41.0439 152.657 41.4863 154.747L37.1143 159.062C37.0382 159.137 37.0189 159.252 37.0666 159.349C37.1528 159.522 37.2381 159.695 37.3223 159.867C38.1989 161.648 39.0258 163.329 40.2849 164.89C40.3448 164.965 40.4432 164.998 40.5366 164.976C42.4674 164.512 44.389 164.051 46.4578 163.553C47.5688 164.406 48.5398 165.433 49.5666 166.517C50.1429 167.126 50.7385 167.755 51.3645 168.355L49.6731 174.468C49.6427 174.576 49.6894 174.692 49.7868 174.749L55.2433 177.952C55.3417 178.009 55.4655 177.993 55.5457 177.913C57.1031 176.351 58.5763 174.872 60.08 173.364C61.3513 173.725 62.6134 174.084 63.8858 174.446L66.54 175.199C66.6922 175.633 66.8393 176.103 66.9884 176.632C67.1964 177.371 67.377 178.112 67.5688 178.896C67.7677 179.712 67.9746 180.555 68.2151 181.401C68.2445 181.507 68.3409 181.58 68.4505 181.582L74.7228 181.678H74.7269L74.7238 181.679ZM83.4444 173.224C83.4251 173.224 83.4048 173.226 83.3855 173.232L76.475 174.919C76.3888 174.94 76.3198 175.006 76.2954 175.091L74.5381 181.179L68.6422 181.088C68.4251 180.31 68.2354 179.533 68.0507 178.779C67.858 177.99 67.6763 177.245 67.4653 176.499C67.2989 175.909 67.1356 175.39 66.9641 174.913C66.9367 174.838 66.8748 174.78 66.7977 174.758L64.0197 173.968C62.7007 173.593 61.3929 173.221 60.0729 172.846C59.9856 172.821 59.8923 172.846 59.8283 172.91C58.3328 174.41 56.8697 175.878 55.3265 177.427L50.2007 174.418L51.8809 168.346C51.9053 168.258 51.8789 168.163 51.8119 168.1C51.1555 167.479 50.5305 166.817 49.9247 166.178C48.8553 165.048 47.8448 163.98 46.6618 163.088C46.6019 163.043 46.5258 163.027 46.4538 163.044C44.3961 163.539 42.4866 163.998 40.5721 164.458C39.4022 162.973 38.6068 161.358 37.7667 159.651C37.7079 159.531 37.649 159.411 37.5902 159.292L41.9306 155.007C41.9905 154.948 42.0169 154.862 41.9996 154.779C41.5421 152.603 40.9505 150.244 40.2403 147.766C40.216 147.683 40.151 147.618 40.0668 147.595L34.4266 146.047C33.9406 145.066 33.8858 143.245 34.244 140.026L40.2718 138.534C40.358 138.513 40.426 138.447 40.4514 138.362L42.4176 131.579C42.442 131.494 42.4197 131.401 42.3578 131.338L37.9717 126.77L38.1228 126.491C38.9964 124.875 39.8984 123.207 41.055 121.694L47.0707 123.353C47.1559 123.377 47.2482 123.353 47.3111 123.29L52.3628 118.323C52.4258 118.261 52.4511 118.171 52.4298 118.085L50.9434 112.208C52.4633 111.126 54.1364 110.202 56.1839 109.314L60.5436 113.674C60.6055 113.737 60.6968 113.761 60.7821 113.739C63.1603 113.125 65.4493 112.534 67.6763 111.959C67.7616 111.937 67.8285 111.872 67.8529 111.789L69.5757 105.918C71.3381 105.68 73.1451 105.687 75.3904 105.935C75.4259 106.011 75.4614 106.084 75.4969 106.155C75.6045 106.374 75.7059 106.58 75.7597 106.787C76.125 108.177 76.4243 109.337 76.6739 110.545C76.7875 111.094 76.9681 111.72 77.445 112.194C77.4754 112.224 77.5119 112.246 77.5535 112.257L84.1191 114.101C84.2053 114.126 84.2977 114.101 84.3616 114.039L88.7995 109.65C89.1313 109.827 89.4671 110 89.7938 110.17C91.2274 110.91 92.7098 111.676 93.9385 112.801L92.2765 118.549C92.2522 118.634 92.2745 118.726 92.3364 118.79L97.2745 123.891C97.3364 123.955 97.4267 123.981 97.5119 123.96L103.653 122.477C104.716 123.976 105.636 125.634 106.538 127.671C105.016 129.181 103.598 130.59 102.151 132.027C102.087 132.089 102.062 132.182 102.086 132.269C102.305 133.069 102.497 133.885 102.681 134.674C103.031 136.169 103.393 137.716 103.961 139.201C103.989 139.274 104.05 139.331 104.126 139.352L109.8 140.946C110.18 141.958 110.214 144.219 109.883 146.807C109.817 146.831 109.75 146.854 109.681 146.877C109.408 146.974 109.125 147.072 108.838 147.152C108.233 147.319 107.616 147.483 107.021 147.642C106.339 147.825 105.634 148.012 104.943 148.206C104.637 148.291 104.34 148.406 104.077 148.507C103.965 148.55 103.857 148.592 103.755 148.628C103.68 148.656 103.622 148.718 103.601 148.794L101.704 155.434C101.68 155.52 101.704 155.613 101.767 155.677L106.184 160.117C106.016 160.428 105.853 160.741 105.694 161.046C104.907 162.552 104.163 163.976 103.011 165.192L97.102 163.63C97.0188 163.608 96.9295 163.63 96.8666 163.691L95.7343 164.77C94.4376 166.005 93.143 167.24 91.7926 168.526C91.7286 168.586 91.7012 168.678 91.7225 168.764C91.7702 168.964 91.8179 169.171 91.8666 169.382C91.9803 169.876 92.0969 170.387 92.24 170.897C92.5129 171.869 92.8041 172.852 93.0862 173.802C93.1866 174.14 93.2871 174.479 93.3865 174.817C92.0756 175.629 88.8492 177.34 88.0639 177.74L83.6209 173.294C83.5732 173.247 83.5103 173.221 83.4444 173.221V173.224ZM72.1568 163.345C75.8622 163.345 79.6061 162.323 82.9442 160.183C87.4287 157.307 90.5142 152.866 91.6333 147.68C92.7493 142.509 91.7743 137.215 88.8877 132.771C82.9218 123.587 70.5487 120.938 61.3066 126.867C56.8221 129.742 53.7366 134.183 52.6175 139.369C51.5025 144.539 52.4775 149.834 55.363 154.277C59.1739 160.144 65.6015 163.345 72.1568 163.345ZM88.4707 133.042C91.2843 137.373 92.2339 142.534 91.1473 147.575C90.0566 152.631 87.0482 156.96 82.6753 159.764C79.4204 161.852 75.7678 162.849 72.1558 162.849C65.7638 162.849 59.4976 159.729 55.7811 154.006C52.9675 149.675 52.0169 144.514 53.1045 139.474C54.1952 134.418 57.2035 130.089 61.5765 127.284C70.5893 121.503 82.654 124.086 88.4718 133.042H88.4707Z" fill="#2C0A15"/>
<path d="M331.604 147.099C331.925 147.934 332.251 148.861 332.637 149.762C333.372 151.471 334.142 153.165 334.897 154.866C333.351 156.175 328.495 159.622 328.096 159.877C325.762 158.089 323.586 156.423 321.385 154.739C318.497 155.865 315.609 156.99 312.724 158.114C312.302 160.93 311.893 163.661 311.461 166.55C308.69 166.875 306.007 167.19 303.317 167.505C302.435 165.47 301.729 163.452 300.906 161.538C300.619 160.875 300.319 160.224 299.992 159.59C298.721 159.404 297.488 159.224 296.258 159.045C294.485 158.786 292.725 158.529 290.951 158.27C289.223 160.535 287.534 162.751 285.745 165.097C283.22 164.033 280.687 162.966 278.123 161.886C278.521 159.008 278.899 156.274 279.285 153.482C276.684 151.601 274.422 149.387 271.778 147.895C269.128 148.916 266.674 149.863 264.208 150.812C262.15 148.855 260.699 146.577 259.128 144.241C260.739 142.162 262.348 140.089 264.157 137.757C263.141 134.88 261.939 131.888 260.674 128.995C257.949 128.623 255.422 128.277 252.959 127.942C252.043 126.704 251.625 124.254 251.539 119.65C254.063 118.657 256.665 117.634 259.303 116.597C259.757 113.585 260.206 110.615 260.68 107.47C258.505 105.734 256.325 103.995 254.025 102.16C255.005 99.5933 255.939 97.0234 257.361 94.5954C260.211 94.9886 262.96 95.3676 265.658 95.7395C267.603 93.2416 269.467 90.848 271.346 88.4332C270.317 85.8573 269.306 83.3279 268.323 80.8695C270.433 78.8712 272.644 77.3259 275.021 75.9102C277.25 77.6157 279.42 79.2766 281.597 80.9425C284.571 79.7376 287.436 78.5784 290.222 77.4505C290.658 74.6212 291.061 72.0088 291.473 69.3396C294.164 68.5827 296.784 68.3384 299.477 68.2898C299.751 68.7367 300.052 69.1106 300.226 69.5352C300.867 71.0998 301.507 72.6675 302.064 74.2615C302.326 75.0103 302.647 75.665 303.238 76.1149C304.775 76.3338 306.295 76.5517 307.802 76.7665C309.235 76.9712 310.655 77.1738 312.062 77.3745C313.782 75.1532 315.46 72.9847 317.202 70.735C319.817 71.7291 322.532 72.4891 324.867 74.1723C324.461 76.8739 324.076 79.4336 323.675 82.1028C326.069 83.9968 328.452 85.8826 330.954 87.8627C331.121 87.7978 331.289 87.733 331.455 87.6691C333.918 86.7166 336.405 85.7549 338.861 84.8044C340.854 86.9193 342.416 89.1588 343.8 91.4429C342.038 93.728 340.401 95.852 338.731 98.0175C339.958 100.918 340.841 103.882 342.343 106.649C344.998 107.028 347.581 107.397 350.127 107.761C350.882 108.998 351.366 112.144 351.368 115.841C350.913 116.064 350.405 116.341 349.875 116.566C348.256 117.253 346.626 117.911 345.011 118.602C344.485 118.827 343.991 119.124 343.566 119.344C343.104 122.49 342.669 125.454 342.255 128.274C344.604 130.081 346.767 131.745 348.935 133.414C347.928 136.049 347.167 138.704 345.459 140.992C342.73 140.645 340.081 140.309 337.343 139.962C335.442 142.326 333.574 144.649 331.603 147.099H331.604ZM321.169 101.278C311.956 90.5238 295.705 89.2398 284.872 98.4107C274.038 107.582 272.724 123.734 281.936 134.489C291.149 145.244 307.4 146.529 318.234 137.357C329.068 128.186 330.382 112.032 321.169 101.277V101.278Z" fill="#FFEEEE"/>
<path d="M303.318 167.753C303.327 167.753 303.337 167.753 303.348 167.751L311.491 166.797C311.602 166.784 311.692 166.697 311.708 166.587L312.95 158.293L321.347 155.021L327.946 160.073C328.029 160.137 328.143 160.142 328.231 160.085C328.623 159.836 333.508 156.367 335.058 155.055C335.142 154.984 335.17 154.866 335.125 154.764C334.905 154.268 334.683 153.771 334.461 153.276C333.932 152.094 333.385 150.872 332.867 149.664C332.599 149.041 332.361 148.405 332.131 147.79C332.049 147.57 331.968 147.354 331.888 147.143C333.364 145.308 334.783 143.543 336.203 141.777L337.451 140.225L345.429 141.237C345.518 141.248 345.606 141.211 345.66 141.139C347.063 139.258 347.85 137.096 348.611 135.006C348.791 134.512 348.977 134.003 349.168 133.501C349.208 133.399 349.174 133.282 349.088 133.215L342.524 128.165L343.795 119.504C343.89 119.453 343.989 119.399 344.09 119.343C344.417 119.165 344.755 118.981 345.111 118.828C345.97 118.46 346.849 118.096 347.699 117.743C348.446 117.434 349.218 117.114 349.975 116.792C350.352 116.632 350.71 116.45 351.056 116.275C351.202 116.201 351.343 116.129 351.48 116.062C351.565 116.021 351.619 115.934 351.619 115.839C351.617 112.064 351.128 108.918 350.341 107.63C350.303 107.567 350.238 107.524 350.164 107.514L342.504 106.42C341.56 104.658 340.847 102.776 340.157 100.954C339.795 100.003 339.423 99.0197 339.018 98.054C340.657 95.9279 342.267 93.8394 343.999 91.5938C344.062 91.5128 344.068 91.4013 344.014 91.3131C342.388 88.6288 340.808 86.5068 339.043 84.6331C338.974 84.5592 338.866 84.5348 338.772 84.5713L330.998 87.5779L323.943 81.9954L325.113 74.2067C325.127 74.1145 325.088 74.0223 325.013 73.9686C323.122 72.6057 320.968 71.8325 318.885 71.0836C318.361 70.8951 317.819 70.7006 317.291 70.4999C317.189 70.4614 317.073 70.4938 317.006 70.58L311.956 77.1049L303.341 75.8757C302.796 75.437 302.519 74.8016 302.301 74.1774C301.764 72.6401 301.173 71.1829 300.458 69.4379C300.331 69.1268 300.148 68.8532 299.955 68.5634C299.868 68.4327 299.777 68.2969 299.691 68.157C299.645 68.082 299.563 68.0354 299.474 68.0385C296.294 68.0962 293.806 68.4225 291.407 69.0974C291.313 69.1238 291.243 69.2028 291.228 69.2991C290.872 71.6085 290.522 73.8754 290.152 76.276L289.998 77.2701C287.295 78.3645 284.518 79.4883 281.636 80.6557L275.173 75.7095C275.092 75.6477 274.982 75.6417 274.894 75.6933C272.192 77.3015 270.05 78.8874 268.153 80.6851C268.079 80.755 268.056 80.8635 268.093 80.9577L271.062 88.3886L265.549 95.4689C262.902 95.1041 260.208 94.7322 257.413 94.3471L257.394 94.3441C257.295 94.3309 257.196 94.3775 257.145 94.4647C255.825 96.7184 254.909 99.1271 254.023 101.457L253.791 102.066C253.753 102.167 253.784 102.281 253.868 102.349L260.412 107.569L259.077 116.413L251.447 119.412C251.351 119.451 251.288 119.544 251.29 119.648C251.378 124.35 251.805 126.795 252.759 128.084C252.799 128.137 252.859 128.173 252.926 128.182L260.502 129.216C261.8 132.197 262.935 135.051 263.876 137.705L258.931 144.081C258.865 144.167 258.861 144.283 258.921 144.372C259.062 144.582 259.202 144.792 259.342 145.001C260.782 147.153 262.142 149.185 264.037 150.985C264.107 151.051 264.208 151.072 264.297 151.037C266.729 150.1 269.149 149.166 271.758 148.161C273.363 149.081 274.809 150.253 276.338 151.491C277.2 152.19 278.091 152.912 279.018 153.588L277.876 161.843C277.861 161.955 277.922 162.062 278.026 162.107L285.649 165.318C285.753 165.363 285.875 165.33 285.943 165.24C287.701 162.935 289.363 160.755 291.061 158.53C292.786 158.781 294.497 159.03 296.222 159.283L299.83 159.809C300.108 160.354 300.386 160.951 300.678 161.629C301.076 162.551 301.438 163.48 301.823 164.464C302.221 165.485 302.633 166.542 303.091 167.595C303.131 167.686 303.221 167.745 303.319 167.745L303.318 167.753ZM311.243 166.327L303.473 167.237C303.049 166.247 302.661 165.254 302.285 164.292C301.9 163.304 301.536 162.37 301.135 161.44C300.818 160.704 300.517 160.062 300.214 159.476C300.177 159.405 300.108 159.356 300.029 159.345L296.294 158.799C294.522 158.541 292.761 158.284 290.988 158.025C290.898 158.013 290.809 158.048 290.754 158.12C289.064 160.337 287.41 162.505 285.665 164.793L278.396 161.731L279.534 153.517C279.546 153.426 279.507 153.335 279.433 153.282C278.475 152.588 277.548 151.839 276.653 151.113C275.076 149.835 273.584 148.627 271.903 147.678C271.838 147.641 271.761 147.635 271.691 147.663C269.093 148.664 266.685 149.593 264.268 150.523C262.472 148.787 261.153 146.815 259.758 144.731C259.652 144.571 259.544 144.411 259.436 144.251L264.354 137.909C264.406 137.842 264.42 137.754 264.392 137.674C263.425 134.935 262.251 131.981 260.904 128.895C260.869 128.816 260.795 128.761 260.709 128.748L253.1 127.71C252.276 126.513 251.882 124.133 251.791 119.818L259.394 116.828C259.476 116.796 259.536 116.722 259.549 116.634L260.927 107.507C260.94 107.418 260.906 107.331 260.837 107.275L254.322 102.078L254.489 101.638C255.349 99.3774 256.237 97.0406 257.492 94.8639C260.284 95.249 262.978 95.6209 265.625 95.9857C265.713 95.9979 265.8 95.9624 265.855 95.8925L271.543 88.5872C271.596 88.5173 271.61 88.4241 271.577 88.343L268.618 80.9364C270.424 79.2441 272.461 77.7373 275.004 76.2122L281.445 81.1421C281.515 81.1958 281.609 81.208 281.69 81.1756C284.665 79.9707 287.529 78.8114 290.315 77.6836C290.396 77.6511 290.454 77.5772 290.467 77.491L290.642 76.3571C291.004 74.0112 291.346 71.7929 291.694 69.5382C293.968 68.914 296.34 68.606 299.34 68.5431C299.406 68.6475 299.473 68.7468 299.538 68.8441C299.717 69.1126 299.887 69.367 299.995 69.6315C300.709 71.3694 301.296 72.8195 301.829 74.3456C302.067 75.0276 302.402 75.7947 303.087 76.3145C303.12 76.3399 303.16 76.3571 303.203 76.3632L312.027 77.6228C312.116 77.6349 312.204 77.5995 312.259 77.5285L317.286 71.0339C317.763 71.2133 318.247 71.3866 318.717 71.5558C320.722 72.2763 322.794 73.0201 324.598 74.2878L323.429 82.0683C323.416 82.1565 323.45 82.2447 323.52 82.3004L330.799 88.0603C330.868 88.115 330.961 88.1292 331.043 88.0968L338.793 85.0993C340.456 86.8828 341.957 88.9014 343.498 91.4287C341.775 93.6631 340.17 95.7445 338.533 97.8675C338.478 97.9384 338.466 98.0337 338.501 98.1158C338.924 99.116 339.312 100.141 339.688 101.133C340.398 103.007 341.133 104.946 342.123 106.769C342.16 106.838 342.228 106.885 342.307 106.896L349.971 107.991C350.658 109.235 351.103 112.217 351.117 115.688C351.022 115.736 350.926 115.785 350.826 115.835C350.487 116.007 350.137 116.185 349.776 116.338C349.021 116.659 348.25 116.978 347.504 117.287C346.653 117.64 345.772 118.005 344.911 118.374C344.534 118.536 344.169 118.734 343.848 118.91C343.71 118.986 343.576 119.058 343.449 119.125C343.378 119.161 343.329 119.23 343.317 119.309L342.006 128.239C341.993 128.328 342.03 128.417 342.101 128.472L348.635 133.499C348.465 133.948 348.3 134.4 348.141 134.839C347.374 136.944 346.649 138.936 345.343 140.728L337.373 139.717C337.286 139.706 337.201 139.74 337.147 139.808L335.812 141.469C334.363 143.27 332.915 145.07 331.408 146.945C331.352 147.014 331.338 147.107 331.369 147.19C331.467 147.442 331.563 147.702 331.662 147.967C331.895 148.587 332.134 149.227 332.407 149.863C332.928 151.075 333.475 152.298 334.004 153.481C334.2 153.92 334.397 154.359 334.591 154.798C333.037 156.08 328.98 158.973 328.104 159.573L321.536 154.543C321.467 154.491 321.375 154.477 321.294 154.509L312.632 157.884C312.549 157.917 312.49 157.991 312.477 158.079L311.241 166.328L311.243 166.327ZM301.561 143.727C307.733 143.727 313.643 141.57 318.395 137.547C323.694 133.062 326.916 126.797 327.47 119.905C328.022 113.033 325.852 106.361 321.359 101.117C316.86 95.8651 310.57 92.672 303.648 92.1248C296.727 91.5776 290.001 93.7432 284.711 98.2212C279.413 102.706 276.19 108.972 275.637 115.864C275.085 122.734 277.256 129.407 281.748 134.651C286.246 139.903 292.536 143.096 299.458 143.644C300.161 143.699 300.862 143.727 301.56 143.727H301.561ZM320.981 101.44C325.386 106.582 327.515 113.127 326.974 119.864C326.431 126.623 323.27 132.768 318.074 137.167C313.276 141.229 307.39 143.216 301.538 143.216C294.323 143.216 287.157 140.198 282.127 134.327C277.722 129.184 275.593 122.641 276.134 115.903C276.677 109.144 279.837 102.999 285.034 98.6002C295.746 89.5317 311.872 90.8055 320.982 101.44H320.981Z" fill="#2C0A15"/>
<path d="M185.37 11.2705H134.99L130.996 19.5547H20.2758V137.986H185.37V11.2705Z" fill="#C69CF6"/>
<path d="M30.1542 30.2668H175.491V128.056H30.1542V30.2668Z" fill="#FFEEEE"/>
<path d="M30.1551 128.305H175.492C175.629 128.305 175.74 128.193 175.74 128.056V30.2668C175.74 30.13 175.629 30.0186 175.492 30.0186H30.1551C30.0182 30.0186 29.9066 30.13 29.9066 30.2668V128.056C29.9066 128.193 30.0182 128.305 30.1551 128.305ZM175.242 127.807H30.4037V30.5151H175.242V127.807Z" fill="#2C0A15"/>
<path d="M118.561 52.1086H165.627C165.764 52.1086 165.875 51.9971 165.875 51.8603C165.875 51.7235 165.764 51.6121 165.627 51.6121H118.561C118.424 51.6121 118.312 51.7235 118.312 51.8603C118.312 51.9971 118.424 52.1086 118.561 52.1086Z" fill="#2C0A15"/>
<path d="M118.561 67.3444H165.627C165.764 67.3444 165.875 67.2329 165.875 67.0961C165.875 66.9593 165.764 66.8478 165.627 66.8478H118.561C118.424 66.8478 118.312 66.9593 118.312 67.0961C118.312 67.2329 118.424 67.3444 118.561 67.3444Z" fill="#2C0A15"/>
<path d="M118.561 97.8148H165.627C165.764 97.8148 165.875 97.7034 165.875 97.5666C165.875 97.4298 165.764 97.3183 165.627 97.3183H118.561C118.424 97.3183 118.312 97.4298 118.312 97.5666C118.312 97.7034 118.424 97.8148 118.561 97.8148Z" fill="#2C0A15"/>
<path d="M118.561 113.05H165.627C165.764 113.05 165.875 112.938 165.875 112.801C165.875 112.665 165.764 112.553 165.627 112.553H118.561C118.424 112.553 118.312 112.665 118.312 112.801C118.312 112.938 118.424 113.05 118.561 113.05Z" fill="#2C0A15"/>
<path d="M118.561 82.5791H165.627C165.764 82.5791 165.875 82.4676 165.875 82.3308C165.875 82.194 165.764 82.0825 165.627 82.0825H118.561C118.424 82.0825 118.312 82.194 118.312 82.3308C118.312 82.4676 118.424 82.5791 118.561 82.5791Z" fill="#2C0A15"/>
<path d="M76.7824 112.76C83.3205 112.76 89.7156 110.849 95.2909 107.159C102.779 102.203 107.885 94.6309 109.671 85.839C111.457 77.0462 109.707 68.0861 104.745 60.6076C99.7826 53.129 92.2014 48.0288 83.3987 46.2453C74.5959 44.4618 65.6238 46.2088 58.136 51.1651C50.6481 56.1215 45.5416 63.6932 43.7559 72.4851L43.7458 72.5347L43.7955 72.5449L76.6536 79.2016L69.9785 112.069L70.0282 112.079C72.2776 112.535 74.5391 112.76 76.7824 112.76ZM76.7033 45.6718C78.906 45.6718 81.1381 45.8896 83.3784 46.3436C92.1547 48.122 99.7136 53.2071 104.661 60.6633C109.608 68.1195 111.352 77.0533 109.572 85.8187C107.791 94.5842 102.7 102.134 95.2341 107.075C87.7828 112.007 78.8583 113.751 70.0972 111.99L76.7723 79.1225L76.7226 79.1124L43.8645 72.4557C47.1041 56.6241 61.1088 45.6728 76.7023 45.6728L76.7033 45.6718Z" fill="#FFEEEE"/>
<path d="M70.0382 112.029C88.2129 115.712 105.935 103.981 109.622 85.8289C113.309 67.6767 101.564 49.9765 83.3895 46.294C65.2148 42.6115 47.4926 54.342 43.8055 72.4942L76.7133 79.161L70.0382 112.028V112.029Z" fill="#C69CF6"/>
<path d="M63.4069 112.705L70.4421 82.651L40.5416 78.1335C36.8546 96.2857 45.2322 109.022 63.4069 112.705Z" fill="#A5328E"/>
<path d="M50.1408 22.843H130.479V26.7302H50.1408V22.843Z" fill="#FFEEEE"/>
<path d="M50.1408 26.9785H130.478C130.615 26.9785 130.727 26.867 130.727 26.7302V22.843C130.727 22.7062 130.615 22.5947 130.478 22.5947H50.1408C50.0038 22.5947 49.8922 22.7062 49.8922 22.843V26.7302C49.8922 26.867 50.0038 26.9785 50.1408 26.9785ZM130.23 26.4809H50.3904V23.0913H130.23V26.4809Z" fill="#2C0A15"/>
<path d="M53.0385 120.889H90.0007C90.1376 120.889 90.2493 120.777 90.2493 120.641C90.2493 120.504 90.1376 120.392 90.0007 120.392H53.0385C52.9015 120.392 52.7899 120.504 52.7899 120.641C52.7899 120.777 52.9015 120.889 53.0385 120.889Z" fill="#2C0A15"/>
<path d="M49.4711 38.2875H102.15C102.287 38.2875 102.398 38.176 102.398 38.0392C102.398 37.9024 102.287 37.791 102.15 37.791H49.4711C49.3342 37.791 49.2226 37.9024 49.2226 38.0392C49.2226 38.176 49.3342 38.2875 49.4711 38.2875Z" fill="#2C0A15"/>
<path d="M132.763 38.3726H151.664C151.8 38.3726 151.912 38.2611 151.912 38.1243C151.912 37.9875 151.8 37.876 151.664 37.876H132.763C132.626 37.876 132.515 37.9875 132.515 38.1243C132.515 38.2611 132.626 38.3726 132.763 38.3726Z" fill="#2C0A15"/>
<path d="M1.06839 339.961H392.571C392.708 339.961 392.82 339.85 392.82 339.713C392.82 339.576 392.708 339.465 392.571 339.465H1.06839C0.931427 339.465 0.819824 339.576 0.819824 339.713C0.819824 339.85 0.931427 339.961 1.06839 339.961Z" fill="#2C0A15"/>
<path d="M375.227 118.688H324.846L320.853 126.972H210.133V245.403H375.227V118.688Z" fill="#C69CF6"/>
<path d="M210.7 137.986H364.415V235.776H210.7V137.986Z" fill="#FFEEEE"/>
<path d="M210.7 236.024H364.415C364.552 236.024 364.663 235.912 364.663 235.776V137.986C364.663 137.849 364.552 137.738 364.415 137.738H210.7C210.563 137.738 210.451 137.849 210.451 137.986V235.776C210.451 235.912 210.563 236.024 210.7 236.024ZM364.166 235.526H210.948V138.234H364.166V235.526Z" fill="#2C0A15"/>
<path d="M207.375 165.878H252.943C253.08 165.878 253.191 165.766 253.191 165.629C253.191 165.493 253.08 165.381 252.943 165.381H207.375C207.238 165.381 207.126 165.493 207.126 165.629C207.126 165.766 207.238 165.878 207.375 165.878Z" fill="#2C0A15"/>
<path d="M207.375 150.052H252.943C253.08 150.052 253.191 149.941 253.191 149.804C253.191 149.667 253.08 149.556 252.943 149.556H207.375C207.238 149.556 207.126 149.667 207.126 149.804C207.126 149.941 207.238 150.052 207.375 150.052Z" fill="#2C0A15"/>
<path d="M207.375 181.702H252.943C253.08 181.702 253.191 181.591 253.191 181.454C253.191 181.317 253.08 181.206 252.943 181.206H207.375C207.238 181.206 207.126 181.317 207.126 181.454C207.126 181.591 207.238 181.702 207.375 181.702Z" fill="#2C0A15"/>
<path d="M207.375 197.528H252.943C253.08 197.528 253.191 197.416 253.191 197.279C253.191 197.143 253.08 197.031 252.943 197.031H207.375C207.238 197.031 207.126 197.143 207.126 197.279C207.126 197.416 207.238 197.528 207.375 197.528Z" fill="#2C0A15"/>
<path d="M207.375 213.353H252.943C253.08 213.353 253.191 213.242 253.191 213.105C253.191 212.968 253.08 212.857 252.943 212.857H207.375C207.238 212.857 207.126 212.968 207.126 213.105C207.126 213.242 207.238 213.353 207.375 213.353Z" fill="#2C0A15"/>
<path d="M330.362 224.547H318.896V211.67H330.362V224.547Z" fill="#2C0A15"/>
<path d="M273.037 224.818H261.572V201.392H273.037V224.818Z" fill="#C69CF6"/>
<path d="M318.492 224.817H307.431V189.029H318.492V224.817Z" fill="#A5328E"/>
<path d="M353.08 224.817H341.615V189.029H353.08V224.817Z" fill="#C69CF6"/>
<path d="M295.967 224.505H284.502V194.69H295.967V224.505Z" fill="#A5328E"/>
<path d="M330.361 224.801H341.826C341.963 224.801 342.074 224.69 342.074 224.553V194.69C342.074 194.553 341.963 194.442 341.826 194.442H330.361C330.224 194.442 330.112 194.553 330.112 194.69V224.553C330.112 224.69 330.224 224.801 330.361 224.801ZM341.577 224.303H330.61V194.938H341.577V224.303Z" fill="#2C0A15"/>
<path d="M295.966 224.801H307.431C307.568 224.801 307.68 224.69 307.68 224.553V181.873C307.68 181.737 307.568 181.625 307.431 181.625H295.966C295.829 181.625 295.718 181.737 295.718 181.873V224.553C295.718 224.69 295.829 224.801 295.966 224.801ZM307.183 224.303H296.216V182.122H307.183V224.303Z" fill="#2C0A15"/>
<path d="M273.037 224.801H284.502C284.639 224.801 284.751 224.69 284.751 224.553V184.866C284.751 184.729 284.639 184.618 284.502 184.618H273.037C272.9 184.618 272.788 184.729 272.788 184.866V224.553C272.788 224.69 272.9 224.801 273.037 224.801ZM284.253 224.303H273.286V185.114H284.253V224.303Z" fill="#2C0A15"/>
<path d="M277.24 177.329C276.033 177.329 275.054 176.367 275.054 175.181C275.054 173.995 276.033 173.034 277.24 173.034C278.447 173.034 279.425 173.995 279.425 175.181C279.425 176.367 278.447 177.329 277.24 177.329Z" fill="#2C0A15"/>
<path d="M290.285 185.329C289.078 185.329 288.099 184.368 288.099 183.182C288.099 181.996 289.078 181.034 290.285 181.034C291.492 181.034 292.47 181.996 292.47 183.182C292.47 184.368 291.492 185.329 290.285 185.329Z" fill="#2C0A15"/>
<path d="M267.34 188.483C266.133 188.483 265.155 187.522 265.155 186.336C265.155 185.15 266.133 184.189 267.34 184.189C268.547 184.189 269.526 185.15 269.526 186.336C269.526 187.522 268.547 188.483 267.34 188.483Z" fill="#2C0A15"/>
<path d="M305.373 168.772C304.166 168.772 303.187 167.81 303.187 166.624C303.187 165.439 304.166 164.477 305.373 164.477C306.58 164.477 307.558 165.439 307.558 166.624C307.558 167.81 306.58 168.772 305.373 168.772Z" fill="#2C0A15"/>
<path d="M319.786 177.329C318.579 177.329 317.601 176.367 317.601 175.181C317.601 173.995 318.579 173.034 319.786 173.034C320.993 173.034 321.972 173.995 321.972 175.181C321.972 176.367 320.993 177.329 319.786 177.329Z" fill="#2C0A15"/>
<path d="M325.613 191.49C324.406 191.49 323.428 190.529 323.428 189.343C323.428 188.157 324.406 187.195 325.613 187.195C326.82 187.195 327.799 188.157 327.799 189.343C327.799 190.529 326.82 191.49 325.613 191.49Z" fill="#2C0A15"/>
<path d="M340.506 178.573C339.807 179.54 338.442 179.766 337.459 179.079C336.476 178.391 336.245 177.051 336.944 176.084C337.643 175.117 339.008 174.891 339.991 175.578C340.974 176.265 341.205 177.606 340.506 178.573Z" fill="#2C0A15"/>
<path d="M352.674 182.28C351.975 183.246 350.61 183.472 349.627 182.785C348.644 182.098 348.413 180.758 349.113 179.791C349.812 178.824 351.176 178.598 352.159 179.285C353.143 179.972 353.373 181.313 352.674 182.28Z" fill="#2C0A15"/>
<path d="M325.513 189.796L319.574 175.365L305.423 166.964L290.333 183.523L277.29 175.524L267.539 186.512L267.141 186.16L277.189 174.839L290.237 182.841L305.323 166.286L319.998 174.999L325.715 188.891L338.657 177.031L350.971 180.781L350.816 181.289L338.793 177.626L325.513 189.796Z" fill="#2C0A15"/>
<path d="M240.703 130.774H321.041V134.661H240.703V130.774Z" fill="#FFEEEE"/>
<path d="M240.703 134.91H321.04C321.177 134.91 321.289 134.798 321.289 134.661V130.774C321.289 130.637 321.177 130.526 321.04 130.526H240.703C240.566 130.526 240.454 130.637 240.454 130.774V134.661C240.454 134.798 240.566 134.91 240.703 134.91ZM320.792 134.412H240.952V131.022H320.792V134.412Z" fill="#2C0A15"/>
<path d="M267.34 149.543H353.079C353.216 149.543 353.327 149.432 353.327 149.295C353.327 149.158 353.216 149.047 353.079 149.047H267.34C267.203 149.047 267.092 149.158 267.092 149.295C267.092 149.432 267.203 149.543 267.34 149.543Z" fill="#2C0A15"/>
<path d="M304.068 157.569H353.08C353.217 157.569 353.328 157.458 353.328 157.321C353.328 157.184 353.217 157.073 353.08 157.073H304.068C303.931 157.073 303.82 157.184 303.82 157.321C303.82 157.458 303.931 157.569 304.068 157.569Z" fill="#2C0A15"/>
<path d="M187.27 169.555C187.247 169.707 187.255 169.551 187.268 169.4L187.283 169.469L187.27 169.555Z" fill="#FFEEEE"/>
<path d="M185.261 109.67C185.815 108.974 186.505 108.394 187.172 107.834C187.444 107.605 187.725 107.369 187.992 107.129C188.95 106.267 189.535 105.489 189.834 104.678L190.002 104.225L189.906 104.192C191.623 104.581 193.339 104.392 195.055 104.392C194.696 107.622 195.295 111.809 191.941 113.484C190.263 114.442 188.586 115.159 187.149 116.356C186.454 116.935 186.205 117.846 185.432 118.231L185.479 118.169L185.083 117.884C185.067 117.872 185.061 117.865 185.058 117.864C183.257 115.601 183.344 112.079 185.26 109.67H185.261Z" fill="#2C0A15"/>
<path d="M220.213 136.097C220.546 135.045 221.052 134.063 221.291 132.986C222.489 128.32 221.65 123.653 218.896 119.825C216.26 116.116 211.588 115.158 207.515 113.364C205.359 112.406 204.626 109.432 205.464 107.038C206.303 104.526 206.108 101.579 206.347 98.8272C206.347 98.588 206.729 98.2921 206.729 98.2921C208.646 97.2149 210.869 97.449 211.587 95.5348C212.186 94.2185 212.426 92.1847 211.228 90.9879C210.15 90.0303 208.473 89.9107 206.915 89.552C206.317 89.3128 205.956 88.7149 205.597 88.2356C203.082 85.0051 202.945 80.1977 198.753 78.7618C196.597 78.0443 193.688 78.1133 191.771 78.9513C188.656 80.3872 188.518 80.3031 186.55 86.441C186.504 86.5829 186.457 86.9244 186.242 87.0976C186.245 87.0905 186.247 87.0835 186.25 87.0753L186.339 86.7936L186.125 86.5889C184.047 84.5967 181.693 81.5252 182.281 78.2055C182.625 76.2639 184.096 74.4551 186.214 73.3677C188.199 72.3493 190.44 72.0321 192.385 71.8153C198.389 71.1454 204.681 70.9985 210.02 74.4297L210.038 74.4419C214.992 77.635 218.464 82.9236 219.325 88.5883C219.547 90.0546 219.614 91.5746 219.678 93.046C219.801 95.8773 219.916 98.5475 221.026 101.028C222.361 104.013 224.958 106.2 227.469 108.316C228.16 108.899 228.874 109.501 229.552 110.111C232.458 112.727 237.867 117.599 238.149 123.552C238.497 130.866 234.708 137.226 231.238 140.527C228.355 143.269 224.477 146.997 223.837 146.935C222.865 146.841 219.209 145.989 217.98 145.854C218.002 145.505 218.188 143.768 218.312 143.439C219.391 140.567 219.217 139.24 220.214 136.097H220.213Z" fill="#2C0A15"/>
<path d="M126.362 95.6807C124.299 92.0691 123.053 89.8002 123.445 88.7109C123.538 88.4545 123.721 88.2741 123.99 88.1718C123.997 88.1687 124.005 88.1667 124.014 88.1657C124.34 88.114 124.591 88.1029 125.077 88.416C125.633 88.7737 126.381 89.4861 127.43 90.6596L128.216 90.1377C126.415 86.3477 125.729 83.8944 126.178 82.8446C126.298 82.5619 126.499 82.3724 126.774 82.2801C127.073 82.1758 127.418 82.196 127.75 82.3349L128.38 82.5973L128.41 81.9163C128.432 81.4056 128.604 81.0682 128.92 80.9152C129.415 80.674 129.898 80.6476 130.398 80.8341C130.554 80.8918 130.711 80.9719 130.866 81.0712C131.701 81.6083 132.525 82.7118 133.455 84.544L134.349 84.2369C134.085 82.8922 134.096 81.9934 134.381 81.4907C134.514 81.2556 134.708 81.1046 134.957 81.0398L134.974 81.0357L134.991 81.0307C135.209 80.9577 135.44 80.9841 135.677 81.1087C135.722 81.132 135.769 81.1563 135.823 81.1918C136.374 81.5455 137.569 82.9571 139.388 88.4352C139.601 89.0757 139.818 89.7597 140.033 90.469L140.964 90.3849C141.161 88.6693 141.522 87.3337 142.036 86.4146C142.303 85.9373 142.822 85.6982 143.358 85.8046C143.519 85.836 143.668 85.8958 143.799 85.9809C144.107 86.1785 144.301 86.4947 144.345 86.8716C144.575 88.8041 145.032 92.2221 145.523 93.3997C145.524 93.4037 145.526 93.4078 145.527 93.4128C147.018 98.659 146.227 101.314 145.82 102.213L145.706 102.462L145.864 102.685C146.673 103.826 149.434 107.715 150.99 109.839L151.011 109.869L151.037 109.895C152.376 111.234 155.637 113.841 160.772 117.141C164.928 119.813 171.579 123.741 179.673 127.291L179.717 127.31L179.763 127.321C179.983 127.369 180.252 127.408 180.562 127.435L180.949 127.47L181.061 127.098C182.082 123.707 183.468 120.835 185.183 118.563L185.431 118.236C186.204 117.851 186.453 116.94 187.148 116.361C188.585 115.164 190.262 114.447 191.94 113.489C195.294 111.814 194.695 107.627 195.054 104.397C193.338 104.397 191.622 104.586 189.905 104.197L189.546 104.069C188.975 103.867 188.449 103.612 187.983 103.313C186.972 102.664 186.182 101.771 185.634 100.66C184.15 97.6527 184.354 93.0926 186.242 87.1057C186.456 86.9324 186.514 86.594 186.549 86.4491C187.826 81.0043 189.501 80.0923 192.616 78.6564C194.533 77.8194 197.036 78.1821 199.192 78.8996C203.384 80.3355 203.08 85.0132 205.596 88.2437C205.955 88.722 206.315 89.3209 206.914 89.5601C208.472 89.9188 210.149 90.0384 211.227 90.996C212.425 92.1927 212.186 94.2266 211.586 95.5429C210.868 97.4571 208.394 97.2636 206.478 98.3408C206.478 98.3408 206.076 99.0126 206.076 99.2518C205.837 102.004 206.181 104.922 205.343 107.435C204.504 109.827 205.358 112.412 207.514 113.37C211.586 115.164 216.259 116.122 218.895 119.831C221.65 123.659 222.488 128.326 221.29 132.992C221.051 134.07 220.45 135.026 220.212 136.103C219.559 139.059 218.789 140.634 218.175 144.837C218.125 145.186 218 145.511 217.978 145.86C217.905 145.852 217.84 145.846 217.786 145.844C217.86 145.506 217.937 145.164 218.017 144.813C218.082 144.28 218.305 143.753 218.266 143.746L218.171 144.146C218.118 144.371 218.067 144.593 218.016 144.813C217.684 145.321 217.358 145.822 217.784 145.844C216.284 152.646 215.988 156.994 216.877 159.104L216.962 159.307L217.009 159.322C215.19 161.05 212.823 162.258 210.627 163.72C208.624 165.112 206.621 165.982 204.356 166.939C204.182 166.939 204.008 167.199 203.834 167.286C198.609 169.983 193.145 170.136 187.397 169.614C187.373 169.612 187.305 169.478 187.28 169.476C187.304 169.036 187.28 169.218 187.265 169.407L185.143 159.552L184.516 160.321C183.979 160.981 183.082 161.983 181.862 163.015C179.806 164.757 176.416 166.907 171.952 167.26C166.584 167.683 162.623 167.518 160.245 167.305C158.723 167.169 156.771 166.898 156.082 166.625L156.034 166.606L155.981 166.598C155.314 166.494 141.689 164.358 134.767 163.173C134.827 162.171 134.794 161.174 134.689 160.241C134.195 155.658 132.556 151.532 129.91 147.955C130.623 148.044 131.405 148.165 132.256 148.319C133.888 148.615 135.443 148.975 136.461 149.225L137.439 149.466L137.005 148.558C134.989 144.339 134.822 141.374 136.523 139.983L136.573 139.942L136.597 139.917C136.597 139.917 136.606 139.907 136.611 139.903C137.02 139.573 137.437 139.463 137.852 139.573C137.987 139.61 138.123 139.671 138.256 139.756C138.813 140.114 139.183 140.792 139.301 141.1C140.097 143.177 140.998 145.284 142.484 146.24C142.513 146.258 142.541 146.275 142.57 146.293C142.574 146.296 142.578 146.298 142.582 146.301C146.759 149.558 147.755 152.139 147.989 153.097L148.078 153.462L148.454 153.46C149.813 153.454 153.304 153.429 156.363 153.327H156.385L156.405 153.324C157.442 153.199 158.312 153.115 159.08 153.043C161.276 152.833 163.01 152.667 166.247 151.785C171.584 150.331 174.535 146.891 175.819 144.971L176.177 144.438L175.562 144.252C174.358 143.886 171.019 142.701 166.002 139.611C165.636 139.385 165.264 139.15 164.896 138.914C159.476 135.43 150.974 128.894 141.252 117.543C141.23 117.518 141.22 117.485 141.223 117.453C141.226 117.429 141.228 117.416 141.23 117.402L141.252 117.209L141.132 117.056C140.159 115.812 131.476 104.644 126.357 95.6878L126.362 95.6807Z" fill="#FFEEEE"/>
<path d="M217.787 145.838C217.361 145.816 217.687 145.315 218.019 144.807C217.939 145.157 217.862 145.499 217.788 145.838H217.787Z" fill="#FFEEEE"/>
<path d="M204.359 166.932C204.185 166.932 204.011 167.192 203.837 167.279C198.625 169.969 193.522 170.168 187.79 169.66C187.837 168.773 187.346 169.778 187.405 169.469L215.928 160.244C214.305 161.509 212.411 162.527 210.63 163.713C208.627 165.104 206.624 165.975 204.359 166.932Z" fill="#A5328E"/>
<path d="M206.855 165.839C207.861 165.246 208.832 164.586 209.764 163.849C211.186 162.724 213.754 161.595 215.695 160.424C214.125 161.606 212.326 162.584 210.63 163.714C209.392 164.573 208.154 165.234 206.855 165.839Z" fill="#A5328E"/>
<path d="M221.548 125.951C221.14 123.816 220.277 121.781 218.972 119.935C220.443 121.806 221.217 123.884 221.548 125.951Z" fill="#FFEEEE"/>
<path d="M214.719 116.357C213.401 115.665 211.976 115.117 210.545 114.574C212.141 115.076 213.523 115.678 214.719 116.357Z" fill="#FFEEEE"/>
<path d="M221.177 133.414C220.499 135.028 220.238 136.35 220.004 137.213C220.071 136.846 220.14 136.474 220.213 136.097C220.42 135.165 220.896 134.322 221.177 133.414Z" fill="#FFEEEE"/>
<path d="M137.717 139.662C137.717 139.662 137.714 139.659 137.712 139.657C137.718 139.658 137.719 139.66 137.717 139.662Z" fill="#FFEEEE"/>
<path d="M154.832 153.394C171.721 154.205 176.347 144.353 176.347 144.353L182.96 142.743C182.96 142.743 187.434 156.104 187.515 156.873C185.667 160.856 179.749 164.434 177.52 165.664C169.215 169.195 157.698 166.866 156.052 166.482C151.961 161.51 154.61 153.404 154.831 153.394H154.832Z" fill="#A5328E"/>
<path d="M189.105 115.073C188.245 119.479 191.878 122.118 192.279 122.089C199.2 123.114 208.918 114.878 209.674 114.315C209.971 114.398 210.261 114.484 210.544 114.574C211.975 115.117 213.4 115.666 214.717 116.357C216.544 117.395 217.932 118.613 218.971 119.934C220.276 121.78 221.139 123.815 221.547 125.95C221.974 128.614 221.667 131.259 221.175 133.414C220.895 134.322 220.42 135.165 220.212 136.097C220.139 136.474 220.07 136.846 220.003 137.213C219.732 137.9 219.539 138.299 219.535 138.313C214.909 151.383 216.887 159.399 216.887 159.399C198.827 172.9 187.404 169.469 187.404 169.469C187.404 169.469 180.843 139.849 181.133 139.652C178.027 121.665 189.104 115.072 189.104 115.072L189.105 115.073Z" fill="#A5328E"/>
<path d="M148.669 153.837H148.67C149.999 153.83 153.412 153.804 156.401 153.704C156.547 153.699 156.662 153.577 156.657 153.431C156.652 153.285 156.534 153.171 156.383 153.175C153.4 153.275 149.993 153.301 148.666 153.308C148.519 153.308 148.402 153.428 148.402 153.574C148.402 153.719 148.521 153.837 148.667 153.837H148.669Z" fill="#2C0A15"/>
<path d="M156.053 166.746C156.181 166.746 156.294 166.653 156.314 166.522C156.337 166.378 156.238 166.242 156.093 166.22C155.905 166.191 137.154 163.254 132.107 162.305C131.963 162.278 131.825 162.372 131.797 162.515C131.77 162.659 131.865 162.797 132.009 162.824C137.063 163.775 155.822 166.713 156.011 166.743C156.025 166.745 156.038 166.746 156.053 166.746Z" fill="#2C0A15"/>
<path d="M120.803 122.39L116.514 107.566L123.894 105.76L129.637 125.401C127.763 125.914 123.486 125.293 120.802 122.39H120.803Z" fill="#FFEEEE"/>
<path d="M72.2227 79.686C68.3469 60.3492 80.9007 41.5353 100.261 37.6643C119.622 33.7933 138.459 46.3315 142.335 65.6683C146.211 85.0051 133.657 103.819 114.297 107.69C94.9357 111.561 76.0985 99.0228 72.2227 79.686ZM113.06 101.52C129.008 98.3307 139.349 82.8335 136.157 66.9036C132.964 50.9747 117.448 40.6466 101.498 43.8346C85.5496 47.0236 75.2087 62.5208 78.4007 78.4507C81.5936 94.3796 97.11 104.708 113.06 101.52Z" fill="#2C0A15"/>
<path d="M130.807 123.823C130.812 123.724 130.798 123.623 130.765 123.524L124.226 104.511C124.148 104.286 123.976 104.108 123.754 104.023C123.532 103.938 123.284 103.954 123.075 104.069C121.855 104.742 120.577 105.335 119.276 105.831C118.166 106.255 117.019 106.617 115.864 106.906C115.644 106.961 115.457 107.106 115.35 107.307C115.243 107.508 115.226 107.744 115.303 107.957L120.231 121.636C120.274 121.753 120.344 121.861 120.434 121.947C123.462 124.816 128.089 125.299 130.267 124.545C130.586 124.435 130.792 124.142 130.807 123.824V123.823ZM123.01 105.925L128.952 123.198C127.183 123.425 124.009 123.014 121.68 120.907L117.114 108.237C118.039 107.978 118.958 107.675 119.852 107.333C120.925 106.924 121.984 106.452 123.01 105.925Z" fill="#2C0A15"/>
<path d="M143.781 74.7753C143.92 71.8517 143.708 68.8694 143.107 65.873C141.191 56.31 135.66 48.0653 127.534 42.6571C119.408 37.2488 109.661 35.3245 100.086 37.2387C80.3203 41.1908 67.4591 60.4647 71.4161 80.2058C73.3327 89.7688 78.8633 98.0135 86.9893 103.422C95.1153 108.83 104.863 110.754 114.438 108.84C131.203 105.488 143.002 91.1085 143.782 74.7743L143.781 74.7753ZM72.3496 71.3805C73.0943 55.7638 84.3737 42.0187 100.401 38.8144C109.554 36.9843 118.873 38.8246 126.641 43.9947C134.409 49.1648 139.696 57.0467 141.529 66.1891C145.311 85.0618 133.016 103.488 114.121 107.265C104.968 109.095 95.649 107.255 87.8812 102.085C80.1133 96.915 74.8262 89.0331 72.9938 79.8907C72.4196 77.0269 72.2166 74.1744 72.3496 71.3805ZM137.492 74.5321C137.61 72.0737 137.425 69.5839 136.928 67.1082C135.343 59.194 130.765 52.3701 124.04 47.8941C117.315 43.4181 109.247 41.8251 101.323 43.41C93.3986 44.9939 86.5662 49.5661 82.0847 56.2826C77.6032 62.9991 76.0082 71.0573 77.5951 78.9716C79.1809 86.8858 83.7588 93.7097 90.4836 98.1857C97.2085 102.662 105.277 104.255 113.201 102.67C121.125 101.086 127.957 96.5137 132.439 89.7972C135.518 85.1824 137.235 79.9322 137.492 74.5321ZM78.6391 71.6258C78.8826 66.5124 80.508 61.5429 83.424 57.1723C87.6671 50.8125 94.1363 46.4845 101.639 44.9847C117.127 41.8879 132.251 51.9546 135.351 67.4234C136.852 74.9171 135.343 82.5457 131.099 88.9054C126.856 95.2652 120.387 99.5933 112.884 101.093C97.3962 104.19 82.2724 94.1242 79.1728 78.6544C78.703 76.3105 78.5275 73.9524 78.6391 71.6258Z" fill="#2C0A15"/>
<path d="M156.393 201.746L127.64 114.103C126.251 114.226 124.287 114.538 122.068 115.36C120.577 115.912 119.357 116.553 118.421 117.12C128.005 146.334 137.59 175.548 147.174 204.763C148.755 204.201 150.389 203.642 152.078 203.093C153.546 202.616 154.986 202.167 156.394 201.745L156.393 201.746Z" fill="#2C0A15"/>
<path d="M167.498 312.814L165.643 325.104L156.823 328.099C156.823 328.099 163.072 334.726 185.181 326.961L186.199 314.779L167.498 312.815V312.814Z" fill="#FFEEEE"/>
<path d="M216.752 228.547C215.44 252.154 208.634 272.149 200.679 315.429C193.561 315.817 165.757 313.098 165.999 311.979C165.999 311.979 171.968 257.178 173.874 238.776C177.604 202.784 187.221 168.953 187.221 168.953C187.817 169.386 188.426 169.74 189.04 170.026C198.274 174.34 210.818 164.476 213.335 162.432C214.473 184.472 215.611 206.51 216.75 228.549L216.752 228.547Z" fill="#FFEEEE"/>
<path d="M199.037 315.715C199.667 315.715 200.223 315.703 200.694 315.677C200.808 315.671 200.904 315.587 200.925 315.475C202.332 307.949 203.679 300.886 204.982 294.055C210.692 264.121 215.203 240.478 216.278 221.149C216.286 221.012 216.18 220.895 216.044 220.887C215.907 220.879 215.789 220.985 215.782 221.122C214.709 240.418 210.201 264.046 204.494 293.961C203.202 300.735 201.866 307.736 200.472 315.19C196.777 315.354 188.201 314.757 181.232 314.082C172.148 313.203 166.891 312.342 166.255 311.924C166.379 310.386 168.441 285.256 171.982 255.732C175.338 227.754 180.748 190.001 187.46 169.026C187.502 168.895 187.43 168.756 187.299 168.714C187.168 168.672 187.028 168.744 186.986 168.875C184.016 178.156 181.052 191.455 178.175 208.402C175.875 221.955 173.625 237.859 171.488 255.674C167.878 285.765 165.806 311.296 165.753 311.945C165.739 312.041 165.77 312.136 165.839 312.217C165.963 312.363 166.256 312.704 170.848 313.372C173.511 313.759 177.15 314.184 181.095 314.567C187.314 315.171 194.81 315.712 199.039 315.712L199.037 315.715Z" fill="#2C0A15"/>
<path d="M156.823 328.098C156.823 328.098 158.316 333.688 185.144 327.342L183.931 339.633C183.931 339.633 143.329 340.99 143.616 339.841C144.329 336.983 147.026 332.005 156.823 328.097V328.098Z" fill="#C69CF6"/>
<path d="M157.142 340.34C159.157 340.34 161.472 340.329 164.131 340.304C173.975 340.211 183.827 339.965 183.925 339.962C184.051 339.959 184.154 339.863 184.166 339.738L186.59 315.234C186.604 315.097 186.504 314.975 186.367 314.962C186.23 314.95 186.108 315.048 186.095 315.185L183.693 339.471C182.195 339.507 173.314 339.717 164.375 339.804C147.703 339.966 144.43 339.57 143.864 339.351C145.163 334.538 150.963 331.002 155.622 328.877C160.751 326.539 165.651 325.356 165.7 325.345C165.798 325.322 165.873 325.24 165.887 325.14L167.743 312.85C167.763 312.714 167.67 312.588 167.534 312.567C167.399 312.547 167.271 312.64 167.251 312.776L165.421 324.902C164.523 325.129 160.065 326.305 155.423 328.422C152.378 329.811 149.847 331.326 147.901 332.927C145.447 334.944 143.915 337.109 143.348 339.358C143.323 339.455 143.347 339.556 143.412 339.637C143.589 339.859 143.976 340.34 157.142 340.34Z" fill="#2C0A15"/>
<path d="M165.709 330.718C169.874 330.718 176.123 329.933 185.253 327.197C185.385 327.158 185.459 327.019 185.42 326.888C185.38 326.756 185.242 326.682 185.11 326.722C172.865 330.391 165.872 330.525 162.163 329.992C158.163 329.416 157.034 327.965 157.023 327.951C156.94 327.842 156.785 327.818 156.676 327.899C156.566 327.981 156.542 328.135 156.622 328.245C156.67 328.31 157.831 329.847 161.981 330.468C162.977 330.617 164.208 330.72 165.709 330.72V330.718Z" fill="#2C0A15"/>
<path d="M202.397 305.189C202.525 305.189 202.633 305.092 202.645 304.962C202.657 304.825 202.555 304.705 202.418 304.693L167.332 301.629C167.194 301.616 167.074 301.718 167.062 301.855C167.05 301.992 167.151 302.113 167.288 302.125L202.375 305.188C202.382 305.188 202.389 305.188 202.397 305.188V305.189Z" fill="#2C0A15"/>
<path d="M236.448 314.886L236.155 326.656C236.155 326.656 219.161 335.437 207.975 329.198L216.511 325.481L216.682 315.43L236.448 314.886Z" fill="#FFEEEE"/>
<path d="M207.974 329.198C207.974 329.198 216.982 335.371 236.154 326.656L235.815 340.303C235.815 340.303 195.465 343.047 195.667 341.88C196.169 338.977 198.49 333.813 207.974 329.198Z" fill="#C69CF6"/>
<path d="M200.172 342.104C203.147 342.104 208.041 341.979 216.136 341.608C225.937 341.159 235.733 340.556 235.831 340.55C235.959 340.542 236.061 340.438 236.064 340.308L236.696 314.891C236.699 314.754 236.59 314.64 236.453 314.637C236.451 314.637 236.449 314.637 236.447 314.637C236.312 314.637 236.202 314.744 236.199 314.879L235.573 340.068C234.057 340.16 225.231 340.691 216.342 341.1C199.673 341.869 196.434 341.581 195.879 341.38C196.816 336.481 202.343 332.525 206.836 330.062C211.778 327.352 216.578 325.813 216.626 325.798C216.729 325.765 216.797 325.671 216.8 325.565L216.931 315.432C216.933 315.295 216.823 315.182 216.686 315.181H216.683C216.547 315.181 216.436 315.29 216.434 315.426L216.304 325.381C215.4 325.682 211.06 327.181 206.604 329.623C203.669 331.231 201.258 332.929 199.434 334.668C197.135 336.861 195.768 339.131 195.368 341.418C195.351 341.515 195.379 341.612 195.449 341.689C195.582 341.837 195.82 342.104 200.174 342.104H200.172Z" fill="#2C0A15"/>
<path d="M218.226 331.65C220.988 331.65 223.914 331.256 226.932 330.476C232.344 329.08 236.237 326.895 236.276 326.873C236.396 326.805 236.437 326.654 236.369 326.535C236.301 326.415 236.149 326.373 236.03 326.441C235.992 326.463 232.146 328.62 226.794 329.999C221.871 331.268 214.629 332.12 208.079 328.975C207.955 328.915 207.806 328.968 207.747 329.091C207.687 329.215 207.74 329.364 207.864 329.423C210.82 330.842 214.156 331.591 217.78 331.647C217.928 331.649 218.076 331.65 218.225 331.65H218.226Z" fill="#2C0A15"/>
<path d="M197.057 188.085C199.21 190.59 200.174 194.13 200.697 197C203.005 209.684 210.378 315.467 210.378 315.467L247.981 313.837L242.969 243.117C242.969 243.117 237.654 170.052 216.888 159.401C214.004 160.867 211.326 162.993 208.442 164.458C204.716 166.352 200.784 167.586 197.057 169.48V188.085Z" fill="#FFEEEE"/>
<path d="M210.377 315.715C210.377 315.715 210.382 315.715 210.384 315.715L248.03 314.678C248.098 314.676 248.162 314.647 248.208 314.597C248.253 314.547 248.277 314.481 248.272 314.413L243.218 243.099C243.213 242.939 242.581 225.973 239.06 207.256C236.991 196.257 234.343 186.813 231.191 179.185C227.24 169.624 222.474 162.898 217.029 159.196C216.915 159.119 216.761 159.148 216.683 159.262C216.606 159.375 216.635 159.53 216.749 159.607C222.112 163.254 226.817 169.905 230.73 179.372C233.869 186.968 236.507 196.379 238.57 207.342C242.084 226.023 242.716 242.957 242.722 243.126L247.758 314.189L210.61 315.211C210.217 309.588 203.174 209.217 200.942 196.955C200.207 192.915 198.998 189.96 197.247 187.923C197.158 187.819 197 187.807 196.896 187.897C196.791 187.986 196.779 188.143 196.869 188.247C198.562 190.216 199.734 193.094 200.452 197.045C202.732 209.571 210.056 314.427 210.129 315.485C210.139 315.616 210.247 315.716 210.378 315.716L210.377 315.715Z" fill="#2C0A15"/>
<path d="M209.613 303.97C209.613 303.97 209.616 303.97 209.618 303.97L247.218 303.251C247.355 303.248 247.465 303.135 247.462 302.997C247.459 302.862 247.348 302.753 247.213 302.753C247.211 302.753 247.21 302.753 247.208 302.753L209.608 303.473C209.471 303.476 209.361 303.588 209.364 303.726C209.367 303.862 209.478 303.97 209.613 303.97Z" fill="#2C0A15"/>
<path d="M144.707 158.321C139.917 159.539 137.654 153.537 137.392 149.536C137.392 149.435 137.362 149.317 137.306 149.201C137.399 149.185 137.441 149.156 137.418 149.115C133.127 140.505 137.671 139.74 137.716 139.662C138.463 140.444 142.121 146.116 142.107 146.104C146.951 149.969 148.411 153.569 148.411 153.569H148.611C148.371 154.462 148.041 155.314 147.668 156.059C147.058 157.277 145.84 158.06 144.707 158.321Z" fill="#FFEEEE"/>
<path d="M147.954 153.84C147.954 153.84 148.217 153.84 148.671 153.837C148.817 153.837 148.935 153.717 148.934 153.572C148.934 153.426 148.815 153.308 148.669 153.308H148.668C148.471 153.309 148.309 153.31 148.191 153.31C148.053 152.478 147.256 149.75 142.675 146.179C142.667 146.173 142.658 146.167 142.65 146.161C141.153 145.257 140.244 143.136 139.441 141.04C139.298 140.668 138.742 139.653 137.893 139.425C137.431 139.301 136.97 139.422 136.523 139.783C136.507 139.795 136.494 139.808 136.482 139.823C136.471 139.834 136.455 139.847 136.435 139.862C134.513 141.434 134.869 144.863 137.466 149.78C137.534 149.909 137.694 149.958 137.824 149.89C137.954 149.822 138.003 149.662 137.935 149.532C135.505 144.933 135.092 141.643 136.771 140.271C136.815 140.235 136.849 140.207 136.878 140.177C137.182 139.938 137.47 139.859 137.756 139.935C138.341 140.092 138.811 140.874 138.947 141.228C139.781 143.403 140.73 145.608 142.363 146.603C147.534 150.639 147.689 153.55 147.69 153.579C147.695 153.721 147.812 153.836 147.955 153.836L147.954 153.84Z" fill="#2C0A15"/>
<path d="M143.021 158.814C143.125 158.814 143.222 158.753 143.266 158.652C143.323 158.518 143.26 158.363 143.125 158.306C140.701 157.279 139.096 155.524 138.353 153.087C137.91 151.63 137.924 150.35 137.949 149.88C137.993 149.843 138.016 149.793 138.029 149.743C138.078 149.557 137.962 149.472 137.835 149.425V149.42L137.767 149.402C137.763 149.402 137.76 149.4 137.757 149.4C137.735 149.393 137.714 149.387 137.693 149.382C137.552 149.346 137.407 149.431 137.371 149.572C137.349 149.657 137.371 149.744 137.423 149.807C137.392 150.282 137.363 151.637 137.841 153.22C138.381 155.01 139.701 157.43 142.919 158.792C142.952 158.806 142.988 158.814 143.022 158.814H143.021Z" fill="#2C0A15"/>
<path d="M165.523 167.662C167.369 167.662 169.523 167.591 171.967 167.398C176.47 167.042 179.887 164.874 181.96 163.119C184.204 161.219 185.37 159.428 185.419 159.353C185.498 159.23 185.462 159.066 185.339 158.987C185.217 158.908 185.052 158.943 184.973 159.066C184.962 159.084 183.792 160.877 181.604 162.727C179.592 164.428 176.28 166.526 171.925 166.871C162.077 167.649 156.688 166.48 156.214 166.269C154.461 164.618 154.079 162.1 154.069 160.274C154.052 157.323 154.994 154.572 155.71 153.793C157.063 153.615 158.156 153.511 159.123 153.418C161.337 153.207 163.085 153.039 166.353 152.149C172.678 150.425 175.748 145.897 176.539 144.552C176.555 144.524 176.566 144.505 176.572 144.495C176.65 144.371 176.613 144.208 176.489 144.13C176.365 144.052 176.202 144.09 176.124 144.213C176.116 144.226 176.101 144.251 176.081 144.284C175.316 145.587 172.344 149.968 166.213 151.639C162.989 152.518 161.26 152.683 159.072 152.893C158.08 152.988 156.955 153.095 155.549 153.282C155.494 153.289 155.442 153.314 155.401 153.353C154.487 154.224 153.521 157.216 153.539 160.278C153.55 162.215 153.965 164.899 155.872 166.676C156.082 166.876 157.812 167.227 160.236 167.444C161.536 167.561 163.308 167.663 165.523 167.663V167.662ZM156.232 166.287C156.232 166.287 156.234 166.289 156.235 166.29C156.235 166.29 156.233 166.288 156.232 166.287Z" fill="#2C0A15"/>
<path d="M192.776 104.722C194.395 104.722 196.612 104.398 198.887 103.068C199.012 102.994 199.055 102.832 198.981 102.706C198.907 102.58 198.745 102.538 198.619 102.612C194.467 105.039 190.546 103.968 190.381 103.921C188.315 103.38 186.836 102.225 185.979 100.486C183.524 95.5105 186.529 86.7795 188.538 82.0177C188.594 81.8829 188.531 81.7279 188.397 81.6712C188.262 81.6144 188.106 81.6772 188.05 81.812C187.059 84.1589 185.731 87.6996 185.027 91.2342C184.225 95.2622 184.386 98.4533 185.504 100.72C186.433 102.603 188.027 103.852 190.242 104.432C190.322 104.455 191.302 104.723 192.776 104.723V104.722Z" fill="#2C0A15"/>
<path d="M208.072 97.8595C208.743 97.8595 209.348 97.7095 209.882 97.4095C211.572 96.46 211.954 94.3148 212.031 93.6804C212.11 93.0237 212.037 92.36 211.82 91.7611C211.496 90.8694 210.951 90.2826 210.201 90.0171C208.549 89.4324 206.509 90.6444 206.424 90.6961C206.299 90.7711 206.259 90.9342 206.334 91.0589C206.409 91.1835 206.572 91.224 206.697 91.149C206.716 91.1379 208.609 90.0151 210.026 90.5167C210.619 90.7265 211.055 91.2058 211.322 91.9415C211.51 92.4634 211.574 93.043 211.504 93.6176C211.435 94.1901 211.095 96.1205 209.622 96.9485C208.571 97.5392 207.168 97.444 205.452 96.6678C205.319 96.608 205.162 96.6667 205.101 96.7995C205.04 96.9322 205.1 97.0893 205.233 97.1501C206.279 97.6233 207.228 97.8605 208.072 97.8605V97.8595Z" fill="#2C0A15"/>
<path d="M205.881 94.9785C205.964 94.9785 206.043 94.939 206.092 94.8741C206.163 94.8184 206.5 94.5965 208.088 93.7503C209.102 93.2102 210.123 92.6833 210.133 92.6772C210.263 92.6103 210.314 92.4502 210.247 92.3205C210.18 92.1908 210.02 92.1401 209.89 92.207C209.88 92.2121 208.855 92.741 207.838 93.2832C205.683 94.4313 205.664 94.5032 205.626 94.6441C205.587 94.785 205.67 94.9309 205.812 94.9684C205.836 94.9744 205.859 94.9775 205.882 94.9775L205.881 94.9785Z" fill="#2C0A15"/>
<path d="M208.489 95.1599C208.52 95.1599 208.552 95.1538 208.583 95.1427C208.72 95.091 208.788 94.938 208.736 94.8012L208.21 93.423C208.158 93.2862 208.005 93.2183 207.868 93.27C207.731 93.3217 207.663 93.4747 207.715 93.6115L208.241 94.9896C208.282 95.095 208.382 95.1599 208.489 95.1599Z" fill="#2C0A15"/>
<path d="M200.661 88.7676C200.702 88.7676 200.742 88.7585 200.781 88.7392C200.912 88.6734 200.963 88.5143 200.897 88.3835C199.433 85.4884 196.327 86.7085 196.295 86.7206C196.159 86.7754 196.094 86.9304 196.149 87.0652C196.204 87.201 196.359 87.2658 196.494 87.2111C196.609 87.1655 199.184 86.1684 200.425 88.6217C200.471 88.7139 200.565 88.7666 200.661 88.7666V88.7676Z" fill="#2C0A15"/>
<path d="M189.897 95.0484C189.96 95.0484 190.023 95.0261 190.074 94.9805C190.182 94.8832 190.191 94.716 190.094 94.6065C190.089 94.6005 189.539 93.9884 189.027 93.3794C188.844 93.1625 188.767 92.8768 188.817 92.5981C188.865 92.3255 189.03 92.0904 189.268 91.9536C191.032 90.9453 192.336 89.4152 192.756 87.8597C193.02 86.7146 192.869 85.7894 192.311 85.0993C191.297 83.8468 189.325 83.861 189.242 83.862C189.096 83.864 188.979 83.9846 188.981 84.1305C188.983 84.2754 189.102 84.3909 189.246 84.3909C189.247 84.3909 189.248 84.3909 189.25 84.3909C189.265 84.3909 191.052 84.3808 191.901 85.4337C192.35 85.991 192.466 86.7642 192.244 87.732C191.862 89.1446 190.651 90.5552 189.006 91.4945C188.631 91.7094 188.372 92.0772 188.296 92.5059C188.219 92.9406 188.338 93.3834 188.622 93.7209C189.14 94.336 189.695 94.9541 189.7 94.9602C189.753 95.018 189.825 95.0484 189.897 95.0484Z" fill="#2C0A15"/>
<path d="M197.886 89.6604C198.288 89.7689 198.458 90.4265 198.268 91.1288C198.077 91.831 197.597 92.3114 197.195 92.2019C196.793 92.0935 196.623 91.4358 196.814 90.7336C197.004 90.0313 197.484 89.551 197.886 89.6604Z" fill="#2C0A15"/>
<path d="M189.67 87.3206C190.072 87.429 190.242 88.0867 190.051 88.7889C189.861 89.4912 189.381 89.9715 188.979 89.8621C188.577 89.7537 188.407 89.096 188.597 88.3937C188.788 87.6915 189.268 87.2112 189.67 87.3206Z" fill="#2C0A15"/>
<path d="M192.565 99.4717C192.565 99.4717 192.573 99.4717 192.577 99.4717C193.902 99.419 195.769 99.1363 197.141 98.0854C197.257 97.9962 197.279 97.83 197.19 97.7145C197.101 97.599 196.934 97.5767 196.819 97.6659C195.557 98.6326 193.803 98.8941 192.555 98.9437C192.409 98.9498 192.296 99.0724 192.301 99.2183C192.307 99.3612 192.423 99.4727 192.565 99.4727V99.4717Z" fill="#2C0A15"/>
<path d="M193.75 122.539C197.345 122.539 202.734 119.857 209.833 114.527C209.95 114.439 209.973 114.274 209.886 114.156C209.798 114.04 209.632 114.016 209.515 114.103C198.373 122.469 193.501 122.701 191.374 121.423C188.917 119.945 189.256 116.018 189.348 115.247L191.542 114.149C193.337 113.251 194.557 111.527 194.807 109.537L195.471 104.236C195.49 104.092 195.386 103.959 195.241 103.941C195.096 103.922 194.963 104.025 194.945 104.171L194.28 109.471C194.053 111.285 192.94 112.857 191.303 113.676L188.984 114.836C188.908 114.875 188.854 114.947 188.841 115.031C188.809 115.235 188.076 120.057 191.098 121.876C191.833 122.318 192.717 122.539 193.748 122.539H193.75Z" fill="#2C0A15"/>
<path d="M191.301 170.493C192.05 170.493 192.913 170.439 193.901 170.299C198.135 169.702 205.585 167.364 217.037 159.619C217.147 159.544 217.185 159.399 217.124 159.28C214.974 155.065 219.308 139.975 221.159 133.531L221.248 133.221C221.629 131.897 222.054 129.796 221.919 127.307C221.789 124.908 221.171 122.726 220.082 120.822C218.108 117.374 214.691 115.002 209.925 113.772C209.783 113.736 209.639 113.821 209.603 113.963C209.566 114.104 209.651 114.248 209.793 114.285C214.416 115.478 217.723 117.766 219.622 121.085C222.44 126.008 221.19 131.508 220.739 133.075L220.65 133.386C218.655 140.33 214.538 154.665 216.552 159.308C205.354 166.853 198.069 169.159 193.922 169.762C189.97 170.337 188.056 169.515 187.638 169.298L182.237 144.211C182.206 144.068 182.064 143.977 181.922 144.009C181.779 144.039 181.688 144.18 181.719 144.323L187.146 169.526C187.161 169.594 187.201 169.652 187.26 169.691C187.322 169.731 188.519 170.493 191.302 170.493H191.301Z" fill="#2C0A15"/>
<path d="M223.844 147.202C224.464 147.202 226.496 145.726 228.523 143.798C231.611 140.861 238.743 133.011 238.294 123.548C238.008 117.534 232.571 112.636 229.648 110.005C228.971 109.395 228.254 108.791 227.562 108.209C225.063 106.103 222.48 103.926 221.159 100.972C220.061 98.5171 219.941 95.7354 219.824 93.047C219.76 91.5716 219.694 90.0455 219.47 88.57C218.603 82.8649 215.107 77.5397 210.117 74.3233C204.737 70.8556 198.408 71.0005 192.37 71.6744C190.412 71.8933 188.155 72.2125 186.148 73.2421C183.99 74.3497 182.491 76.198 182.138 78.1842C181.518 81.6792 184.061 84.8855 186.302 86.9608C186.41 87.0601 186.577 87.054 186.677 86.9466C186.776 86.8392 186.77 86.672 186.663 86.5727C184.518 84.5875 182.083 81.5374 182.66 78.2764C182.984 76.4513 184.378 74.7459 186.39 73.7133C188.316 72.7242 190.516 72.4141 192.428 72.2003C198.368 71.5376 204.588 71.3897 209.829 74.7672C214.693 77.9025 218.101 83.0918 218.945 88.6491C219.166 90.0961 219.23 91.6081 219.294 93.0693C219.413 95.8084 219.536 98.6407 220.675 101.188C222.046 104.253 224.677 106.47 227.221 108.613C227.91 109.194 228.624 109.795 229.294 110.399C232.159 112.978 237.49 117.779 237.765 123.573C238.137 131.385 233.094 138.143 230.055 141.476C227.02 144.807 224.297 146.653 223.854 146.674C222.838 146.575 221.787 146.397 220.771 146.226C219.745 146.052 218.685 145.873 217.643 145.773C217.497 145.759 217.368 145.865 217.353 146.011C217.339 146.157 217.446 146.285 217.592 146.3C218.615 146.398 219.666 146.576 220.682 146.748C221.708 146.921 222.768 147.1 223.81 147.201C223.821 147.201 223.832 147.203 223.843 147.203L223.844 147.202Z" fill="#2C0A15"/>
<path d="M209.859 114.293C209.962 114.293 210.06 114.232 210.103 114.131C210.16 113.996 210.096 113.841 209.961 113.784C209.124 113.434 208.034 112.953 207.022 112.355C206.552 112.078 206.028 111.739 205.757 111.238C205.472 110.709 205.492 110.066 205.543 109.341C205.782 105.977 206.222 101.952 206.752 98.2861C206.874 98.2293 207.206 98.1604 207.479 98.1047C208.82 97.828 211.315 97.3133 211.704 94.8397C211.986 93.0531 211.832 91.7895 211.232 90.9768C210.547 90.0475 209.432 89.8844 208.448 89.7415C207.941 89.6675 207.461 89.5976 207.113 89.4304C205.4 88.6106 204.818 86.7349 204.201 84.7477C203.742 83.2723 203.269 81.7461 202.295 80.5869C200.799 78.8044 198.254 77.9907 194.517 78.0991C192.128 78.168 189.141 79.462 188.052 81.8029C187.99 81.9356 188.047 82.0927 188.18 82.1545C188.313 82.2163 188.471 82.1586 188.532 82.0258C189.521 79.9029 192.361 78.6909 194.532 78.6281C198.097 78.5257 200.504 79.2766 201.889 80.9274C202.794 82.0066 203.252 83.48 203.695 84.9058C204.319 86.9132 204.963 88.9896 206.885 89.9087C207.306 90.1104 207.824 90.1864 208.373 90.2664C209.297 90.4012 210.253 90.541 210.807 91.2919C211.319 91.9851 211.441 93.119 211.183 94.7586C210.85 96.8704 208.673 97.3193 207.374 97.5879C206.674 97.7328 206.287 97.8118 206.239 98.1432C205.704 101.84 205.258 105.909 205.017 109.305C204.972 109.929 204.911 110.784 205.293 111.491C205.611 112.082 206.183 112.476 206.753 112.813C207.793 113.429 208.904 113.917 209.756 114.275C209.79 114.289 209.824 114.295 209.859 114.295V114.293Z" fill="#2C0A15"/>
<path d="M181.043 127.848C181.159 127.848 181.265 127.772 181.298 127.656C182.765 122.549 184.842 119.463 186.327 117.775C187.932 115.949 189.207 115.318 189.219 115.312C189.351 115.249 189.406 115.09 189.342 114.959C189.278 114.827 189.121 114.772 188.989 114.835C188.934 114.861 187.626 115.502 185.954 117.396C184.426 119.127 182.289 122.286 180.789 127.511C180.748 127.652 180.829 127.798 180.97 127.838C180.995 127.846 181.019 127.849 181.043 127.849V127.848Z" fill="#2C0A15"/>
<path d="M151.57 110.556C151.45 110.383 145.764 102.74 145.764 102.74C145.764 102.74 147.134 98.5505 145.331 93.2152C145.293 93.0977 144.779 86.2484 143.413 85.8705C142.884 85.9191 140.785 87.7573 140.906 93.9448C140.719 93.2558 137.945 80.9162 134.771 81.1026C134.78 82.042 133.993 82.8679 135.375 87.6154C134.867 87.9225 132.099 80.2271 129.318 80.8908C128.974 81.0205 127.93 81.663 129.355 84.6585C129.311 84.5653 127.238 80.0031 126.163 83.6887C126.222 84.3504 129.251 92.9781 129.251 92.9781C129.251 92.9781 125.665 87.2557 124.034 88.2832C124.034 88.2832 121.117 89.099 131.424 103.502C131.518 103.64 142.29 118.037 142.29 118.037L151.57 110.557V110.556Z" fill="#FFEEEE"/>
<path d="M150.925 109.944C166.275 122.899 179.681 127.419 179.681 127.419C193.362 127.736 205.391 120.962 205.391 120.962C205.391 120.962 212.959 137.248 212.385 137.805C198.587 145.158 182.497 146.672 175.965 144.234C157.865 137.296 142.9 119.244 141.347 117.459C143.832 108.885 150.925 109.945 150.925 109.945V109.944Z" fill="#A5328E"/>
<path d="M186.261 145.507C186.79 145.507 187.334 145.5 187.89 145.483C191.979 145.361 195.947 144.792 199.684 143.789C204.358 142.534 208.68 140.595 212.532 138.024C212.654 137.943 212.686 137.778 212.605 137.657C212.524 137.535 212.359 137.503 212.238 137.584C203.628 143.331 194.246 144.762 187.891 144.953C180.995 145.159 176.076 143.988 176.027 143.976C175.992 143.967 172.263 143.01 166.178 139.257C160.572 135.8 151.768 129.199 141.624 117.373C141.897 115.137 143.43 113.533 144.68 112.574C146.96 110.826 149.692 110.071 150.802 110.193C152.244 111.624 155.645 114.329 160.963 117.719C165.053 120.326 171.603 124.167 179.575 127.659C179.59 127.665 179.605 127.67 179.621 127.674C181.574 128.134 186.492 127.75 191.315 126.76C194.87 126.031 201.445 124.334 205.553 121.17C205.669 121.08 205.69 120.914 205.601 120.799C205.512 120.683 205.345 120.662 205.23 120.751C198.507 125.929 183.408 128 179.765 127.166C165.547 120.934 154.089 112.754 151.113 109.756C151.073 109.717 151.022 109.69 150.967 109.681C149.615 109.464 146.636 110.406 144.356 112.155C143.004 113.192 141.338 114.95 141.083 117.43C141.076 117.502 141.098 117.574 141.145 117.629C151.379 129.578 160.271 136.241 165.929 139.726C172.076 143.513 175.746 144.451 175.9 144.49C175.946 144.501 180.163 145.506 186.26 145.506L186.261 145.507Z" fill="#2C0A15"/>
<path d="M145.559 102.717C145.642 102.717 145.724 102.678 145.776 102.604C145.849 102.5 147.544 99.9692 145.67 93.3703C145.667 93.3602 145.664 93.35 145.66 93.3409C145.301 92.4806 144.886 90.1762 144.493 86.8514C144.42 86.2454 143.987 85.7772 143.389 85.6587C142.789 85.5401 142.209 85.8076 141.91 86.3407C141.063 87.8546 140.636 90.4133 140.64 93.9459C140.64 94.0918 140.759 94.2104 140.905 94.2104C141.051 94.2104 141.17 94.0918 141.17 93.9459C141.166 90.5045 141.57 88.033 142.373 86.6001C142.596 86.1998 142.992 86.1198 143.285 86.1785C143.579 86.2363 143.912 86.4602 143.966 86.9142C144.247 89.2895 144.683 92.36 145.165 93.5294C146.964 99.877 145.358 102.278 145.342 102.301C145.258 102.421 145.287 102.586 145.407 102.67C145.453 102.702 145.506 102.717 145.558 102.717H145.559Z" fill="#2C0A15"/>
<path d="M150.925 110.208C150.98 110.208 151.035 110.192 151.081 110.157C151.199 110.071 151.225 109.905 151.138 109.788C149.339 107.334 145.81 102.35 145.775 102.3C145.691 102.18 145.525 102.152 145.406 102.237C145.286 102.321 145.257 102.486 145.343 102.606C145.378 102.656 148.909 107.644 150.711 110.101C150.763 110.172 150.843 110.209 150.925 110.209V110.208Z" fill="#2C0A15"/>
<path d="M141.321 117.354C141.379 117.354 141.435 117.336 141.484 117.298C141.599 117.207 141.619 117.041 141.529 116.926C141.435 116.807 132.082 104.914 126.697 95.4902C125.03 92.5738 123.456 89.8185 123.809 88.8406C123.86 88.6987 123.955 88.6025 124.105 88.5396C124.605 88.4626 125.298 88.4778 130.055 94.3826C130.146 94.4961 130.313 94.5144 130.427 94.4232C130.541 94.332 130.559 94.1648 130.467 94.0513C125.427 87.7938 124.762 87.9002 123.993 88.0218C123.976 88.0249 123.958 88.0289 123.942 88.036C123.63 88.1536 123.418 88.3643 123.31 88.6612C122.896 89.8104 124.153 92.1046 126.238 95.7527C131.642 105.21 141.019 117.133 141.114 117.253C141.167 117.319 141.244 117.354 141.322 117.354H141.321Z" fill="#2C0A15"/>
<path d="M130.261 94.4819C130.298 94.4819 130.337 94.4738 130.372 94.4566C130.505 94.3948 130.562 94.2367 130.5 94.105L128.665 90.1833C126.39 85.4418 126.25 83.6573 126.533 82.9956C126.611 82.8122 126.728 82.7007 126.9 82.6439C127.408 82.4636 128.172 82.8111 128.658 83.8204C130.302 87.2273 133.011 93.0045 133.039 93.0622C133.1 93.195 133.258 93.2517 133.391 93.1899C133.524 93.1281 133.58 92.97 133.518 92.8383C133.491 92.7805 130.781 87.0003 129.136 83.5914C128.485 82.2416 127.432 81.8951 126.729 82.1444C126.415 82.2477 126.183 82.4646 126.045 82.7889C125.565 83.9137 126.265 86.4065 128.186 90.4103L130.02 94.3299C130.065 94.4262 130.16 94.4829 130.261 94.4829V94.4819Z" fill="#2C0A15"/>
<path d="M136.736 92.2607C136.779 92.2607 136.824 92.2495 136.865 92.2272C136.992 92.1563 137.038 91.9941 136.966 91.8675C136.443 90.9332 135.889 89.6391 135.302 88.268C133.927 85.0547 132.369 81.4117 130.45 80.6973C129.919 80.4997 129.383 80.5281 128.857 80.7844C128.148 81.128 128.069 82.2842 128.649 83.8012C128.701 83.938 128.854 84.0059 128.991 83.9542C129.128 83.9025 129.196 83.7495 129.144 83.6127C128.617 82.2345 128.746 81.4269 129.089 81.2607C129.484 81.0682 129.869 81.0469 130.265 81.1938C131.97 81.8292 133.482 85.3607 134.814 88.4768C135.407 89.861 135.966 91.1683 136.503 92.1269C136.552 92.213 136.642 92.2627 136.735 92.2627L136.736 92.2607Z" fill="#2C0A15"/>
<path d="M141.124 95.0433C141.145 95.0433 141.167 95.0403 141.189 95.0352C141.331 94.9998 141.417 94.8559 141.382 94.714C141.374 94.6836 140.594 91.5918 139.529 88.3866C138.081 84.0282 136.809 81.5353 135.748 80.978C135.469 80.8311 135.195 80.8037 134.935 80.8949C134.641 80.9679 134.412 81.1432 134.257 81.4178C133.517 82.72 134.648 86.2332 135.645 89.3331C135.97 90.3414 136.276 91.2939 136.482 92.0641C136.52 92.2049 136.666 92.289 136.807 92.2515C136.948 92.214 137.032 92.0691 136.994 91.9273C136.785 91.145 136.477 90.1853 136.15 89.171C135.234 86.3224 134.095 82.7777 134.719 81.6782C134.804 81.5293 134.916 81.4421 135.072 81.4067C135.083 81.4046 135.093 81.4006 135.104 81.3965C135.18 81.3681 135.305 81.3428 135.502 81.4462C137.392 82.4393 140.017 91.453 140.869 94.8427C140.9 94.9633 141.007 95.0433 141.126 95.0433H141.124Z" fill="#2C0A15"/>
<path d="M185.153 118.055C185.211 118.055 185.269 118.035 185.317 117.997C185.432 117.906 185.451 117.739 185.36 117.625C183.666 115.499 183.754 112.182 185.562 109.908C186.091 109.242 186.767 108.675 187.419 108.127C187.693 107.897 187.978 107.658 188.249 107.413C189.014 106.725 190.067 105.647 190.363 104.235C190.393 104.093 190.301 103.952 190.158 103.922C190.015 103.892 189.874 103.984 189.844 104.127C189.643 105.087 189.024 106.006 187.895 107.02C187.631 107.258 187.35 107.493 187.08 107.721C186.407 108.287 185.711 108.872 185.148 109.579C183.191 112.04 183.103 115.641 184.946 117.954C184.999 118.02 185.076 118.055 185.154 118.055H185.153Z" fill="#2C0A15"/>
<path d="M127.635 145.967C127.635 145.967 123.336 149.387 126.481 151.569C126.381 151.691 123.721 154.467 127.4 156.172C127.4 156.172 125.279 158.735 128.211 160.103C127.884 159.974 125.942 163.237 130.337 163.41C132.094 163.221 138.007 162.48 134.998 159.086C134.982 159.074 136.635 157.113 133.539 155.293C134.205 155.125 135.912 152.946 132.57 151.323C132.745 151.118 135.496 148.444 132.448 147.442C132.126 147.505 128.862 148.168 128.862 148.168L127.636 145.968L127.635 145.967Z" fill="#FFEEEE"/>
<path d="M130.293 163.684C132.074 163.684 134.098 163.06 134.857 162.519C134.957 162.453 136.122 161.652 136.133 160.535C136.139 159.861 135.732 159.239 134.924 158.687C134.797 158.6 134.623 158.633 134.537 158.76C134.45 158.887 134.482 159.06 134.609 159.146C135.254 159.587 135.58 160.052 135.576 160.528C135.569 161.372 134.555 162.051 134.545 162.058C134.542 162.06 134.539 162.062 134.536 162.064C133.541 162.777 129.694 163.738 128.244 162.623C127.606 162.131 127.521 161.258 127.991 160.027C128.046 159.883 127.974 159.723 127.829 159.668C127.685 159.613 127.525 159.685 127.47 159.829C126.763 161.682 127.316 162.612 127.905 163.064C128.487 163.511 129.355 163.685 130.292 163.685L130.293 163.684Z" fill="#2C0A15"/>
<path d="M128.379 152.112C128.622 152.112 128.847 152.102 129.044 152.089C129.415 152.063 129.715 152.021 129.901 151.991C130.085 151.961 130.194 151.939 130.265 151.916C132.222 151.598 133.498 151.027 134.059 150.22C134.335 149.824 134.427 149.385 134.335 148.917L134.331 148.897C134.331 148.897 134.33 148.89 134.329 148.886C134.191 148.269 133.853 147.816 133.325 147.54C131.986 146.839 129.796 147.521 129.08 147.776L128.073 145.747C128.041 145.685 127.987 145.637 127.92 145.614C127.853 145.591 127.78 145.596 127.717 145.628C124.692 147.135 124.748 149.072 124.766 149.709L124.768 149.777C124.768 149.777 124.768 149.787 124.768 149.792C124.846 150.845 125.507 151.576 126.677 151.907C127.238 152.066 127.848 152.113 128.378 152.113L128.379 152.112ZM130.092 151.415C129.792 151.499 127.297 151.907 126.025 151.041C125.58 150.737 125.342 150.318 125.299 149.757L125.297 149.692C125.282 149.156 125.235 147.555 127.718 146.223L128.712 148.225C128.774 148.349 128.921 148.404 129.049 148.353C129.075 148.342 131.714 147.292 133.081 148.008C133.469 148.211 133.707 148.535 133.811 148.998L133.816 149.021C133.842 149.153 133.912 149.506 133.625 149.918C133.295 150.392 132.425 151.032 130.154 151.398C130.132 151.401 130.112 151.407 130.092 151.416V151.415Z" fill="#2C0A15"/>
<path d="M128.993 156.366C129.236 156.366 129.462 156.356 129.659 156.342C130.03 156.316 130.329 156.274 130.515 156.244C130.699 156.214 130.808 156.192 130.879 156.169C132.834 155.851 134.111 155.282 134.672 154.477C135.088 153.883 134.983 153.349 134.949 153.173L134.945 153.151C134.945 153.151 134.943 153.143 134.943 153.139C134.789 152.452 134.422 151.933 133.853 151.597C132.423 150.752 130.215 151.377 130.121 151.404C129.981 151.444 129.9 151.591 129.941 151.731C129.981 151.871 130.128 151.952 130.268 151.912C130.289 151.906 132.352 151.325 133.583 152.053C134.026 152.316 134.3 152.707 134.423 153.251L134.427 153.275C134.454 153.408 134.523 153.764 134.236 154.174C133.906 154.646 133.036 155.285 130.765 155.65C130.743 155.653 130.722 155.659 130.703 155.668C130.402 155.752 127.907 156.16 126.636 155.294C126.191 154.99 125.952 154.571 125.91 154.01L125.908 153.945C125.896 153.567 125.871 152.683 126.68 151.739C126.775 151.628 126.762 151.462 126.65 151.366C126.54 151.271 126.371 151.284 126.277 151.396C125.335 152.494 125.365 153.522 125.378 153.961L125.38 154.029C125.38 154.029 125.38 154.039 125.38 154.044C125.458 155.098 126.12 155.829 127.291 156.16C127.851 156.318 128.459 156.365 128.99 156.365L128.993 156.366Z" fill="#2C0A15"/>
<path d="M130.016 160.617C130.258 160.617 130.485 160.607 130.681 160.593C131.053 160.567 131.352 160.525 131.538 160.495C131.721 160.465 131.831 160.443 131.902 160.42C131.982 160.407 132.061 160.394 132.138 160.383C132.592 160.313 133.02 160.248 133.38 160.093C135.327 159.257 135.706 158.189 135.679 157.442C135.647 156.511 134.956 155.704 133.999 155.477C132.716 155.173 131.3 155.552 131.241 155.568C131.099 155.606 131.016 155.752 131.055 155.893C131.093 156.034 131.239 156.117 131.381 156.079C131.394 156.075 132.728 155.719 133.877 155.991C134.603 156.164 135.126 156.768 135.151 157.46C135.18 158.308 134.515 159.03 133.172 159.607C132.875 159.735 132.497 159.793 132.059 159.86C131.972 159.874 131.883 159.888 131.791 159.902C131.77 159.905 131.749 159.911 131.73 159.92C131.429 160.004 128.934 160.412 127.663 159.546C127.218 159.242 126.979 158.823 126.937 158.263C126.936 158.217 126.931 158.166 126.927 158.109C126.901 157.752 126.859 157.212 127.604 156.344C127.7 156.233 127.686 156.066 127.575 155.971C127.463 155.876 127.296 155.889 127.201 156.001C126.316 157.034 126.369 157.76 126.399 158.15C126.403 158.199 126.406 158.242 126.407 158.282C126.407 158.287 126.407 158.292 126.407 158.297C126.485 159.351 127.146 160.082 128.316 160.413C128.877 160.571 129.486 160.618 130.016 160.618V160.617Z" fill="#2C0A15"/>
<path d="M225.902 51.0253C227.771 48.65 228.566 45.3566 227.896 42.4007C227.242 39.5106 224.84 36.4574 221.549 37.3653C220.038 37.7818 218.291 38.9877 217.754 40.5128C217.247 41.9528 217.448 43.7961 218.753 44.7587C220.095 45.7498 221.56 44.9199 222.586 43.9075C222.828 43.6684 223.085 43.3978 223.113 43.0583L225.902 51.0253Z" fill="#FFEEEE"/>
<path d="M225.902 51.2736C225.976 51.2736 226.049 51.2412 226.097 51.1783C228.033 48.7169 228.816 45.3323 228.139 42.3449C227.677 40.3051 226.465 38.4841 224.975 37.5933C223.903 36.9519 222.695 36.7908 221.483 37.1252C219.989 37.5376 218.112 38.7465 217.52 40.4297C217.019 41.8545 217.143 43.8792 218.605 44.9584C219.812 45.8491 221.287 45.539 222.76 44.0839C222.985 43.8619 223.324 43.5265 223.36 43.0776C223.371 42.9408 223.269 42.8212 223.132 42.8101C222.995 42.7989 222.875 42.9013 222.864 43.0381C222.845 43.2823 222.639 43.5052 222.41 43.7302C221.671 44.4608 220.231 45.5411 218.901 44.5581C217.643 43.6299 217.546 41.8525 217.99 40.5939C218.499 39.1468 220.199 37.9946 221.616 37.6035C222.71 37.3015 223.755 37.4413 224.721 38.0189C226.097 38.8418 227.222 40.5412 227.655 42.4534C228.299 45.2989 227.552 48.5233 225.707 50.8693C225.622 50.9767 225.641 51.1337 225.748 51.2179C225.794 51.2533 225.848 51.2705 225.902 51.2705V51.2736Z" fill="#2C0A15"/>
<path d="M33.7195 267.149C30.7071 267.427 27.7667 269.114 26.0774 271.632C24.4267 274.094 23.8585 277.935 26.7806 279.697C28.1219 280.507 30.1998 280.945 31.6781 280.285C33.0742 279.663 34.2755 278.249 34.0786 276.642C33.8757 274.987 32.2655 274.495 30.8238 274.448C30.4829 274.437 30.1095 274.436 29.8447 274.65L33.7195 267.149Z" fill="#FFEEEE"/>
<path d="M30.0232 280.857C30.634 280.857 31.2367 280.754 31.7795 280.512C33.1604 279.896 34.5464 278.413 34.3262 276.612C34.1446 275.124 32.9037 274.267 30.8329 274.199C30.5163 274.189 30.0395 274.174 29.6894 274.456C29.5829 274.542 29.5657 274.698 29.6519 274.806C29.7381 274.912 29.8944 274.93 30.0019 274.843C30.1927 274.689 30.4961 274.686 30.8167 274.696C31.8566 274.73 33.6312 275.032 33.8321 276.672C34.0218 278.223 32.7962 279.515 31.5766 280.059C30.1744 280.684 28.1675 280.244 26.9094 279.486C25.9384 278.9 25.3215 278.046 25.077 276.948C24.729 275.383 25.1917 273.4 26.2844 271.772C27.9098 269.348 30.768 267.672 33.7428 267.398C33.8798 267.386 33.9802 267.265 33.968 267.128C33.9558 266.991 33.8361 266.89 33.6971 266.903C30.5772 267.191 27.578 268.95 25.8715 271.495C24.7057 273.233 24.2156 275.364 24.592 277.057C24.8629 278.275 25.5752 279.262 26.6527 279.911C27.5374 280.445 28.7986 280.858 30.0232 280.859V280.857Z" fill="#2C0A15"/>
<path d="M269.2 281.219C271.67 282.964 275.003 283.593 277.925 282.777C280.782 281.979 283.714 279.43 282.642 276.193C282.149 274.707 280.856 273.024 279.304 272.565C277.838 272.132 276.005 272.425 275.108 273.774C274.185 275.163 275.088 276.583 276.152 277.555C276.404 277.785 276.687 278.028 277.028 278.037L269.201 281.219H269.2Z" fill="#FFEEEE"/>
<path d="M275.294 283.378C276.211 283.378 277.121 283.259 277.99 283.017C280.008 282.454 281.768 281.154 282.584 279.623C283.171 278.522 283.273 277.309 282.877 276.116C282.39 274.647 281.086 272.835 279.373 272.328C277.924 271.9 275.904 272.126 274.9 273.638C274.069 274.886 274.455 276.343 275.984 277.739C276.217 277.951 276.569 278.274 277.02 278.286C277.155 278.291 277.271 278.181 277.275 278.045C277.279 277.908 277.171 277.793 277.034 277.789C276.788 277.782 276.556 277.588 276.318 277.372C275.55 276.67 274.399 275.288 275.314 273.912C276.179 272.611 277.952 272.426 279.232 272.805C280.705 273.24 281.942 274.879 282.404 276.271C282.76 277.347 282.673 278.396 282.144 279.388C281.39 280.803 279.748 282.009 277.857 282.537C275.044 283.322 271.781 282.739 269.343 281.016C269.231 280.937 269.075 280.963 268.996 281.076C268.917 281.188 268.943 281.343 269.055 281.422C270.86 282.698 273.096 283.377 275.293 283.377L275.294 283.378Z" fill="#2C0A15"/>
<path d="M58.8031 202.02C58.6085 201.196 59.1191 200.371 59.9437 200.177C60.7683 199.982 61.5946 200.493 61.7892 201.316C61.9838 202.14 61.4731 202.965 60.6485 203.159C59.8239 203.354 58.9977 202.844 58.8031 202.02Z" fill="#A5328E"/>
<path d="M165.998 214.636C165.151 214.636 164.464 213.95 164.464 213.104C164.464 212.258 165.151 211.572 165.998 211.572C166.845 211.572 167.532 212.258 167.532 213.104C167.532 213.95 166.845 214.636 165.998 214.636Z" fill="#A5328E"/>
<path d="M121.85 315.728C121.715 314.893 122.283 314.106 123.119 313.97C123.955 313.835 124.743 314.402 124.879 315.237C125.015 316.073 124.447 316.86 123.61 316.995C122.774 317.131 121.986 316.564 121.85 315.728Z" fill="#C69CF6"/>
<path d="M366.83 302.037C365.982 302.037 365.296 301.351 365.296 300.504C365.296 299.658 365.982 298.972 366.83 298.972C367.677 298.972 368.364 299.658 368.364 300.504C368.364 301.351 367.677 302.037 366.83 302.037Z" fill="#A5328E"/>
<path d="M368.364 79.8866C367.516 79.8866 366.83 79.2006 366.83 78.3544C366.83 77.5082 367.516 76.8222 368.364 76.8222C369.211 76.8222 369.898 77.5082 369.898 78.3544C369.898 79.2006 369.211 79.8866 368.364 79.8866Z" fill="#C69CF6"/>
<path d="M90.0018 8.23857C89.1545 8.23857 88.4677 7.55259 88.4677 6.70638C88.4677 5.86018 89.1545 5.17419 90.0018 5.17419C90.849 5.17419 91.5359 5.86018 91.5359 6.70638C91.5359 7.55259 90.849 8.23857 90.0018 8.23857Z" fill="#C69CF6"/>
<path d="M275.465 2.94814C274.683 2.62431 274.311 1.72803 274.635 0.946241C274.959 0.16445 275.857 -0.206802 276.64 0.117026C277.422 0.440855 277.794 1.33714 277.47 2.11893C277.146 2.90072 276.248 3.27197 275.465 2.94814Z" fill="#A5328E"/>
</g>
<defs>
<clipPath id="clip0_122_3569">
<rect width="392" height="342.169" fill="white" transform="matrix(-1 0 0 1 392.82 0)"/>
</clipPath>
</defs>
</svg>
