<svg width="427" height="433" viewBox="0 0 427 433" fill="none" xmlns="http://www.w3.org/2000/svg">
<path opacity="0.46" d="M320.22 325.794C379.02 266.994 379.02 171.661 320.22 112.861C261.42 54.0605 166.087 54.0605 107.287 112.861C48.4867 171.661 48.4867 266.994 107.287 325.794C166.087 384.594 261.42 384.594 320.22 325.794Z" fill="url(#paint0_radial_54_962)"/>
<path d="M144.656 24.0773C146.165 21.621 148.456 19.9469 151.012 19.1538C149.888 15.2437 150.329 10.893 152.62 7.15913C156.948 0.0989013 166.19 -2.11499 173.25 2.21367C175.508 3.60148 177.259 5.48494 178.471 7.63275C181.852 6.65247 185.608 7.02696 188.835 9.00955C194.783 12.6553 196.721 20.3324 193.329 26.3572C193.659 26.8088 193.957 27.2824 194.221 27.7781C195.851 27.5027 197.536 27.3375 199.266 27.3155C214.477 27.0952 226.967 37.2174 227.143 49.9391L227.408 68.234C227.595 80.9446 215.413 91.4303 200.191 91.6506C184.98 91.8709 172.49 81.7487 172.314 69.027L172.082 52.7918C167.798 55.226 162.345 55.3251 157.841 52.5605C153.644 49.9942 151.298 45.5664 151.177 40.9844C150.23 40.709 149.293 40.3125 148.412 39.7728C143.037 36.4795 141.352 29.4523 144.656 24.0773Z" fill="#310758"/>
<path d="M177.733 83.4117L178.427 116.047L197.261 121.61L210.336 115.365L209.807 90.7033C207.439 91.8708 204.806 92.6638 201.998 92.9943C192.591 95.5716 183.064 91.4412 177.722 83.4117H177.733Z" fill="#C86B59"/>
<path d="M197.107 122.149L178.272 116.587C178.041 116.521 177.887 116.312 177.876 116.07L177.182 83.4339C177.182 83.1915 177.336 82.9713 177.567 82.8942C177.798 82.817 178.052 82.9052 178.195 83.1144C183.603 91.2541 192.899 94.9329 201.953 92.4547C204.619 92.1462 207.185 91.3863 209.586 90.2187C209.751 90.1416 209.949 90.1416 210.115 90.2408C210.28 90.3399 210.379 90.5161 210.379 90.7034L210.908 115.365C210.908 115.585 210.787 115.783 210.599 115.871L197.525 122.116C197.448 122.149 197.371 122.172 197.283 122.172C197.228 122.172 197.173 122.172 197.129 122.149H197.107ZM209.278 91.5625C206.998 92.5868 204.574 93.2477 202.14 93.5231C193.274 95.9572 184.099 92.686 178.305 85.1741L178.955 115.629L197.206 121.026L209.773 115.023L209.267 91.5625H209.278Z" fill="#310758"/>
<path style="mix-blend-mode:multiply" opacity="0.33" d="M177.733 83.4117L178.427 116.047L197.261 121.61L210.335 115.365L209.807 90.7033C207.439 91.8708 204.806 92.6638 201.997 92.9943C192.591 95.5716 183.064 91.4412 177.722 83.4117H177.733Z" fill="url(#paint1_radial_54_962)"/>
<path d="M188.417 98.7769C188.417 98.7769 199.211 112.446 209.719 110.871L209.994 94.1729L188.417 98.7769Z" fill="#310758"/>
<path d="M177.92 58.6294C177.92 58.4202 177.964 58.2109 177.986 58.0016C178.019 57.7262 178.041 57.4509 178.063 57.1865L176.279 56.9883C170.672 56.3605 165.617 60.3807 164.989 65.987C164.361 71.5934 168.381 76.649 173.988 77.2768L175.893 77.4971C176.29 77.5412 176.686 77.5522 177.083 77.5522C177.083 77.2878 177.072 77.0345 177.083 76.7812L177.931 58.6404L177.92 58.6294Z" fill="#C86B59"/>
<path d="M175.838 78.0369L173.933 77.8276C168.04 77.1667 163.777 71.8248 164.449 65.921C164.769 63.0683 166.19 60.502 168.437 58.7176C170.683 56.9223 173.492 56.1182 176.356 56.4376L178.14 56.6359C178.438 56.6689 178.658 56.9443 178.625 57.2417L178.548 58.0347C178.548 58.1339 178.526 58.244 178.515 58.3431C178.504 58.4423 178.493 58.5524 178.482 58.6515L177.634 76.7923C177.634 76.9244 177.634 77.0676 177.634 77.1998C177.634 77.3099 177.634 77.4311 177.634 77.5522C177.634 77.8607 177.358 78.103 177.05 78.092C176.653 78.092 176.246 78.0699 175.838 78.0259V78.0369ZM176.224 57.5281C173.657 57.2417 171.135 57.9686 169.119 59.5767C167.104 61.1848 165.826 63.4869 165.54 66.0422C164.945 71.3401 168.767 76.1314 174.054 76.7262L175.959 76.9465C176.147 76.9685 176.334 76.9795 176.521 76.9905C176.521 76.9134 176.521 76.8363 176.521 76.7482L177.369 58.6075C177.369 58.4753 177.391 58.3541 177.402 58.222C177.402 58.1339 177.424 58.0457 177.435 57.9466L177.457 57.6712L176.213 57.5281H176.224Z" fill="#310758"/>
<path d="M177.534 76.0433L183.934 66.0091C198.241 63.3657 206.447 50.5559 209.564 46.4255C210.621 47.7363 215.523 57.2086 224.885 61.5924L225.149 79.7771C225.337 92.5869 214.84 103.128 201.711 103.315C188.582 103.502 177.788 93.2808 177.6 80.46L177.534 76.0322V76.0433Z" fill="#C86B59"/>
<path d="M184.418 97.1688C179.759 92.7521 177.138 86.8263 177.039 80.482L176.973 76.0542C176.973 75.9441 177.006 75.8449 177.061 75.7458L183.46 65.7117C183.548 65.5795 183.669 65.4914 183.824 65.4694C196.699 63.0903 204.476 52.4504 208.21 47.3287C208.551 46.8661 208.859 46.4475 209.124 46.095C209.223 45.9629 209.388 45.8748 209.553 45.8748C209.763 45.8748 209.884 45.9519 209.994 46.084C210.17 46.3043 210.423 46.7008 210.776 47.2516C212.736 50.3025 217.318 57.4399 225.117 61.0967C225.304 61.1848 225.436 61.372 225.436 61.5923L225.7 79.7771C225.888 92.8732 215.138 103.678 201.722 103.877C201.601 103.877 201.48 103.877 201.348 103.877C194.992 103.877 188.989 101.509 184.418 97.1688ZM209.851 47.8463C209.741 47.6701 209.641 47.5159 209.553 47.3727C209.41 47.56 209.267 47.7692 209.113 47.9785C205.313 53.1773 197.448 63.9604 184.275 66.5047L178.096 76.1974L178.162 80.46C178.25 86.5069 180.751 92.1573 185.189 96.3648C189.639 100.583 195.466 102.863 201.711 102.764C214.521 102.577 224.786 92.2674 224.61 79.7771L224.346 61.9338C216.448 58.1007 211.668 50.655 209.851 47.8353V47.8463Z" fill="#310758"/>
<path style="mix-blend-mode:multiply" opacity="0.33" d="M177.732 75.7238C179.032 87.4872 189.331 96.5631 201.7 96.3758C214.113 96.1996 224.158 86.7713 225.072 74.9308L225.138 79.7771C225.326 92.5869 214.829 103.128 201.7 103.315C188.571 103.502 177.777 93.2808 177.589 80.46L177.523 76.0322L177.732 75.7128V75.7238Z" fill="url(#paint2_radial_54_962)"/>
<path d="M202.107 72.089C201.854 72.9922 200.917 73.5099 200.014 73.2565C199.111 73.0032 198.593 72.067 198.847 71.1638C199.1 70.2606 200.036 69.7429 200.939 69.9963C201.843 70.2496 202.36 71.1858 202.107 72.089Z" fill="#310758"/>
<path d="M218.904 72.7499C218.651 73.6531 217.714 74.1707 216.811 73.9174C215.908 73.6641 215.39 72.7279 215.644 71.8247C215.897 70.9215 216.833 70.4038 217.736 70.6571C218.64 70.9105 219.157 71.8467 218.904 72.7499Z" fill="#310758"/>
<path d="M218.662 74.8756C218.772 74.8756 218.882 74.8425 218.981 74.7765C219.223 74.6002 219.29 74.2588 219.113 74.0165C218.662 73.3776 217.34 72.4524 215.523 73.5979C215.269 73.7631 215.192 74.1046 215.346 74.3579C215.512 74.6112 215.853 74.6883 216.106 74.5341C217.417 73.7081 218.089 74.4901 218.21 74.6553C218.32 74.7985 218.485 74.8866 218.662 74.8866V74.8756Z" fill="#310758"/>
<path d="M201.633 74.1487C201.743 74.1487 201.853 74.1156 201.953 74.0495C202.195 73.8733 202.261 73.5319 202.085 73.2895C201.633 72.6507 200.311 71.7255 198.494 72.871C198.241 73.0362 198.164 73.3776 198.318 73.631C198.483 73.8843 198.824 73.9614 199.078 73.8072C200.389 72.9811 201.06 73.7632 201.182 73.9284C201.292 74.0716 201.457 74.1597 201.633 74.1597V74.1487Z" fill="#310758"/>
<path d="M172.192 68.8399C172.071 68.5645 172.192 68.2341 172.467 68.1129L173.976 67.4521L172.864 66.0532C172.677 65.8109 172.71 65.4695 172.952 65.2822C173.183 65.095 173.536 65.128 173.723 65.3703L175.067 67.0555C175.221 67.2538 175.287 67.5181 175.221 67.7605C175.155 68.0138 174.99 68.212 174.758 68.3112L172.93 69.1262C172.853 69.1593 172.787 69.1703 172.71 69.1703C172.5 69.1703 172.302 69.0491 172.203 68.8399H172.192Z" fill="#310758"/>
<path d="M203.793 60.9536C203.385 61.3942 202.702 61.6255 202.063 61.8898C201.414 62.1431 200.753 62.4075 200.202 62.6608C199.64 62.9141 199.012 63.2226 198.396 63.553C197.768 63.8614 197.14 64.2249 196.556 64.2249C195.983 64.2359 195.532 63.7402 195.774 62.771C195.994 61.8347 197.052 60.4469 198.891 59.6098C200.742 58.7837 202.449 58.9269 203.275 59.3895C204.145 59.8632 204.189 60.535 203.793 60.9536Z" fill="#310758"/>
<path d="M213.772 60.2927C214.179 60.7222 214.862 60.9315 215.501 61.1848C216.151 61.4161 216.801 61.6695 217.362 61.9008C217.924 62.1321 218.552 62.4295 219.169 62.7379C219.786 63.0353 220.413 63.3657 221.008 63.3657C221.57 63.3657 222.01 62.87 221.746 61.9228C221.504 61.0086 220.435 59.6538 218.596 58.8718C216.757 58.0898 215.06 58.266 214.256 58.7396C213.408 59.2243 213.375 59.8851 213.772 60.2927Z" fill="#310758"/>
<path d="M195.653 78.2131C196.358 77.8606 197.228 78.0699 197.746 78.6757C198.693 79.7771 200.786 81.7708 204.057 82.5087C204.861 82.685 205.17 83.6873 204.729 84.3812C203.771 85.9122 201.414 88.1701 197.382 85.6478C192.47 82.5858 193.803 79.1493 195.653 78.2241V78.2131Z" fill="#F8F7F5"/>
<path d="M197.085 86.1104C193.791 84.0507 193.384 81.925 193.428 80.8345C193.483 79.5128 194.265 78.2902 195.399 77.7175C196.325 77.2548 197.459 77.4972 198.153 78.3122C199.067 79.3806 201.072 81.2751 204.167 81.969C204.696 82.0902 205.114 82.4426 205.323 82.9603C205.555 83.522 205.5 84.1609 205.18 84.6675C204.696 85.4386 203.253 87.322 200.763 87.322C199.717 87.322 198.494 86.9916 197.074 86.1104H197.085ZM195.906 78.7087C195.3 79.0061 194.584 79.7661 194.54 80.8896C194.474 82.3545 195.587 83.8745 197.679 85.1742C201.358 87.4762 203.385 85.4716 204.266 84.0838C204.398 83.8745 204.42 83.6102 204.321 83.3789C204.266 83.2577 204.156 83.0925 203.936 83.0374C200.532 82.2774 198.329 80.1957 197.327 79.0282C197.085 78.7418 196.732 78.5876 196.402 78.5876C196.236 78.5876 196.06 78.6206 195.906 78.7087Z" fill="#310758"/>
<path d="M209.079 79.9203C211.591 79.9203 213.661 77.9157 213.695 75.4154C213.695 74.9308 213.518 74.4792 213.177 74.1377C212.835 73.7963 212.395 73.598 211.91 73.598C211.382 73.598 210.897 73.3777 210.533 73.0033C210.17 72.6288 209.972 72.1441 209.983 71.6265L210.038 68.0247C210.038 67.7163 209.795 67.474 209.498 67.463C209.201 67.463 208.947 67.7053 208.947 68.0027L208.892 71.6044C208.881 72.4195 209.19 73.1905 209.762 73.7633C210.335 74.347 211.095 74.6664 211.921 74.6775C212.108 74.6775 212.285 74.7545 212.417 74.8867C212.549 75.0189 212.615 75.1951 212.615 75.3824C212.582 77.2768 211.018 78.7968 209.102 78.7968C209.079 78.7968 209.068 78.7968 209.046 78.7968L207.571 78.7748C207.284 78.7638 207.02 79.0171 207.009 79.3145C207.009 79.6229 207.251 79.8652 207.548 79.8762L209.024 79.8983C209.024 79.8983 209.068 79.8983 209.091 79.8983L209.079 79.9203Z" fill="#310758"/>
<path d="M170.419 75.2832C170.022 76.5388 170.716 77.8826 171.983 78.2791C173.239 78.6756 174.582 77.9817 174.99 76.7151C175.386 75.4594 174.692 74.1157 173.426 73.7191C172.17 73.3226 170.826 74.0165 170.419 75.2832Z" fill="#F8F7F5"/>
<path d="M171.807 78.8078C171.058 78.5765 170.441 78.0588 170.078 77.3649C169.714 76.671 169.648 75.867 169.879 75.118C170.111 74.369 170.628 73.7522 171.322 73.3887C172.016 73.0253 172.82 72.9592 173.569 73.1905C174.318 73.4218 174.935 73.9395 175.298 74.6334C175.662 75.3273 175.728 76.1313 175.497 76.8803C175.265 77.6293 174.748 78.2461 174.054 78.6096C173.624 78.8298 173.162 78.94 172.699 78.94C172.402 78.94 172.104 78.8959 171.807 78.7968V78.8078ZM171.84 74.369C171.399 74.6003 171.08 74.9748 170.937 75.4484C170.794 75.922 170.838 76.4177 171.058 76.8472C171.289 77.2878 171.664 77.6072 172.137 77.7504C172.6 77.9046 173.107 77.8606 173.547 77.6293C173.988 77.398 174.307 77.0235 174.45 76.5499C174.593 76.0762 174.549 75.5806 174.329 75.151C174.098 74.7105 173.723 74.391 173.25 74.2479C173.062 74.1928 172.875 74.1597 172.699 74.1597C172.402 74.1597 172.115 74.2258 171.851 74.369H171.84Z" fill="#310758"/>
<path d="M102.405 152.648C106.084 142.372 109.245 132.305 116.977 124.209C124.269 116.576 134.116 111.983 144.667 111.443C146.595 111.344 148.357 111.267 149.877 111.201L178.129 109.802V112.391C186.037 124.429 210.897 122.183 210.633 108.381L228.135 107.379C228.223 107.379 228.311 107.379 228.399 107.379C240.614 107.522 251.155 116.07 253.908 127.976C254.844 132.007 255.803 136.6 256.629 141.414C266.586 151.139 269.218 164.235 263.226 176.759C256.717 190.373 245.163 190.373 237.596 188.566L149.91 206.355C149.701 193.952 149.459 193.016 147.685 180.735L138.609 180.239L97.1072 167.441C98.8695 162.517 100.643 157.583 102.405 152.659V152.648Z" fill="#9B6D92"/>
<path d="M149.557 206.773C149.425 206.674 149.359 206.52 149.348 206.355C149.15 194.778 148.919 193.203 147.454 183.015L147.2 181.253L138.576 180.779C138.576 180.779 138.488 180.779 138.444 180.757L96.9417 167.958C96.7985 167.914 96.6773 167.815 96.6112 167.683C96.5452 167.551 96.5341 167.397 96.5892 167.253L101.887 152.472L102.746 150.049C106.15 140.444 109.377 131.379 116.58 123.835C124.026 116.036 133.994 111.443 144.645 110.904C145.967 110.838 147.211 110.783 148.357 110.727L178.107 109.252C178.25 109.252 178.404 109.296 178.514 109.406C178.624 109.505 178.691 109.648 178.691 109.802V112.225C183.405 119.22 193.879 121.037 201.336 118.724C206.998 116.973 210.192 113.206 210.093 108.392C210.093 108.095 210.313 107.853 210.61 107.831L228.145 106.828H228.41C240.911 106.983 251.617 115.629 254.448 127.855C255.505 132.404 256.408 136.876 257.135 141.149C267.235 151.106 269.703 164.5 263.722 177.001C256.893 191.265 244.469 190.747 237.585 189.139L150.02 206.905C150.02 206.905 149.943 206.905 149.91 206.905C149.789 206.905 149.668 206.861 149.568 206.784L149.557 206.773ZM237.717 188.027C245.691 189.932 256.507 189.48 262.719 176.516C268.513 164.401 266.09 151.426 256.232 141.799C256.144 141.722 256.089 141.612 256.078 141.502C255.34 137.195 254.426 132.69 253.368 128.097C250.648 116.367 240.382 108.073 228.388 107.93H228.167L211.183 108.899C211.051 113.988 207.603 117.942 201.656 119.781C193.758 122.227 182.634 120.244 177.688 112.699C177.633 112.611 177.6 112.512 177.6 112.402V110.386L149.91 111.763L148.412 111.829C147.277 111.884 146.022 111.939 144.7 112.005C134.336 112.534 124.632 117.006 117.384 124.595C110.346 131.963 107.163 140.929 103.793 150.412L97.8228 167.077L138.708 179.689L147.707 180.184C147.971 180.195 148.181 180.394 148.225 180.658L148.544 182.872C149.998 192.928 150.24 194.635 150.439 205.694L237.474 188.038C237.474 188.038 237.552 188.038 237.585 188.038C237.629 188.038 237.673 188.038 237.717 188.049V188.027Z" fill="#310758"/>
<path style="mix-blend-mode:multiply" opacity="0.05" d="M156.167 143.572L149.206 196.761L165.187 187.608C165.187 187.608 147.95 168.553 163.877 148.815" fill="url(#paint3_radial_54_962)"/>
<path d="M163.193 149.718C158.952 154.807 156.221 161.526 157.653 170.238C161.475 193.534 186.081 186.661 186.081 186.661" fill="#9B6D92"/>
<path d="M178.239 188.181C182.623 188.181 185.982 187.267 186.235 187.2C186.533 187.123 186.698 186.815 186.621 186.518C186.544 186.22 186.224 186.055 185.938 186.132C185.828 186.165 174.538 189.216 166.354 183.984C161.982 181.198 159.239 176.538 158.193 170.15C156.959 162.616 158.776 155.853 163.612 150.071C163.81 149.84 163.777 149.487 163.546 149.3C163.314 149.102 162.962 149.135 162.775 149.366C157.73 155.413 155.825 162.462 157.113 170.326C158.215 177.045 161.123 181.947 165.771 184.92C169.791 187.487 174.406 188.181 178.239 188.181Z" fill="#310758"/>
<path d="M252.928 185.449L252.674 186.275C244.006 183.257 233.619 181.704 221.68 181.704C184.077 181.704 152.432 197.069 150.384 225.365C150.317 224.374 150.273 223.372 150.273 222.358C150.273 192.19 182.788 175.745 221.68 175.745C235.018 175.745 246.429 177.684 255.659 181.44C254.987 182.806 254.205 184.017 253.269 185.053L252.917 185.438L252.928 185.449Z" fill="#F8F7F5"/>
<path d="M150.383 225.916C150.097 225.916 149.855 225.696 149.833 225.409C149.755 224.33 149.722 223.339 149.722 222.358C149.722 189.778 185.861 175.195 221.68 175.195C235.018 175.195 246.528 177.122 255.868 180.933C256.011 180.988 256.122 181.109 256.177 181.253C256.232 181.396 256.221 181.55 256.155 181.693C255.439 183.136 254.613 184.392 253.687 185.438L253.423 185.735L253.203 186.451C253.159 186.595 253.06 186.716 252.927 186.782C252.795 186.848 252.641 186.859 252.498 186.815C243.84 183.797 233.476 182.266 221.691 182.266C181.246 182.266 152.817 199.603 150.945 225.42C150.923 225.707 150.681 225.927 150.394 225.927L150.383 225.916ZM252.311 185.57L252.399 185.284C252.421 185.207 252.465 185.141 252.52 185.075L252.872 184.689C253.621 183.852 254.304 182.861 254.899 181.726C245.79 178.125 234.61 176.296 221.68 176.296C187.997 176.296 154.029 189.282 151.044 218.162C153.853 207.72 161.133 198.92 172.434 192.443C185.134 185.163 202.625 181.153 221.691 181.153C233.355 181.153 243.653 182.64 252.322 185.57H252.311Z" fill="#310758"/>
<path d="M178.603 116.411C186.622 123.416 205.082 122.315 211.261 114.781L211.151 109.571C204.972 117.105 186.512 118.206 178.493 111.201L177.105 109.99L177.215 115.199L178.603 116.411Z" fill="#F8F7F5"/>
<path d="M178.239 116.83L176.862 115.618C176.741 115.519 176.675 115.365 176.675 115.21L176.565 110.001C176.565 109.78 176.686 109.582 176.884 109.494C177.083 109.406 177.314 109.428 177.479 109.582L178.867 110.794C182.678 114.12 189.419 115.816 196.468 115.232C202.746 114.715 208.077 112.468 210.732 109.23C210.875 109.053 211.117 108.987 211.337 109.053C211.558 109.13 211.701 109.329 211.712 109.56L211.822 114.77C211.822 114.902 211.778 115.034 211.701 115.133C208.859 118.592 203.242 120.982 196.677 121.533C195.73 121.61 194.783 121.654 193.858 121.654C187.568 121.654 181.764 119.892 178.261 116.83H178.239ZM210.632 110.937C207.593 113.845 202.46 115.827 196.556 116.323C189.22 116.94 182.16 115.133 178.129 111.62L177.688 111.234L177.766 114.957L178.966 116.003C182.777 119.33 189.518 121.026 196.578 120.442C202.757 119.925 208.022 117.744 210.721 114.594L210.644 110.948L210.632 110.937Z" fill="#310758"/>
<path d="M166.331 328.967L150.603 328.328L143.829 324.506C138.52 321.499 131.592 323.449 128.915 328.681L124.289 337.756L91.4224 363.079C86.4439 366.912 89.4619 374.467 95.9163 374.302L166.034 372.914L166.32 328.967H166.331Z" fill="#C86B59"/>
<path d="M88.7897 370.139C87.8094 367.374 88.6905 364.499 91.1027 362.649L123.871 337.404L128.442 328.449C129.763 325.85 132.109 323.933 135.028 323.052C138.068 322.138 141.372 322.501 144.115 324.043L150.779 327.81L166.375 328.449C166.673 328.46 166.904 328.703 166.904 329L166.617 372.947C166.617 373.245 166.375 373.487 166.078 373.498L95.9601 374.886C95.894 374.886 95.8279 374.886 95.7508 374.886C92.5456 374.886 89.825 373.046 88.8007 370.161L88.7897 370.139ZM165.78 329.496L150.591 328.879C150.503 328.879 150.415 328.846 150.338 328.813L143.564 324.991C141.086 323.592 138.09 323.272 135.337 324.098C132.704 324.892 130.6 326.61 129.411 328.945L124.785 338.01C124.752 338.087 124.697 338.142 124.631 338.197L91.7636 363.519C89.7479 365.072 88.999 367.473 89.814 369.775C90.6952 372.264 93.0743 373.829 95.905 373.762L165.483 372.386L165.769 329.507L165.78 329.496Z" fill="#310758"/>
<path style="mix-blend-mode:multiply" opacity="0.33" d="M166.331 328.967L150.603 328.328L143.829 324.506C138.52 321.499 131.592 323.449 128.915 328.681L124.289 337.756L91.4224 363.079C86.4439 366.912 89.4619 374.467 95.9163 374.302L166.034 372.914L166.32 328.967H166.331Z" fill="url(#paint4_radial_54_962)"/>
<path d="M143.267 344.773C143.498 344.773 143.708 344.629 143.785 344.409C145.657 339.045 149.997 339.199 150.173 339.199C150.481 339.243 150.735 338.979 150.746 338.682C150.757 338.384 150.526 338.12 150.228 338.109C150.184 338.109 144.886 337.9 142.738 344.057C142.639 344.343 142.793 344.662 143.08 344.762C143.135 344.784 143.201 344.795 143.267 344.795V344.773Z" fill="#380B00"/>
<path d="M135.127 347.35L119.398 346.711L112.624 342.878C107.315 339.882 100.387 341.821 97.7109 347.053L93.0848 356.128L60.2178 381.451C55.2393 385.284 58.2573 392.839 64.7117 392.674L134.829 391.286L135.116 347.339L135.127 347.35Z" fill="#C86B59"/>
<path d="M57.5861 388.522C56.6058 385.757 57.4869 382.882 59.8991 381.032L92.6669 355.787L97.2379 346.821C98.5596 344.222 100.906 342.305 103.825 341.424C106.865 340.51 110.18 340.873 112.911 342.415L119.575 346.182L135.172 346.821C135.469 346.832 135.7 347.075 135.7 347.372L135.414 391.319C135.414 391.617 135.172 391.859 134.874 391.87L64.7564 393.258C64.6904 393.258 64.6243 393.258 64.5472 393.258C61.331 393.258 58.6214 391.419 57.5971 388.533L57.5861 388.522ZM134.577 347.879L119.388 347.262C119.3 347.262 119.212 347.229 119.135 347.196L112.361 343.374C109.882 341.975 106.887 341.655 104.133 342.482C101.5 343.275 99.3967 344.993 98.2072 347.328L93.5811 356.404C93.5481 356.481 93.493 356.536 93.4269 356.591L60.56 381.913C58.5443 383.466 57.7953 385.867 58.6104 388.169C59.4916 390.659 61.8707 392.19 64.7014 392.157L134.279 390.78L134.566 347.901L134.577 347.879Z" fill="#310758"/>
<path d="M119.002 357.031C119.002 357.031 114.1 356.767 112.062 362.605L119.002 357.031Z" fill="#C86B59"/>
<path d="M112.063 363.156C112.294 363.156 112.503 363.012 112.581 362.792C114.453 357.428 118.793 357.582 118.98 357.582C119.277 357.626 119.542 357.362 119.553 357.065C119.564 356.767 119.332 356.503 119.035 356.492C118.98 356.492 113.693 356.294 111.545 362.44C111.446 362.726 111.6 363.045 111.887 363.145C111.942 363.167 112.008 363.178 112.074 363.178L112.063 363.156Z" fill="#310758"/>
<path d="M147.761 241.612L243.62 230.245L351.219 325.652C375.22 348 359.921 388.202 327.142 388.951L264.172 390.383" fill="#310758"/>
<path d="M151.143 232.998L140.404 254.972C130.248 273.454 129.995 296.012 140.514 314.285C147.387 326.213 158.104 335.465 171.365 338.23L217.978 340.102L140.778 336.765C137.716 336.633 135.161 339.067 135.15 342.129L134.918 388.18C134.907 391.154 137.298 393.577 140.271 393.599L281.201 394.767C315.356 394.767 331.063 347.361 305.102 325.167L217.493 253.981" fill="#310758"/>
<path d="M281.212 395.329C296.709 395.329 309.96 385.482 315.819 369.643C321.965 353 317.901 335.377 305.477 324.748L262.686 289.987C262.455 289.8 262.102 289.833 261.915 290.064C261.728 290.295 261.761 290.648 261.992 290.835L304.772 325.597C316.833 335.917 320.776 353.055 314.784 369.258C309.101 384.656 296.236 394.216 281.212 394.216C280.904 394.216 280.661 394.459 280.661 394.767C280.661 395.075 280.904 395.318 281.212 395.318V395.329Z" fill="#F8F7F5"/>
<path d="M218 340.653C218.298 340.653 218.54 340.422 218.551 340.124C218.562 339.816 218.331 339.563 218.022 339.552L140.822 336.214C140.514 336.214 140.261 336.435 140.25 336.743C140.239 337.051 140.47 337.305 140.778 337.316L170.991 338.627C171.09 338.726 171.211 338.781 171.354 338.792L217.967 340.664H217.989L218 340.653Z" fill="#F8F7F5"/>
<path d="M150.273 228.306C150.273 258.475 181.796 282.938 220.688 282.938C259.58 282.938 283.04 258.475 283.04 228.306C283.04 198.138 260.56 181.693 221.668 181.693C182.776 181.693 150.262 198.127 150.262 228.306H150.273Z" fill="#C86B59"/>
<path d="M149.721 228.306C149.721 195.726 185.86 181.143 221.679 181.143C241.262 181.143 256.594 185.218 267.278 193.248C278.105 201.387 283.601 213.184 283.601 228.306C283.601 260.799 257.74 283.489 220.698 283.489C181.564 283.489 149.732 258.728 149.732 228.306H149.721ZM150.823 228.306C150.823 258.122 182.17 282.387 220.687 282.387C257.079 282.387 282.489 260.149 282.489 228.306C282.489 198.601 260.89 182.244 221.668 182.244C186.399 182.244 150.812 196.486 150.812 228.306H150.823Z" fill="#310758"/>
<path style="mix-blend-mode:multiply" opacity="0.33" d="M220.698 270.095C256.781 270.095 279.57 249.036 282.676 221.885C282.918 223.956 283.051 226.093 283.051 228.306C283.051 258.475 259.59 282.938 220.698 282.938C181.806 282.938 150.283 258.475 150.283 228.306C150.283 226.126 150.47 224.022 150.801 221.995C154.964 249.091 184.659 270.095 220.698 270.095Z" fill="url(#paint5_radial_54_962)"/>
<path style="mix-blend-mode:multiply" opacity="0.33" d="M225.435 182.96C224.95 184.943 223.133 186.319 221.15 186.22L219.178 186.121L219.234 189.128C219.289 191.981 216.954 194.36 214.145 194.327L210.477 194.283L210.532 195.583C210.708 199.812 207.58 203.546 203.417 204.075L187.116 206.134C175.275 210.111 165.021 215.331 161.144 219.572L169.581 205.088C168.534 202.07 168.116 198.876 168.292 195.715C181.465 186.518 200.63 181.693 221.668 181.693C223.022 181.693 224.344 181.715 225.655 181.759C225.633 181.98 225.6 182.211 225.545 182.442L225.424 182.96H225.435Z" fill="url(#paint6_radial_54_962)"/>
<path style="mix-blend-mode:multiply" opacity="0.18" d="M271.53 216.422L257.773 209.912C254.259 208.249 252.585 204.053 253.962 200.385L254.392 199.25L251.153 198.226C248.675 197.444 247.309 194.679 248.168 192.179L249.083 189.547L247.32 189.073C245.536 188.588 244.335 186.848 244.49 184.965L244.523 184.469C244.534 184.304 244.567 184.15 244.6 183.984C268.655 189.337 282.346 203.942 282.996 226.599L282.39 227.458C280.198 222.601 276.343 218.691 271.53 216.411V216.422Z" fill="url(#paint7_radial_54_962)"/>
<path d="M247.254 228.306C247.254 230.267 247.904 231.864 248.697 231.864C249.49 231.864 250.14 230.278 250.14 228.306C250.14 226.335 249.49 224.749 248.697 224.749C247.904 224.749 247.254 226.335 247.254 228.306Z" fill="#C86B59"/>
<path d="M246.703 228.306C246.703 226.269 247.386 224.198 248.697 224.198C250.007 224.198 250.69 226.269 250.69 228.306C250.69 230.344 250.007 232.415 248.697 232.415C247.386 232.415 246.703 230.355 246.703 228.306ZM247.805 228.306C247.805 230.278 248.465 231.313 248.697 231.313C248.928 231.313 249.589 230.278 249.589 228.306C249.589 226.335 248.928 225.299 248.697 225.299C248.465 225.299 247.805 226.335 247.805 228.306Z" fill="#310758"/>
<g style="mix-blend-mode:multiply" opacity="0.06">
<path d="M248.554 249.939C263.567 248.264 274.702 237.735 273.446 226.401C273.215 224.275 272.554 222.271 271.541 220.431C267.168 212.468 256.176 207.555 243.994 208.91C232.242 210.221 222.857 216.962 219.95 225.266C219.145 227.568 218.826 229.992 219.101 232.448C220.357 243.782 233.552 251.613 248.554 249.939Z" fill="url(#paint8_radial_54_962)"/>
</g>
<path style="mix-blend-mode:multiply" opacity="0.09" d="M249.7 240.235C241.615 240.235 234.775 235.752 232.484 229.562C232.176 228.736 231.955 227.888 231.823 227.007C231.724 227.645 231.669 228.295 231.669 228.956C231.669 230.531 231.955 232.051 232.484 233.483C234.764 239.662 241.615 244.156 249.7 244.156C257.784 244.156 264.128 239.982 266.651 234.144C267.345 232.525 267.73 230.785 267.73 228.956C267.73 228.295 267.675 227.645 267.576 227.007C267.4 228.119 267.091 229.187 266.651 230.212C264.139 236.049 257.498 240.224 249.7 240.224V240.235Z" fill="url(#paint9_radial_54_962)"/>
<path d="M283.525 223.24C281.333 218.382 277.478 214.472 272.665 212.192L258.908 205.683C255.394 204.019 253.72 199.823 255.097 196.155L255.526 195.021L252.288 193.996C249.81 193.214 248.444 190.45 249.303 187.949L250.217 185.317L248.455 184.843C246.671 184.359 245.47 182.618 245.624 180.735L245.657 180.239C245.801 178.433 247.122 177.001 248.863 176.77L255.471 175.9V175.25C255.449 172.177 257.707 169.654 260.67 169.445L271.475 168.674C279.868 169.247 289.252 175.867 290.123 184.502L292.634 198.259C293.801 204.68 292.259 211.256 288.404 216.334L283.525 223.24Z" fill="#C86B59"/>
<path d="M283.469 223.779C283.271 223.757 283.106 223.636 283.018 223.46C280.881 218.735 277.114 214.902 272.422 212.677L258.665 206.167C254.887 204.383 253.092 199.889 254.579 195.946L254.799 195.362L252.111 194.514C250.779 194.096 249.699 193.159 249.06 191.893C248.422 190.615 248.311 189.106 248.785 187.762L249.501 185.692L248.311 185.372C246.263 184.821 244.908 182.85 245.073 180.691L245.117 180.195C245.282 178.125 246.791 176.483 248.796 176.219L254.92 175.415V175.25C254.898 171.913 257.409 169.115 260.637 168.884L271.519 168.113C280.033 168.696 289.759 175.393 290.673 184.392L293.184 198.149C294.385 204.713 292.799 211.465 288.855 216.642L283.976 223.548C283.877 223.691 283.701 223.779 283.524 223.779C283.502 223.779 283.491 223.779 283.469 223.779ZM260.714 169.985C258.059 170.172 255.999 172.485 256.021 175.239V175.889C256.021 176.164 255.823 176.406 255.548 176.439L248.939 177.31C247.452 177.508 246.329 178.73 246.208 180.283L246.164 180.779C246.042 182.409 247.056 183.896 248.598 184.315L250.36 184.788C250.503 184.832 250.635 184.932 250.702 185.064C250.768 185.196 250.79 185.361 250.735 185.504L249.82 188.137C249.457 189.194 249.534 190.395 250.041 191.408C250.547 192.41 251.395 193.148 252.442 193.479L255.68 194.503C255.823 194.547 255.944 194.646 256.01 194.789C256.077 194.922 256.088 195.087 256.033 195.219L255.614 196.353C254.336 199.768 255.889 203.645 259.15 205.187L272.907 211.697C277.544 213.888 281.322 217.589 283.624 222.16L287.974 216.003C291.741 211.058 293.25 204.625 292.105 198.358L289.593 184.557C288.734 176.065 279.515 169.776 271.53 169.225L260.725 169.996L260.714 169.985Z" fill="#310758"/>
<path d="M277.632 181.826L275.33 179.799C272.995 177.75 270.032 176.55 266.926 176.395L255.746 175.856" fill="#C86B59"/>
<path d="M277.632 182.376C277.786 182.376 277.94 182.31 278.039 182.189C278.238 181.958 278.216 181.616 277.995 181.407L275.693 179.38C273.281 177.255 270.175 175.999 266.959 175.845L255.779 175.305C255.427 175.272 255.217 175.525 255.206 175.823C255.195 176.131 255.427 176.384 255.724 176.395L266.904 176.935C269.878 177.078 272.741 178.235 274.966 180.206L277.268 182.233C277.367 182.321 277.5 182.376 277.632 182.376Z" fill="#310758"/>
<path d="M250.294 185.086L260.923 186.595C264.371 187.079 267.664 188.324 270.583 190.219L274.372 192.686" fill="#C86B59"/>
<path d="M274.372 193.225C274.548 193.225 274.724 193.137 274.834 192.972C275 192.719 274.923 192.377 274.669 192.212L270.88 189.745C267.917 187.817 264.503 186.54 261 186.033L250.371 184.524C250.063 184.491 249.788 184.689 249.744 184.987C249.7 185.284 249.909 185.57 250.206 185.614L260.835 187.123C264.184 187.597 267.444 188.82 270.274 190.659L274.063 193.126C274.152 193.181 274.262 193.214 274.361 193.214L274.372 193.225Z" fill="#310758"/>
<path d="M255.724 194.8L263.412 196.53C266.221 197.157 268.82 198.49 270.968 200.407L271.992 201.321" fill="#C86B59"/>
<path d="M271.993 201.861C272.147 201.861 272.301 201.794 272.4 201.673C272.598 201.442 272.576 201.101 272.356 200.891L271.332 199.977C269.118 198.017 266.419 196.629 263.534 195.979L255.846 194.25C255.548 194.184 255.251 194.371 255.185 194.668C255.119 194.966 255.306 195.263 255.603 195.329L263.291 197.058C266.001 197.664 268.523 198.964 270.594 200.803L271.618 201.717C271.728 201.805 271.849 201.861 271.982 201.861H271.993Z" fill="#310758"/>
<path d="M177.908 168.663L127.187 199.735L151.154 184.832L100.091 171.615L97.7232 219.704C97.0403 233.329 106.942 246.006 120.468 248.375C137.728 251.393 149.028 233.461 159.349 222.436C167.533 213.69 175.716 204.956 183.889 196.21L177.897 168.663H177.908Z" fill="#C86B59"/>
<path d="M120.368 248.925C106.656 246.524 96.4562 233.681 97.1611 219.682L99.5292 171.593C99.5292 171.428 99.6174 171.274 99.7495 171.175C99.8817 171.075 100.058 171.042 100.212 171.086L151.275 184.304H151.297L177.599 168.19C177.754 168.102 177.941 168.08 178.106 168.157C178.271 168.223 178.392 168.377 178.425 168.542L184.417 196.089C184.461 196.265 184.406 196.453 184.285 196.585L159.745 222.81C157.983 224.694 156.22 226.742 154.348 228.923C146.109 238.517 136.868 249.267 124.312 249.267C123.034 249.267 121.712 249.157 120.357 248.914L120.368 248.925ZM177.533 169.533L127.473 200.198C127.219 200.352 126.878 200.275 126.713 200.021C126.559 199.768 126.636 199.427 126.889 199.261L149.766 185.042L100.598 172.32L98.2626 219.737C97.5907 233.186 107.383 245.533 120.556 247.835C134.555 250.269 144.633 238.55 153.522 228.207C155.394 226.026 157.168 223.956 158.941 222.061L183.294 196.045L177.522 169.533H177.533Z" fill="#310758"/>
<path style="mix-blend-mode:multiply" opacity="0.33" d="M149.722 185.042L140.789 184.832L127.186 199.735L149.722 185.042Z" fill="url(#paint10_radial_54_962)"/>
<path d="M169.834 211.366C173.722 207.126 178.491 203.931 184.197 203.204L200.498 201.145C204.661 200.616 207.789 196.882 207.613 192.653L207.558 191.353L211.226 191.397C214.035 191.43 216.37 189.051 216.315 186.198L216.259 183.191L218.231 183.29C220.225 183.39 222.031 182.013 222.516 180.03L222.637 179.512C223.099 177.618 222.218 175.69 220.511 174.875L214.024 171.758L214.244 171.086C215.301 167.947 213.825 164.588 210.851 163.376L200.024 158.949C191.224 156.713 179.372 160.358 175.572 168.928L172.125 177.871C169.79 183.929 170.748 190.758 174.647 195.946" fill="#C86B59"/>
<path d="M169.834 211.917C169.977 211.917 170.131 211.862 170.241 211.741C174.504 207.082 179.229 204.394 184.263 203.755L200.564 201.695C205.014 201.134 208.351 197.158 208.153 192.631L208.12 191.904L211.204 191.937H211.27C212.746 191.937 214.134 191.353 215.191 190.285C216.271 189.194 216.876 187.696 216.854 186.176L216.81 183.764L218.187 183.83C220.412 183.951 222.494 182.398 223.033 180.151L223.155 179.634C223.683 177.475 222.692 175.305 220.731 174.369L214.684 171.461L214.751 171.252C215.885 167.859 214.266 164.169 211.05 162.859L200.223 158.431C191.235 156.151 179.031 159.742 175.055 168.696L171.596 177.662C169.184 183.94 170.153 190.89 174.196 196.265C174.383 196.508 174.724 196.552 174.967 196.376C175.209 196.188 175.253 195.847 175.077 195.605C171.266 190.538 170.351 183.973 172.631 178.059L176.079 169.115C179.813 160.7 191.411 157.329 199.881 159.477L210.642 163.883C213.319 164.973 214.673 168.058 213.715 170.91L213.495 171.582C213.407 171.846 213.528 172.133 213.781 172.254L220.269 175.371C221.745 176.087 222.494 177.728 222.097 179.38L221.976 179.898C221.557 181.627 219.993 182.839 218.253 182.74L216.282 182.641C216.127 182.63 215.984 182.685 215.874 182.795C215.764 182.905 215.698 183.048 215.709 183.202L215.764 186.209C215.786 187.432 215.301 188.643 214.42 189.514C213.55 190.384 212.426 190.824 211.226 190.846L207.558 190.802C207.36 190.824 207.261 190.857 207.151 190.967C207.04 191.078 206.985 191.221 206.996 191.375L207.051 192.675C207.217 196.629 204.309 200.109 200.421 200.594L184.119 202.654C178.811 203.326 173.865 206.123 169.415 210.981C169.206 211.201 169.228 211.553 169.448 211.763C169.558 211.862 169.691 211.906 169.823 211.906L169.834 211.917Z" fill="#310758"/>
<path d="M189.296 170.393L192.336 169.093C195.42 167.771 198.856 167.54 202.095 168.421L213.737 171.615" fill="#C86B59"/>
<path d="M213.748 172.166C213.99 172.166 214.211 172.001 214.277 171.758C214.354 171.461 214.189 171.164 213.891 171.075L202.249 167.881C198.901 166.967 195.31 167.209 192.127 168.575L189.087 169.875C188.811 169.996 188.679 170.315 188.8 170.602C188.922 170.877 189.252 171.009 189.527 170.888L192.567 169.588C195.519 168.322 198.868 168.09 201.963 168.95L213.605 172.144C213.605 172.144 213.704 172.166 213.748 172.166Z" fill="#310758"/>
<path d="M216.248 183.18L204.837 180.878C201.137 180.217 197.337 180.383 193.713 181.352L188.999 182.607" fill="#C86B59"/>
<path d="M216.248 183.731C216.502 183.731 216.733 183.555 216.788 183.29C216.843 182.993 216.656 182.707 216.358 182.641L204.948 180.339C201.181 179.667 197.248 179.832 193.57 180.812L188.856 182.068C188.558 182.145 188.382 182.453 188.47 182.74C188.547 183.037 188.844 183.213 189.142 183.125L193.856 181.87C197.381 180.922 201.159 180.768 204.749 181.407L216.149 183.709C216.149 183.709 216.226 183.709 216.259 183.709L216.248 183.731Z" fill="#310758"/>
<path d="M207.547 191.353L198.945 190.251C195.86 189.954 192.743 190.45 189.891 191.683L188.525 192.278" fill="#C86B59"/>
<path d="M188.536 192.829C188.613 192.829 188.679 192.818 188.756 192.785L190.122 192.19C192.876 190.989 195.916 190.505 198.901 190.791L207.481 191.893C207.778 191.926 208.054 191.716 208.098 191.419C208.142 191.122 207.921 190.846 207.624 190.802L199.022 189.701C195.828 189.392 192.611 189.91 189.682 191.177L188.316 191.771C188.04 191.893 187.908 192.212 188.029 192.498C188.118 192.708 188.327 192.829 188.536 192.829Z" fill="#310758"/>
<path d="M151.154 175.536C151.429 175.536 151.661 175.338 151.694 175.063L156.055 143.65C156.099 143.352 155.89 143.066 155.582 143.033C155.306 142.989 154.998 143.198 154.965 143.506L150.603 174.92C150.559 175.217 150.768 175.503 151.077 175.536C151.099 175.536 151.132 175.536 151.154 175.536Z" fill="#310758"/>
<path d="M151.143 174.986C130.612 178.081 115.732 174.6 98.4059 164.114L98.0204 163.883L94.7051 172.606L95.1346 172.871C112.515 183.39 130.447 187.531 150.438 183.918L151.132 174.997L151.143 174.986Z" fill="#F8F7F5"/>
<path d="M94.859 173.333L94.4294 173.069C94.1981 172.937 94.11 172.65 94.1981 172.397L97.5135 163.674C97.5685 163.52 97.6897 163.398 97.8439 163.354C97.9981 163.299 98.1633 163.321 98.3065 163.398L98.692 163.63C116.491 174.402 131.173 177.42 151.065 174.424C151.231 174.402 151.396 174.446 151.528 174.567C151.649 174.677 151.715 174.842 151.704 175.019L151.01 183.94C150.988 184.194 150.801 184.392 150.559 184.436C145.845 185.284 141.197 185.714 136.593 185.714C122.34 185.714 108.583 181.605 94.87 173.311L94.859 173.333ZM150.548 175.624C130.788 178.488 116.062 175.393 98.3065 164.687L95.3877 172.353L95.4317 172.375C113.198 183.125 131.03 186.738 149.931 183.434L150.537 175.624H150.548Z" fill="#310758"/>
<defs>
<radialGradient id="paint0_radial_54_962" cx="0" cy="0" r="1" gradientUnits="userSpaceOnUse" gradientTransform="translate(213.751 219.329) scale(150.567)">
<stop stop-color="white" stop-opacity="0.8"/>
<stop offset="0.19" stop-color="#FEF5F5" stop-opacity="0.81"/>
<stop offset="0.45" stop-color="#FCDAD9" stop-opacity="0.86"/>
<stop offset="0.75" stop-color="#E6ACF8" stop-opacity="0.93"/>
<stop offset="1" stop-color="#C97CF5"/>
</radialGradient>
<radialGradient id="paint1_radial_54_962" cx="0" cy="0" r="1" gradientUnits="userSpaceOnUse" gradientTransform="translate(194.045 102.522) rotate(180) scale(17.7552 17.7552)">
<stop stop-color="#FFEBBA"/>
<stop offset="0.49" stop-color="#DD8593"/>
<stop offset="1" stop-color="#DA4C97"/>
</radialGradient>
<radialGradient id="paint2_radial_54_962" cx="0" cy="0" r="1" gradientUnits="userSpaceOnUse" gradientTransform="translate(201.347 89.1284) rotate(180) scale(19.6056 19.6056)">
<stop stop-color="#FFEBBA"/>
<stop offset="0.49" stop-color="#DD8593"/>
<stop offset="1" stop-color="#DA4C97"/>
</radialGradient>
<radialGradient id="paint3_radial_54_962" cx="0" cy="0" r="1" gradientUnits="userSpaceOnUse" gradientTransform="translate(157.202 170.161) rotate(180) scale(19.6387 19.6387)">
<stop stop-color="#FFEBBA"/>
<stop offset="0.49" stop-color="#DD8593"/>
<stop offset="1" stop-color="#DA4C97"/>
</radialGradient>
<radialGradient id="paint4_radial_54_962" cx="0" cy="0" r="1" gradientUnits="userSpaceOnUse" gradientTransform="translate(127.649 348.694) rotate(180) scale(32.8119 32.8119)">
<stop stop-color="#FFEBBA"/>
<stop offset="0.49" stop-color="#DD8593"/>
<stop offset="1" stop-color="#DA4C97"/>
</radialGradient>
<radialGradient id="paint5_radial_54_962" cx="0" cy="0" r="1" gradientUnits="userSpaceOnUse" gradientTransform="translate(216.667 252.417) rotate(180) scale(51.6686 51.6686)">
<stop stop-color="#FFEBBA"/>
<stop offset="0.49" stop-color="#DD8593"/>
<stop offset="1" stop-color="#7A0041"/>
</radialGradient>
<radialGradient id="paint6_radial_54_962" cx="0" cy="0" r="1" gradientUnits="userSpaceOnUse" gradientTransform="translate(193.416 200.638) rotate(180) scale(26.4566 26.4566)">
<stop stop-color="#FFEBBA"/>
<stop offset="0.49" stop-color="#DD8593"/>
<stop offset="1" stop-color="#660036"/>
</radialGradient>
<radialGradient id="paint7_radial_54_962" cx="0" cy="0" r="1" gradientUnits="userSpaceOnUse" gradientTransform="translate(263.743 205.727) rotate(180) scale(20.5419 20.5419)">
<stop stop-color="#FFEBBA"/>
<stop offset="0.49" stop-color="#DD8593"/>
<stop offset="1" stop-color="#DA4C97"/>
</radialGradient>
<radialGradient id="paint8_radial_54_962" cx="0" cy="0" r="1" gradientUnits="userSpaceOnUse" gradientTransform="translate(239.659 232.124) rotate(-6.35) scale(23.0846 26.6361)">
<stop stop-color="#FFEBBA"/>
<stop offset="0.49" stop-color="#DD8593"/>
<stop offset="1" stop-color="#DA4C97"/>
</radialGradient>
<radialGradient id="paint9_radial_54_962" cx="0" cy="0" r="1" gradientUnits="userSpaceOnUse" gradientTransform="translate(247.618 235.587) rotate(180) scale(13.6838 16.2903)">
<stop stop-color="#FFEBBA"/>
<stop offset="0.49" stop-color="#DD8593"/>
<stop offset="1" stop-color="#DA4C97"/>
</radialGradient>
<radialGradient id="paint10_radial_54_962" cx="0" cy="0" r="1" gradientUnits="userSpaceOnUse" gradientTransform="translate(138.454 192.289) rotate(180) scale(9.54949 9.54949)">
<stop stop-color="#FFEBBA"/>
<stop offset="0.49" stop-color="#DD8593"/>
<stop offset="1" stop-color="#DA4C97"/>
</radialGradient>
</defs>
</svg>
