<svg width="112" height="101" viewBox="0 0 112 101" fill="none" xmlns="http://www.w3.org/2000/svg">
<path d="M30.9502 95.0481L34.7219 91.4746" stroke="#974278" stroke-width="2"/>
<path d="M34.7219 91.4746C35.9967 90.286 37.3166 89.0747 38.6817 87.841C38.8659 87.6717 38.99 87.4836 39.0539 87.2729" stroke="#6F2950" stroke-width="2"/>
<path d="M39.054 87.273C39.0991 87.2466 39.1442 87.2316 39.1893 87.2278C39.3097 87.2165 39.415 87.1676 39.5052 87.0849C41.5434 85.2605 43.6868 83.5791 45.9393 82.0406C46.1612 81.8901 46.3417 81.7021 46.4846 81.4764C46.6237 81.262 46.7741 81.0964 46.9321 80.9761" stroke="#C95B88" stroke-width="2"/>
<path d="M46.9321 80.9759C47.2818 80.9797 47.5639 80.9119 47.7857 80.7652C54.1898 76.5222 60.9548 73.3436 68.0733 71.2334" stroke="#D699BF" stroke-width="2"/>
<path d="M68.073 71.2338C68.874 71.0194 69.611 70.8163 70.2841 70.6244C70.3105 70.6169 70.9949 70.4627 72.3411 70.158C73.2474 69.9511 74.0671 69.6239 74.8004 69.1687" stroke="#C95B88" stroke-width="2"/>
<path d="M74.8008 69.1687C74.9136 69.2665 75.158 69.2439 75.5303 69.1047C79.6668 67.5324 83.258 65.5764 86.3077 63.2367C88.4023 61.6267 90.1133 60.0243 91.4332 58.4256C93.5052 55.9166 94.9191 53.0841 95.675 49.9244C95.9344 48.8411 96.1826 47.6223 96.4195 46.2682C96.5512 45.5271 96.4571 44.9215 96.145 44.4551" stroke="#974278" stroke-width="2"/>
<path d="M96.145 44.4548L96.6301 40.9527C96.6527 40.7985 96.7392 40.712 96.8934 40.6857C98.3487 40.4524 99.7626 40.1966 101.139 39.9145C103.876 39.3541 105.862 36.3373 105.399 33.486C104.963 30.8077 104.192 28.0844 101.425 27.159C98.815 26.2901 96.6715 26.8769 94.9981 28.9232C94.9229 29.0172 94.7838 29.0285 94.6898 28.9495C94.6559 28.9232 94.6333 28.8856 94.6221 28.848C93.6782 25.7108 92.6328 22.7467 91.4821 19.9556C91.4671 19.918 91.4407 19.8954 91.4031 19.8916L91.2753 19.8728C91.2452 19.8691 91.2339 19.8804 91.2414 19.9067C91.4708 21.1029 91.5272 22.3028 91.4069 23.5065C91.3918 23.6495 91.3129 23.736 91.1737 23.7661C84.7697 25.1315 78.7906 24.225 73.244 21.0427C71.4991 20.0421 70.1115 18.7556 68.6111 17.5068C68.4682 17.3902 68.3817 17.4203 68.3554 17.6046C67.4454 23.6908 64.6175 28.6448 59.8681 32.4704C59.7967 32.5305 59.7403 32.6058 59.7064 32.6998C59.665 32.8014 59.635 32.8992 59.6086 32.997" stroke="#D47293" stroke-width="2"/>
<path d="M59.6087 32.997C59.5147 32.903 59.417 32.8917 59.3154 32.9669C57.8338 34.069 56.2394 34.9605 54.5359 35.6489C54.4118 35.6978 54.3065 35.6715 54.22 35.5737C51.8134 32.8917 50.5799 29.4837 49.7263 25.9741" stroke="#6F2950" stroke-width="2"/>
<path d="M49.7258 25.9741L49.5679 21.5166" stroke="#974278" stroke-width="2"/>
<path d="M49.5679 21.5168L49.8762 18.2969" stroke="#6F2950" stroke-width="2"/>
<path d="M49.8762 18.2968C49.9778 18.0599 50.1131 17.5596 50.2899 16.796C50.6697 15.1296 51.4932 13.2601 52.7567 11.1837C53.0162 10.7586 53.6066 9.97999 54.5279 8.84399C54.9716 8.29856 55.6485 7.63276 56.5623 6.84659C57.2768 6.22969 57.9536 5.54885 58.5929 4.80029" stroke="#974278" stroke-width="2"/>
<path d="M74.8007 69.1685C74.0298 66.7611 72.9844 64.6884 71.657 62.9543" stroke="#AF5576" stroke-width="2"/>
<path d="M71.657 62.9544C70.386 61.0812 68.7878 59.4411 66.8662 58.0305" stroke="#BB93AD" stroke-width="2"/>
<path d="M66.5505 50.3947C66.9379 50.2216 67.4906 50.1276 68.2089 50.1125" stroke="#AF5576" stroke-width="2"/>
<path d="M96.1448 44.4551C95.3927 47.5659 93.9901 50.2554 91.9406 52.5312C90.1018 54.5662 87.9809 56.2476 85.5742 57.5717C82.9607 59.0124 80.4186 59.3509 77.948 58.5873C75.9324 57.9629 73.7063 56.2213 72.2585 54.7204C71.5402 53.9719 70.1902 52.4334 68.2085 50.1125" stroke="#B96C81" stroke-width="2"/>
<path d="M68.2084 50.1125L68.5205 49.7288C68.5958 49.6385 68.5882 49.5558 68.4942 49.4843C68.4416 49.4429 68.3852 49.4354 68.3212 49.4542C66.881 49.9169 65.4031 50.1087 63.8839 50.0297C63.5831 50.0147 63.4139 49.8567 63.38 49.5558C63.2785 48.7546 63.0942 48.732 62.8235 49.4956C62.7445 49.7251 62.7332 49.9056 62.7896 50.041C62.9777 50.4849 63.4552 50.7369 63.9253 50.6354C64.8692 50.436 65.7416 50.357 66.5501 50.3946" stroke="#EC8591" stroke-width="2"/>
<path d="M66.5505 50.3945C67.3741 52.896 67.4794 55.4388 66.8664 58.0305" stroke="#B96C81" stroke-width="2"/>
<path d="M66.8661 58.0305C66.7947 58.0644 66.7308 58.1772 66.6743 58.3653C66.1216 60.1746 65.3018 61.7771 64.215 63.1726C59.8642 68.7623 52.7871 70.9327 45.8378 69.7516C41.8179 69.0708 37.2527 66.716 34.94 63.1952C34.7182 62.8604 34.4737 62.5482 34.1992 62.2585" stroke="#F8C3C8" stroke-width="2"/>
<path d="M32.627 45.892L32.8939 48.717C32.909 48.8712 33.0444 48.984 33.1985 48.969C33.2173 48.969 33.2361 48.9652 33.2512 48.9577C37.0605 47.8292 39.4033 45.2413 40.2794 41.1938C40.2982 41.111 40.3772 41.0584 40.4637 41.0734C40.4787 41.0734 40.49 41.081 40.5013 41.0885C42.7124 42.217 45.8148 42.0326 47.9883 41.1223C49.4323 40.5167 51.0117 39.7832 51.9857 38.5005C52.0722 38.3914 52.1812 38.35 52.3166 38.3764C54.0351 38.7112 55.701 38.5983 57.3105 38.0454C57.4496 37.9965 57.5286 38.0454 57.5474 38.1958C57.7843 40.3663 58.7846 42.4389 60.5557 44.4175C61.3529 45.3052 62.5224 45.9522 63.5716 46.5352C63.6806 46.5992 63.816 46.5616 63.8799 46.4525C63.8837 46.445 63.8875 46.4374 63.8912 46.4299C64.5719 44.9027 64.9366 43.0821 64.9893 40.9719C65.0156 39.8885 64.0304 38.6811 63.4024 37.8836C62.1238 36.2661 60.6121 34.7464 59.6081 32.9973" stroke="#915359" stroke-width="2"/>
<path d="M39.0541 87.2733C34.5378 84.3619 31.3302 80.3069 29.4312 75.1084" stroke="#873C4E" stroke-width="2"/>
<path d="M49.8766 18.2971C47.6842 18.1804 45.7626 18.7296 44.1118 19.9409C42.5926 21.0505 41.2727 22.3934 40.7838 24.2968C40.6861 24.6842 40.7575 24.7181 40.9982 24.4021C41.675 23.5068 42.5625 22.7132 43.6606 22.0248C45.4806 20.8813 47.4511 20.712 49.5682 21.517" stroke="#54233E" stroke-width="2"/>
<path d="M49.7258 25.9741C49.0226 27.1402 48.3194 27.7646 47.6237 27.8474C41.7951 28.5358 37.463 31.2253 34.6277 35.9197C32.7625 39.0042 32.1909 42.3596 32.6271 45.8917" stroke="#54233E" stroke-width="2"/>
<path d="M32.6275 45.8919C30.499 45.7075 28.9798 46.4222 28.0698 48.0397C27.7314 48.6378 27.5509 49.3262 27.5321 50.1048C27.4982 51.3462 27.6035 52.279 27.8442 52.9034C28.5248 54.6752 29.8936 55.6381 31.9506 55.7886C32.0822 55.7961 32.1536 55.8638 32.1649 55.9955C32.3417 58.3088 33.0223 60.3965 34.1993 62.2585" stroke="#B96C81" stroke-width="2"/>
<path d="M34.1989 62.2583C32.1307 65.008 30.7092 67.9947 29.9346 71.2221" stroke="#BB93AD" stroke-width="2"/>
<path d="M29.935 71.2227L29.4312 75.1084" stroke="#AF5576" stroke-width="2"/>
<path d="M29.4306 75.1084C29.0884 81.2812 30.8521 86.7392 34.7216 91.475" stroke="#54233E" stroke-width="2"/>
<path d="M71.6567 62.9543C71.0249 65.7605 69.8291 68.5215 68.073 71.2336" stroke="#EEACBD" stroke-width="2"/>
<path d="M46.9317 80.9764C44.6567 80.6153 43.16 80.3219 42.4455 80.1C37.3313 78.4976 33.161 75.5372 29.9346 71.2227" stroke="#EEACBD" stroke-width="2"/>
<path d="M72.4695 26.0801C74.6882 25.087 76.967 25.1585 79.3022 26.2907C79.5166 26.396 79.776 26.3058 79.8813 26.0876C79.8889 26.0763 79.8926 26.0613 79.8964 26.05C79.9829 25.813 79.9189 25.6061 79.7083 25.4368C79.1819 25.0118 78.5727 24.7184 77.877 24.5641C74.3272 23.7742 71.4166 24.7485 69.1415 27.4831C68.7316 27.9797 68.3706 28.5966 68.0623 29.3301C68.0059 29.4692 67.9983 29.6084 68.0435 29.7476C68.1036 29.9394 68.2353 30.0523 68.4383 30.0861C68.6113 30.1125 68.7429 30.0523 68.8294 29.9018C69.7131 28.3521 70.766 26.8399 72.4695 26.0801Z" stroke="#915359" stroke-width="2"/>
<path d="M73.6688 36.3073C73.6801 36.4164 73.665 36.5179 73.6162 36.6195C73.2627 37.3568 72.7701 37.9549 72.1421 38.41C72.0932 38.4439 72.0857 38.489 72.1195 38.5417C72.1496 38.5868 72.1872 38.5943 72.2323 38.568C73.1649 38.015 73.9471 37.3116 74.5751 36.4577C74.6428 36.3712 74.7443 36.3223 74.8496 36.3261H75.0263C75.1579 36.3336 75.188 36.3938 75.1203 36.5067L74.2441 37.9925C74.1163 38.2069 74.1539 38.2445 74.3607 38.1016C75 37.6652 75.6167 37.037 76.2071 36.2208C76.4816 35.8446 76.6621 35.886 76.7486 36.3449C76.7975 36.5894 76.7561 36.8226 76.632 37.0408C76.5192 37.2439 76.5643 37.2928 76.7712 37.1837C77.3352 36.8866 77.339 36.2885 77.4932 35.743C77.5308 35.6114 77.6135 35.4985 77.7263 35.4233C78.7153 34.75 79.3583 33.7795 79.6517 32.5194C79.7043 32.2937 79.6629 32.2749 79.5276 32.463C79.2154 32.8993 79.0537 33.4522 78.6965 33.8698C77.2187 35.5888 75.2294 36.1681 72.7287 35.6152C72.4542 35.555 72.3451 35.6641 72.4091 35.9387C72.4542 36.1343 72.379 36.3073 72.1797 36.4615C71.7735 36.7737 71.3862 37.0935 71.0177 37.417C70.841 37.5712 70.8635 37.6126 71.0854 37.5411C71.9841 37.2439 72.7738 36.8038 73.4582 36.2208C73.5109 36.1756 73.5936 36.1794 73.6387 36.2358C73.6575 36.2546 73.665 36.281 73.6688 36.3073Z" stroke="#915359" stroke-width="2"/>
<path d="M79.9149 47.4454C79.8548 51.1468 77.0608 51.5455 74.0336 51.222C73.9584 51.2145 73.887 51.2672 73.8794 51.3461V51.3537V51.4628C73.8682 51.6019 73.9321 51.6847 74.0712 51.7035C77.5684 52.2151 80.2759 51.2784 80.5467 47.2949C80.5542 47.1896 80.4715 47.0993 80.3662 47.0918C80.3512 47.0918 80.3399 47.0918 80.3248 47.0918L80.2195 47.1031C80.0202 47.1294 79.9187 47.246 79.9149 47.4454Z" stroke="#915359" stroke-width="2"/>
<path d="M58.5104 50.2366L59.6611 50.1839C59.9281 50.1726 59.9507 50.0899 59.7363 49.9357L58.9692 49.3902C58.8752 49.3225 58.8451 49.1946 58.8977 49.0931C59.0143 48.8711 59.0519 48.747 59.003 48.7131C59.003 48.7131 59.003 48.7131 58.9993 48.7131C58.9542 48.6868 58.9165 48.6981 58.8902 48.7395C58.4841 49.3677 58.0855 49.9507 57.6982 50.4886C56.9874 51.4629 56.1376 51.6208 55.1486 50.9663C54.6071 50.609 54.137 49.9281 53.7384 48.92C53.7384 48.9163 53.7309 48.9125 53.7271 48.9125L53.6369 48.9426C53.5617 48.9689 53.5354 49.0178 53.5617 49.0893C54.0393 50.545 54.8929 52.0647 56.6415 51.8954C56.8145 51.8766 56.9762 51.9707 57.0514 52.1249C57.1228 52.2678 57.2244 52.3844 57.356 52.4785C57.5327 52.6026 57.6154 52.5575 57.6004 52.3393C57.5703 51.9895 57.6004 51.6547 57.6794 51.335C57.717 51.1958 57.8072 51.1431 57.9464 51.1807L58.6984 51.3876C59.1083 51.5005 59.1647 51.4027 58.8752 51.0905L58.3788 50.5601C58.3074 50.4811 58.3149 50.3607 58.3939 50.2892C58.4277 50.2591 58.4691 50.2441 58.5104 50.2403" stroke="#915359" stroke-width="2"/>
<path d="M42.0134 50.5038L41.69 51.3313C41.5359 51.7188 41.6261 51.7865 41.957 51.5307C42.1112 51.4103 42.2842 51.32 42.476 51.2636C42.6414 51.2109 42.8182 51.305 42.8708 51.4705C42.8934 51.5382 42.8896 51.6134 42.8633 51.6811C42.7542 51.9557 42.6978 52.2491 42.6941 52.5576C42.6941 52.7457 42.7655 52.7795 42.9122 52.6629C43.0588 52.5463 43.1717 52.4034 43.2581 52.2341C43.2995 52.1438 43.371 52.1024 43.4687 52.1137C43.5627 52.125 43.6455 52.1589 43.7169 52.2228C44.2509 52.7231 45.1308 52.5275 45.6385 52.0949C46.447 51.4066 47.0111 50.4737 47.3269 49.2963C47.342 49.2474 47.3269 49.2135 47.2743 49.1985L47.169 49.1609C47.169 49.1609 47.1464 49.1609 47.1389 49.1722C46.6877 50.3307 46.0747 51.1508 45.3038 51.636C43.9049 52.5087 42.4873 50.4511 41.9157 49.443C41.863 49.3452 41.7427 49.3113 41.6449 49.364C41.6111 49.3828 41.5848 49.4092 41.5659 49.443C41.3516 49.838 41.1072 50.2292 40.8402 50.6241C40.8139 50.6655 40.8063 50.7107 40.8251 50.7558C40.8289 50.7746 40.8402 50.7859 40.8552 50.7934C40.9154 50.8197 40.9718 50.816 41.0282 50.7784C41.2877 50.5941 41.5547 50.4436 41.8292 50.327C42.0322 50.2405 42.0924 50.2969 42.0134 50.5038Z" stroke="#915359" stroke-width="2"/>
<path d="M49.0303 58.3766C48.4512 58.1095 47.9059 57.5377 47.3907 56.6613C47.3456 56.5898 47.2516 56.5635 47.1802 56.6086C47.1651 56.6161 47.1538 56.6274 47.1426 56.6425L47.0749 56.7252C46.9583 56.8644 46.9508 57.0111 47.0448 57.1653C48.2444 59.0574 49.7786 59.5426 51.6438 58.6286C52.4523 58.2336 53.1593 57.4587 53.8173 56.8381C54.0091 56.6575 53.9865 56.5146 53.7572 56.4092C53.618 56.3453 53.4526 56.3791 53.351 56.492C52.2492 57.7032 50.6924 59.1364 49.0303 58.3766Z" stroke="#915359" stroke-width="2"/>
<path d="M30.9497 95.0483L34.7214 91.4747C35.9962 90.2861 37.3161 89.0749 38.6812 87.8411C38.8654 87.6718 38.9895 87.4837 39.0534 87.2731C39.0986 87.2467 39.1437 87.2317 39.1888 87.2279C39.3092 87.2166 39.4144 87.1677 39.5047 87.085C41.5429 85.2606 43.6863 83.5792 45.9388 82.0407C46.1607 81.8902 46.3412 81.7022 46.4841 81.4765C46.6232 81.2621 46.7736 81.0966 46.9316 80.9762C47.2813 80.9799 47.5633 80.9122 47.7852 80.7655C54.1892 76.5225 60.9542 73.3439 68.0727 71.2337C68.8737 71.0193 69.6108 70.8162 70.2839 70.6243C70.3102 70.6168 70.9946 70.4626 72.3408 70.1579C73.2471 69.951 74.0669 69.6237 74.8002 69.1686C74.913 69.2664 75.1574 69.2438 75.5297 69.1046C79.6662 67.5323 83.2574 65.5763 86.3071 63.2366C88.4016 61.6266 90.1126 60.0242 91.4326 58.4255C93.5046 55.9165 94.9185 53.0841 95.6743 49.9243C95.9338 48.841 96.182 47.6222 96.4189 46.2681C96.5505 45.527 96.4565 44.9214 96.1444 44.455L96.6295 40.953C96.652 40.7987 96.7385 40.7122 96.8927 40.6859C98.348 40.4527 99.7619 40.1969 101.138 39.9148C103.876 39.3543 105.861 36.3375 105.399 33.4862C104.963 30.808 104.192 28.0846 101.424 27.1592C98.8143 26.2903 96.6708 26.8771 94.9974 28.9234C94.9222 29.0175 94.7831 29.0288 94.6891 28.9498C94.6553 28.9234 94.6327 28.8858 94.6214 28.8482C93.6775 25.711 92.6321 22.7469 91.4814 19.9558C91.4664 19.9182 91.4401 19.8956 91.4025 19.8919L91.2746 19.8731C91.2445 19.8693 91.2333 19.8806 91.2408 19.9069C91.4702 21.1031 91.5266 22.3031 91.4062 23.5068C91.3912 23.6497 91.3122 23.7362 91.1731 23.7663C84.7691 25.1318 78.79 24.2252 73.2433 21.0429C71.4985 20.0423 70.1109 18.7559 68.6105 17.507C68.4676 17.3904 68.3811 17.4205 68.3548 17.6048C67.4447 23.6911 64.6169 28.6451 59.8675 32.4706C59.796 32.5308 59.7396 32.606 59.7058 32.7001C59.6644 32.8016 59.6343 32.8994 59.608 32.9972C59.514 32.9032 59.4162 32.8919 59.3147 32.9671C57.8331 34.0693 56.2386 34.9608 54.5352 35.6491C54.4111 35.698 54.3058 35.6717 54.2193 35.5739C51.8126 32.8919 50.5792 29.4839 49.7256 25.9744L49.5676 21.5169L49.876 18.297C49.9775 18.06 50.1129 17.5597 50.2896 16.7961C50.6694 15.1297 51.493 13.2602 52.7565 11.1838C53.0159 10.7588 53.6063 9.98011 54.5276 8.84412C54.9714 8.29869 55.6482 7.63289 56.562 6.84672C57.2765 6.22982 57.9534 5.54897 58.5927 4.80042C59.2357 4.59729 60.3789 4.10076 62.0147 3.30707C63.9513 2.37044 66.4821 1.80244 69.5995 1.59931C70.423 1.54665 71.2616 1.40747 72.1152 1.18554C75.1912 0.376799 77.8988 -0.0181667 80.2377 0.000641178C84.2125 0.0344954 87.9429 0.974891 91.4288 2.82559C92.7976 3.55157 94.1514 4.47692 95.4901 5.60916C96.7273 6.65111 97.8817 7.82097 98.9497 9.12247C100.401 10.8867 101.65 12.5756 102.691 14.1893C103.372 15.2463 104.045 16.3598 104.707 17.5258C105.376 18.7107 105.97 19.8655 106.489 20.9903C107.414 23.0102 107.997 24.3493 108.238 25.0114C112.935 37.9512 113.033 50.861 108.528 63.7406C106.305 70.0902 102.83 76.0372 98.1036 81.5818C97.5508 82.2326 97.0018 82.8156 96.4603 83.3347C95.6668 84.0908 95.0802 84.9672 94.219 85.6255C93.136 86.453 92.2298 87.4649 91.1468 88.3301C87.4427 91.2904 83.5319 93.7355 79.418 95.6727C78.1018 96.2933 76.4924 96.9479 74.5933 97.6362C72.7996 98.2832 71.1563 98.7873 69.6559 99.1521C59.6306 101.582 49.5977 101.379 39.5573 98.5428C39.076 98.4073 38.5119 98.2042 37.8614 97.9296C37.2898 97.6889 36.722 97.4782 36.1542 97.2939C34.4055 96.7259 32.6682 95.9774 30.9497 95.0483Z" fill="#B1488A"/>
<path d="M58.5927 4.80029C57.9534 5.54885 57.2765 6.22969 56.5621 6.84659C55.6483 7.63276 54.9714 8.29856 54.5277 8.84399C53.6064 9.97999 53.016 10.7586 52.7565 11.1837C51.493 13.2601 50.6695 15.1296 50.2896 16.796C50.1129 17.5596 49.9775 18.0599 49.876 18.2968C47.6837 18.1802 45.7621 18.7294 44.1112 19.9407C42.592 21.0503 41.2721 22.3932 40.7833 24.2966C40.6855 24.684 40.7569 24.7179 40.9976 24.4019C41.6745 23.5066 42.562 22.7129 43.66 22.0246C45.48 20.881 47.4505 20.7118 49.5676 21.5168L49.7256 25.9742C49.0224 27.1403 48.3192 27.7647 47.6235 27.8475C41.7948 28.5359 37.4628 31.2254 34.6274 35.9198C32.7623 39.0043 32.1907 42.3597 32.6269 45.8918C30.4985 45.7075 28.9793 46.4222 28.0692 48.0397C27.7308 48.6377 27.5503 49.3261 27.5315 50.1048C27.4976 51.3461 27.6029 52.279 27.8436 52.9034C28.5242 54.6751 29.893 55.638 31.95 55.7885C32.0816 55.796 32.1531 55.8637 32.1643 55.9954C32.3411 58.3088 33.0217 60.3964 34.1987 62.2584C32.1305 65.0081 30.7091 67.9948 29.9344 71.2223L29.4305 75.108C29.0883 81.2807 30.852 86.7388 34.7214 91.4746L30.9497 95.0481C30.0435 94.608 29.1109 94.1265 28.1557 93.6112C27.1705 93.0771 26.3131 92.4113 25.3392 91.8583C24.9593 91.6401 24.5871 91.4032 24.2185 91.1436C20.8229 88.7625 17.713 86.0993 14.8889 83.1578C14.4038 82.65 13.9638 82.1384 13.569 81.623C13.0087 80.8858 12.3318 80.2877 11.779 79.5504C10.3049 77.5756 8.79323 75.6497 7.66134 73.5131C7.1048 72.4636 6.40159 71.5495 5.8977 70.4436C5.03279 68.5516 4.02876 66.6106 3.35564 64.7335C1.65216 59.9864 0.320969 55.1302 0.00133227 50.1048C-0.00994904 49.9054 0.0502179 49.7324 0.189354 49.5857C0.493949 49.2622 0.787262 49.2659 1.07682 49.597C1.83266 50.4659 2.54339 51.3047 3.20146 52.1172C3.69784 52.7341 4.37096 53.1291 4.99895 53.5993C6.40911 54.6563 8.29309 55.2393 10.1056 54.9271C14.0541 54.2425 17.006 53.0726 20.4167 50.8533C21.0861 50.4207 21.6802 49.9618 22.2029 49.4766C22.9626 48.7732 23.8275 48.2315 24.5645 47.4641C25.2414 46.7607 25.8769 46.0912 26.471 45.4517C28.1068 43.695 29.8592 41.4042 31.7357 38.5793C33.5895 35.7807 35.56 32.4667 37.6433 28.6337C38.1735 27.6519 38.7301 26.6626 39.3054 25.662C40.4147 23.7248 41.4413 21.7349 42.6334 19.8429C43.5096 18.4473 44.3444 16.9352 45.4048 15.6675C46.2434 14.6669 46.83 13.5949 47.8416 12.7147C48.5636 12.0865 49.0525 11.3379 49.8121 10.6985C50.7785 9.88219 51.7487 9.06216 52.7302 8.23085C53.9298 7.21147 55.8852 6.06795 58.5927 4.80029Z" fill="#7C3B66"/>
<path d="M96.1447 44.4548C95.3927 47.5656 93.99 50.2551 91.9406 52.5309C90.1017 54.5659 87.9808 56.2473 85.5741 57.5714C82.9606 59.0121 80.4186 59.3506 77.948 58.587C75.9324 57.9626 73.7062 56.221 72.2584 54.7201C71.5402 53.9716 70.1902 52.4331 68.2085 50.1122L68.5206 49.7285C68.5958 49.6382 68.5883 49.5555 68.4943 49.484C68.4416 49.4426 68.3852 49.4351 68.3213 49.4539C66.881 49.9166 65.4032 50.1084 63.884 50.0294C63.5831 50.0144 63.4139 49.8564 63.3801 49.5555C63.2785 48.7542 63.0943 48.7317 62.8235 49.4953C62.7445 49.7247 62.7333 49.9053 62.7897 50.0407C62.9777 50.4846 63.4553 50.7366 63.9253 50.635C64.8692 50.4357 65.7416 50.3567 66.5501 50.3943C67.3736 52.8957 67.4789 55.4386 66.866 58.0303C66.7945 58.0642 66.7306 58.177 66.6742 58.3651C66.1214 60.1744 65.3016 61.7768 64.2149 63.1724C59.864 68.7621 52.7869 70.9325 45.8376 69.7514C41.8177 69.0705 37.2525 66.7158 34.9399 63.1949C34.718 62.8602 34.4736 62.548 34.1991 62.2583C33.0221 60.3963 32.3414 58.3087 32.1647 55.9953C32.1534 55.8636 32.0819 55.7959 31.9503 55.7884C29.8934 55.6379 28.5246 54.675 27.8439 52.9033C27.6033 52.2788 27.498 51.346 27.5318 50.1046C27.5506 49.326 27.7311 48.6376 28.0696 48.0395C28.9796 46.4221 30.4988 45.7074 32.6272 45.8917L32.8942 48.7166C32.9092 48.8708 33.0446 48.9837 33.1988 48.9686C33.2176 48.9686 33.2364 48.9649 33.2514 48.9574C37.0608 47.8289 39.4035 45.2409 40.2797 41.1935C40.2985 41.1107 40.3775 41.058 40.464 41.0731C40.479 41.0731 40.4903 41.0806 40.5016 41.0881C42.7127 42.2166 45.8151 42.0323 47.9886 41.122C49.4326 40.5164 51.012 39.7829 51.9859 38.5002C52.0724 38.3911 52.1815 38.3497 52.3169 38.376C54.0354 38.7108 55.7012 38.598 57.3107 38.045C57.4498 37.9961 57.5288 38.045 57.5476 38.1955C57.7845 40.3659 58.7848 42.4385 60.556 44.4171C61.3532 45.3049 62.5227 45.9519 63.5718 46.5349C63.6809 46.5989 63.8163 46.5612 63.8802 46.4522C63.884 46.4446 63.8877 46.4371 63.8915 46.4296C64.5721 44.9024 64.9369 43.0818 64.9895 40.9715C65.0158 39.8882 64.0306 38.6807 63.4026 37.8833C62.1241 36.2658 60.6124 34.7461 59.6083 32.997C59.6347 32.8992 59.6647 32.8014 59.7061 32.6998C59.74 32.6058 59.7964 32.5305 59.8678 32.4704C64.6172 28.6448 67.4451 23.6908 68.3551 17.6046C68.3814 17.4203 68.4679 17.3902 68.6108 17.5068C70.1112 18.7556 71.4988 20.0421 73.2437 21.0427C78.7903 24.225 84.7694 25.1315 91.1734 23.7661C91.3126 23.736 91.3915 23.6495 91.4066 23.5065C91.5269 22.3028 91.4705 21.1029 91.2411 19.9067C91.2336 19.8804 91.2449 19.8691 91.275 19.8728L91.4028 19.8916C91.4404 19.8954 91.4668 19.918 91.4818 19.9556C92.6325 22.7467 93.6779 25.7108 94.6218 28.848C94.6556 28.9646 94.7797 29.0285 94.8963 28.9909C94.9376 28.9796 94.9715 28.9533 94.9978 28.9232C96.6712 26.8769 98.8147 26.2901 101.424 27.159C104.192 28.0844 104.963 30.8077 105.399 33.486C105.862 36.3373 103.876 39.3541 101.139 39.9145C99.7623 40.1966 98.3484 40.4524 96.8931 40.6857C96.7389 40.712 96.6524 40.7985 96.6298 40.9527L96.1447 44.4548ZM72.469 26.0794C74.6877 25.0864 76.9665 25.1578 79.3017 26.2901C79.5161 26.3954 79.7756 26.3051 79.8809 26.087C79.8884 26.0757 79.8921 26.0606 79.8959 26.0493C79.9824 25.8124 79.9185 25.6055 79.7079 25.4362C79.1814 25.0111 78.5722 24.7177 77.8765 24.5635C74.3267 23.7736 71.4161 24.7478 69.141 27.4825C68.7312 27.979 68.3702 28.5959 68.0618 29.3294C68.0054 29.4686 67.9979 29.6078 68.043 29.747C68.1032 29.9388 68.2348 30.0517 68.4378 30.0855C68.6108 30.1119 68.7424 30.0517 68.8289 29.9012C69.7126 28.3514 70.7656 26.8393 72.469 26.0794ZM73.6686 36.3072C73.6799 36.4163 73.6648 36.5178 73.616 36.6194C73.2625 37.3567 72.7699 37.9547 72.1419 38.4099C72.093 38.4438 72.0855 38.4889 72.1193 38.5416C72.1494 38.5867 72.187 38.5942 72.2321 38.5679C73.1647 38.0149 73.9469 37.3115 74.5749 36.4576C74.6426 36.3711 74.7441 36.3222 74.8494 36.326H75.0261C75.1577 36.3335 75.1878 36.3937 75.1201 36.5065L74.244 37.9924C74.1161 38.2068 74.1537 38.2444 74.3605 38.1014C74.9998 37.6651 75.6165 37.0369 76.2069 36.2207C76.4814 35.8445 76.6619 35.8859 76.7484 36.3448C76.7973 36.5893 76.7559 36.8225 76.6318 37.0407C76.519 37.2438 76.5641 37.2927 76.771 37.1836C77.335 36.8865 77.3388 36.2884 77.493 35.7429C77.5306 35.6113 77.6133 35.4984 77.7261 35.4232C78.7151 34.7499 79.3582 33.7794 79.6515 32.5193C79.7041 32.2936 79.6627 32.2748 79.5274 32.4628C79.2153 32.8992 79.0536 33.4521 78.6963 33.8697C77.2185 35.5887 75.2292 36.168 72.7285 35.615C72.454 35.5549 72.3449 35.6639 72.4089 35.9385C72.454 36.1341 72.3788 36.3072 72.1795 36.4614C71.7733 36.7736 71.386 37.0933 71.0175 37.4168C70.8408 37.5711 70.8633 37.6124 71.0852 37.541C71.9839 37.2438 72.7736 36.8037 73.458 36.2207C73.5107 36.1755 73.5934 36.1793 73.6385 36.2357C73.6573 36.2545 73.6648 36.2808 73.6686 36.3072ZM79.9147 47.4452C79.8545 51.1466 77.0605 51.5453 74.0334 51.2218C73.9582 51.2143 73.8867 51.267 73.8792 51.346V51.3535V51.4626C73.8679 51.6018 73.9318 51.6845 74.071 51.7033C77.5682 52.2149 80.2757 51.2783 80.5464 47.2948C80.554 47.1894 80.4712 47.0991 80.3659 47.0916C80.3509 47.0916 80.3396 47.0916 80.3246 47.0916L80.2193 47.1029C80.02 47.1292 79.9185 47.2458 79.9147 47.4452ZM58.5103 50.2363L59.661 50.1836C59.928 50.1724 59.9505 50.0896 59.7362 49.9354L58.9691 49.3899C58.8751 49.3222 58.845 49.1943 58.8976 49.0928C59.0142 48.8708 59.0518 48.7467 59.0029 48.7129C59.0029 48.7129 59.0029 48.7129 58.9991 48.7129C58.954 48.6865 58.9164 48.6978 58.8901 48.7392C58.484 49.3674 58.0854 49.9504 57.698 50.4883C56.9873 51.4626 56.1375 51.6206 55.1485 50.9661C54.607 50.6087 54.1369 49.9279 53.7383 48.9198C53.7383 48.916 53.7308 48.9122 53.727 48.9122L53.6368 48.9423C53.5616 48.9687 53.5352 49.0176 53.5616 49.089C54.0391 50.5448 54.8928 52.0644 56.6414 51.8952C56.8143 51.8764 56.976 51.9704 57.0512 52.1246C57.1227 52.2676 57.2242 52.3842 57.3558 52.4782C57.5326 52.6023 57.6153 52.5572 57.6003 52.339C57.5702 51.9892 57.6003 51.6544 57.6792 51.3347C57.7168 51.1955 57.8071 51.1428 57.9462 51.1805L58.6983 51.3873C59.1082 51.5002 59.1646 51.4024 58.8751 51.0902L58.3787 50.5598C58.3072 50.4808 58.3148 50.3604 58.3937 50.289C58.4276 50.2589 58.4689 50.2438 58.5103 50.2401V50.2363ZM42.0133 50.5034L41.6899 51.3309C41.5357 51.7184 41.6259 51.7861 41.9569 51.5303C42.111 51.4099 42.284 51.3196 42.4758 51.2632C42.6413 51.2106 42.818 51.3046 42.8706 51.4701C42.8932 51.5378 42.8894 51.613 42.8631 51.6808C42.7541 51.9553 42.6977 52.2488 42.6939 52.5572C42.6939 52.7453 42.7653 52.7791 42.912 52.6625C43.0587 52.5459 43.1715 52.403 43.258 52.2337C43.2993 52.1434 43.3708 52.102 43.4685 52.1133C43.5626 52.1246 43.6453 52.1585 43.7167 52.2224C44.2507 52.7227 45.1307 52.5271 45.6383 52.0945C46.4468 51.4062 47.0109 50.4733 47.3268 49.2959C47.3418 49.247 47.3268 49.2132 47.2741 49.1981L47.1688 49.1605C47.1688 49.1605 47.1463 49.1605 47.1387 49.1718C46.6875 50.3303 46.0745 51.1504 45.3036 51.6356C43.9048 52.5083 42.4871 50.4507 41.9155 49.4426C41.8628 49.3448 41.7425 49.311 41.6447 49.3636C41.6109 49.3824 41.5846 49.4088 41.5658 49.4426C41.3514 49.8376 41.107 50.2288 40.84 50.6237C40.8137 50.6651 40.8062 50.7103 40.825 50.7554C40.8287 50.7742 40.84 50.7855 40.855 50.793C40.9152 50.8194 40.9716 50.8156 41.028 50.778C41.2875 50.5937 41.5545 50.4432 41.829 50.3266C42.0321 50.2401 42.0922 50.2965 42.0133 50.5034ZM49.0302 58.3764C48.4511 58.1093 47.9059 57.5375 47.3907 56.6611C47.3456 56.5896 47.2515 56.5633 47.1801 56.6084C47.1651 56.6159 47.1538 56.6272 47.1425 56.6423L47.0748 56.725C46.9582 56.8642 46.9507 57.0109 47.0447 57.1651C48.2443 59.0572 49.7786 59.5425 51.6437 58.6284C52.4522 58.2334 53.1592 57.4585 53.8173 56.8379C54.0091 56.6573 53.9865 56.5144 53.7571 56.4091C53.618 56.3451 53.4525 56.379 53.351 56.4918C52.2492 57.703 50.6923 59.1362 49.0302 58.3764Z" fill="#F69C9C"/>
<path d="M49.7256 25.9741C50.5792 29.4837 51.8126 32.8917 54.2193 35.5737C54.3058 35.6715 54.4111 35.6978 54.5352 35.6489C56.2387 34.9605 57.8331 34.069 59.3147 32.9669C59.4162 32.8917 59.514 32.903 59.608 32.997C60.612 34.7461 62.1237 36.2658 63.4023 37.8833C64.0303 38.6807 65.0155 39.8882 64.9892 40.9715C64.9365 43.0818 64.5718 44.9024 63.8911 46.4296C63.8423 46.5424 63.7069 46.5951 63.5941 46.5462C63.5865 46.5462 63.579 46.5387 63.5715 46.5349C62.5223 45.9519 61.3528 45.3049 60.5556 44.4172C58.7845 42.4386 57.7842 40.3659 57.5473 38.1955C57.5285 38.0488 57.4495 37.9961 57.3104 38.045C55.7009 38.598 54.035 38.7108 52.3165 38.376C52.1811 38.3497 52.0721 38.3911 51.9856 38.5002C51.0116 39.7829 49.4323 40.5164 47.9883 41.122C45.8147 42.0323 42.7124 42.2166 40.5012 41.0882C40.426 41.0505 40.332 41.0769 40.2944 41.1559C40.2869 41.1671 40.2831 41.1822 40.2794 41.1935C39.4032 45.2409 37.0604 47.8289 33.2511 48.9574C33.1044 49.0025 32.9503 48.9198 32.9051 48.7693C32.9014 48.7505 32.8976 48.7317 32.8939 48.7166L32.6269 45.8917C32.1907 42.3596 32.7622 39.0042 34.6274 35.9197C37.4628 31.2253 41.7948 28.5358 47.6235 27.8474C48.3192 27.7646 49.0224 27.1402 49.7256 25.9741Z" fill="#2C0A15"/>
<path d="M74.8004 69.1684C74.0296 66.761 72.9841 64.6884 71.6567 62.9543C70.3857 61.081 68.7875 59.441 66.8659 58.0304C67.4789 55.4387 67.3736 52.8958 66.55 50.3944C66.9374 50.2213 67.4902 50.1273 68.2084 50.1123C70.1901 52.4331 71.5401 53.9716 72.2584 54.7202C73.7062 56.2211 75.9323 57.9627 77.9479 58.5871C80.4185 59.3507 82.9606 59.0122 85.5741 57.5715C87.9808 56.2474 90.1017 54.566 91.9405 52.5309C93.99 50.2552 95.3926 47.5657 96.1447 44.4548C96.4568 44.9213 96.5508 45.5269 96.4192 46.2679C96.1823 47.6221 95.9341 48.8408 95.6746 49.9242C94.9188 53.0839 93.5049 55.9164 91.4329 58.4253C90.1129 60.024 88.4019 61.6264 86.3074 63.2364C83.2577 65.5761 79.6664 67.5321 75.53 69.1045C75.1577 69.2437 74.9133 69.2662 74.8004 69.1684Z" fill="#7C3B66"/>
<path d="M79.9144 47.4453C79.9181 47.246 80.0197 47.1294 80.219 47.103L80.3243 47.0918C80.4295 47.0767 80.5311 47.1519 80.5461 47.2535C80.5461 47.2648 80.5461 47.2798 80.5461 47.2949C80.2754 51.2784 77.5679 52.215 74.0706 51.7035C73.9315 51.6847 73.8676 51.6019 73.8751 51.4627V51.3536C73.8826 51.2784 73.9466 51.2182 74.0255 51.222H74.033C77.0602 51.5455 79.8542 51.1467 79.9144 47.4453Z" fill="#2C0A15"/>
<path d="M58.5099 50.2364C58.4046 50.244 58.3219 50.3342 58.3294 50.4396C58.3294 50.4847 58.3482 50.5261 58.3783 50.5562L58.8747 51.0865C59.1643 51.3988 59.1078 51.4966 58.698 51.3837L57.9459 51.1768C57.8067 51.1392 57.7165 51.1919 57.6789 51.3311C57.5961 51.6508 57.5698 51.9856 57.5999 52.3354C57.615 52.5536 57.5322 52.5987 57.3555 52.4746C57.2239 52.3805 57.1223 52.2639 57.0509 52.121C56.9757 51.9668 56.814 51.8727 56.641 51.8915C54.8924 52.0608 54.0388 50.5411 53.5612 49.0854C53.5349 49.0139 53.5612 48.965 53.6364 48.9387L53.7267 48.9086C53.7267 48.9086 53.7342 48.9086 53.7379 48.9161C54.1365 49.9242 54.6066 50.6051 55.1481 50.9624C56.1371 51.6169 56.987 51.4589 57.6977 50.4847C58.085 49.9468 58.4836 49.3637 58.8897 48.7356C58.9161 48.6942 58.9537 48.6829 58.9988 48.7092H59.0026C59.0514 48.7431 59.0138 48.8672 58.8973 49.0892C58.8446 49.1907 58.8747 49.3186 58.9687 49.3863L59.7358 49.9317C59.9502 50.086 59.9276 50.1687 59.6606 50.18L58.5099 50.2327V50.2364Z" fill="#2C0A15"/>
<path d="M68.2079 50.1125C67.4897 50.1275 66.9369 50.2216 66.5496 50.3946C65.7411 50.357 64.8687 50.436 63.9248 50.6354C63.4548 50.7369 62.9772 50.4849 62.7892 50.041C62.7328 49.9056 62.744 49.7251 62.823 49.4956C63.0938 48.732 63.278 48.7546 63.3795 49.5558C63.4134 49.8567 63.5826 50.0147 63.8834 50.0297C65.4027 50.1087 66.8805 49.9169 68.3208 49.4542C68.3847 49.4354 68.4411 49.4429 68.4937 49.4843C68.5878 49.5558 68.5953 49.6385 68.5201 49.7288L68.2079 50.1125Z" fill="#E16E86"/>
<path d="M41.8287 50.3269C41.5542 50.4435 41.2872 50.594 41.0277 50.7783C40.9713 50.8159 40.9149 50.8197 40.8547 50.7934C40.8397 50.7858 40.8284 50.7745 40.8247 50.7557C40.8059 50.7106 40.8134 50.6655 40.8397 50.6241C41.1067 50.2291 41.3511 49.8379 41.5655 49.443C41.6181 49.3452 41.7384 49.3113 41.8362 49.364C41.8701 49.3828 41.8964 49.4091 41.9152 49.443C42.4868 50.4511 43.9045 52.5086 45.3033 51.636C46.0742 51.1507 46.6872 50.3307 47.1384 49.1721C47.1459 49.1608 47.1572 49.1571 47.1685 49.1608L47.2738 49.1984C47.3227 49.2135 47.3415 49.2474 47.3264 49.2963C47.0106 50.4736 46.4465 51.4065 45.638 52.0949C45.1304 52.5275 44.2504 52.7231 43.7164 52.2228C43.645 52.1588 43.5623 52.125 43.4682 52.1137C43.3705 52.1024 43.299 52.1438 43.2577 52.234C43.1712 52.4033 43.0584 52.5463 42.9117 52.6629C42.765 52.7795 42.6898 52.7456 42.6936 52.5575C42.6974 52.2491 42.7538 51.9557 42.8628 51.6811C42.9267 51.5193 42.8478 51.335 42.6861 51.2711C42.6184 51.2448 42.5469 51.241 42.4755 51.2636C42.2837 51.32 42.1107 51.4103 41.9565 51.5306C41.6256 51.7864 41.5354 51.7187 41.6896 51.3313L42.013 50.5037C42.0919 50.2968 42.0318 50.2404 41.8287 50.3269Z" fill="#2C0A15"/>
<path d="M49.0298 58.3766C50.6919 59.1364 52.2487 57.7032 53.3505 56.492C53.4521 56.3791 53.6175 56.3453 53.7567 56.4092C53.9861 56.5146 54.0086 56.6575 53.8168 56.8381C53.1588 57.4587 52.4518 58.2336 51.6433 58.6286C49.7781 59.5426 48.2439 59.0574 47.0443 57.1653C46.9503 57.0111 46.9578 56.8644 47.0744 56.7252L47.1421 56.6425C47.1947 56.5785 47.2887 56.5672 47.3564 56.6237C47.3715 56.6349 47.3827 56.65 47.3903 56.6613C47.9054 57.5377 48.4507 58.1095 49.0298 58.3766Z" fill="#2C0A15"/>
<path d="M66.8656 58.0305C68.7872 59.4411 70.3853 61.0812 71.6564 62.9544C71.0246 65.7606 69.8288 68.5216 68.0727 71.2337C60.9542 73.3439 54.1891 76.5224 47.7851 80.7655C47.5633 80.9122 47.2812 80.9799 46.9315 80.9762C44.6564 80.615 43.1598 80.3216 42.4453 80.0997C37.3311 78.4973 33.1608 75.5369 29.9343 71.2224C30.709 67.9949 32.1304 65.0082 34.1987 62.2585C34.4732 62.5482 34.7176 62.8604 34.9395 63.1952C37.2521 66.716 41.8173 69.0708 45.8372 69.7516C52.7865 70.9327 59.8636 68.7623 64.2145 63.1726C65.3012 61.7771 66.121 60.1746 66.6738 58.3653C66.7302 58.1772 66.7941 58.0644 66.8656 58.0305Z" fill="#FAEAF4"/>
<path d="M71.6562 62.9543C72.9836 64.6884 74.029 66.7611 74.7999 69.1685C74.0666 69.6236 73.2469 69.9509 72.3406 70.1578C70.9944 70.4625 70.31 70.6167 70.2836 70.6242C69.6105 70.816 68.8735 71.0192 68.0725 71.2336C69.8286 68.5215 71.0245 65.7605 71.6562 62.9543Z" fill="#E16E86"/>
<path d="M29.9343 71.2222C33.1608 75.5367 37.3311 78.4971 42.4453 80.0995C43.1598 80.3214 44.6564 80.6148 46.9315 80.9759C46.7735 81.0963 46.6231 81.2618 46.484 81.4762C46.3411 81.7019 46.1606 81.89 45.9387 82.0405C43.6862 83.579 41.5428 85.2604 39.5046 87.0848C39.4144 87.1675 39.3091 87.2164 39.1887 87.2277C39.1436 87.2315 39.0985 87.2465 39.0534 87.2728C34.5371 84.3614 31.3294 80.3064 29.4304 75.1079L29.9343 71.2222Z" fill="#E16E86"/>
<path d="M29.4306 75.1079C31.3296 80.3064 34.5373 84.3614 39.0536 87.2729C38.9896 87.4835 38.8656 87.6716 38.6813 87.8409C37.3163 89.0747 35.9963 90.2859 34.7216 91.4745C30.8521 86.7387 29.0884 81.2807 29.4306 75.1079Z" fill="#2C0A15"/>
</svg>
