<svg width="30" height="29" viewBox="0 0 30 29" fill="none" xmlns="http://www.w3.org/2000/svg">
<path d="M6.39063 8.83008V29H0.0947268V8.83008H6.39063ZM16.2754 11.5361C18.8887 6.65521 30 6.28495 30 16.2246V29H23.7832V18.416C23.7832 11.9719 16.2754 12.5197 16.2754 18.416V29H10.0732V8.83008H16.3379L16.2754 11.5361ZM3.14941 3.47096e-07C3.9843 0.000427617 4.78494 0.34076 5.375 0.945313C5.96491 1.54984 6.29631 2.36921 6.2959 3.22363C6.29548 4.07817 5.9637 4.89801 5.37305 5.50195C4.78243 6.10582 3.98129 6.44474 3.14648 6.44434C2.3116 6.44391 1.51096 6.10358 0.920899 5.49902C0.330967 4.89455 -0.000347244 4.07509 2.73109e-07 3.2207C0.000417709 2.36618 0.332225 1.54633 0.922852 0.942383C1.51348 0.338463 2.31457 -0.000395883 3.14941 3.47096e-07Z" fill="white"/>
</svg>
