<svg width="191" height="61" viewBox="0 0 191 61" fill="none" xmlns="http://www.w3.org/2000/svg">
<path d="M158.932 0H149.873C149.686 0 149.535 0.1512 149.535 0.337705V45.9724C149.535 46.1589 149.686 46.3101 149.873 46.3101H158.932C159.119 46.3101 159.27 46.1589 159.27 45.9724V0.337705C159.27 0.1512 159.119 0 158.932 0Z" fill="#B1488A"/>
<path d="M171.262 46.1135C168.718 45.3423 166.218 43.9159 163.775 41.8393C163.472 41.5823 163.462 41.3101 163.744 41.0329L168.733 36.043C168.859 35.917 168.99 35.912 169.121 36.038C172.003 38.7698 175.308 39.8132 179.042 39.168C179.581 39.0722 180.009 38.8706 180.327 38.5531C181.138 37.7466 181.022 36.2043 179.924 35.7003C178.442 35.0199 176.946 34.3041 175.313 33.916C169.882 32.6106 165.442 30.4987 165.76 23.8556C165.881 21.4212 166.813 18.7448 168.894 17.394C169.801 16.8043 170.476 16.0331 171.524 15.635C177.722 13.2862 185.95 14.1833 190.505 19.5462C190.656 19.7276 190.651 19.9041 190.485 20.0704L185.613 25.03C185.456 25.1913 185.295 25.1913 185.139 25.0351C182.74 22.6561 178.946 21.3204 175.696 22.7569C175.525 22.8325 175.404 22.9585 175.328 23.1298C174.719 24.5562 175.192 25.5189 176.739 26.0078C179.082 26.7488 181.461 27.5401 183.874 28.3919C184.695 28.6792 185.582 29.1278 186.535 29.7326C187.235 30.1711 187.825 30.7155 188.303 31.3606C189.981 33.6035 190.173 35.7557 189.981 38.3918C189.729 41.8444 187.633 44.178 184.665 45.6548C183.723 46.1236 182.72 46.4512 181.662 46.6326C177.959 47.2677 174.492 47.0964 171.262 46.1135Z" fill="#B1488A"/>
<path d="M122.553 33.8959C122.326 33.8959 122.144 34.0824 122.149 34.3042C122.149 34.3546 122.16 34.3999 122.175 34.4453C123.465 37.7517 125.908 39.4654 129.511 39.5864C132.585 39.6922 135.074 38.7144 136.984 36.6479C137.125 36.4967 137.271 36.4916 137.417 36.6378L142.244 41.4059C142.39 41.5521 142.4 41.7033 142.274 41.8696C141.045 43.4119 139.73 44.1579 138.127 45.1206C134.908 47.0611 129.667 47.2274 126.226 46.6579C120.708 45.7456 116.688 42.8676 114.173 38.0289C113.342 36.4312 112.843 34.8284 112.677 33.2306C112.334 29.8435 112.566 26.6228 114.229 23.5129C115.12 21.8547 116.022 20.5442 116.944 19.5815C118.461 17.9989 121.026 16.3104 123.198 15.5947C127.475 14.1783 131.663 14.264 135.769 15.8517C136.827 16.26 138.127 17.0715 139.664 18.2862C141.075 19.4001 141.74 20.6954 142.753 22.0815C143.161 22.646 143.489 23.271 143.73 23.9615C144.814 27.0361 145.041 30.1913 144.416 33.4272C144.37 33.6842 144.214 33.8153 143.952 33.8153L122.553 33.8959ZM122.467 27.4897L135.537 27.3788C135.588 27.3788 135.633 27.3335 135.628 27.278V27.2175C135.598 24.3093 132.665 21.9807 129.073 22.0109H128.831C125.238 22.0412 122.341 24.4252 122.366 27.3335V27.3939C122.371 27.4443 122.417 27.4897 122.467 27.4897Z" fill="#B1488A"/>
<path d="M24.1761 17.3285V15.5896C24.1761 15.4182 24.2567 15.3325 24.423 15.3325L33.4927 15.3124C33.5884 15.3124 33.6388 15.3628 33.6388 15.4586L33.654 46.1236C33.654 46.2597 33.5885 46.3252 33.4524 46.3252L24.5993 46.2849C24.3222 46.2849 24.1811 46.1488 24.1811 45.8716V44.294C24.1811 44.168 24.0753 44.0672 23.9544 44.0621C23.909 44.0621 23.8637 44.0772 23.8234 44.1024C22.6594 44.8786 21.5307 45.7204 20.1703 46.1639C17.9683 46.8796 15.6001 47.0661 13.0606 46.7183C10.7881 46.4058 8.64163 45.4381 6.61102 43.8202C3.21995 41.1236 1.32034 37.3837 0.907165 32.6056C0.599802 29.0925 1.10368 25.907 2.41879 23.0593C4.22266 19.148 8.34939 15.5442 12.8943 14.9344C16.0335 14.516 18.6838 14.7781 20.8455 15.7206C21.8986 16.1793 22.8106 16.9555 23.8032 17.5402C24.0551 17.6864 24.1811 17.6158 24.1761 17.3285ZM17.4292 38.2658C21.3897 38.3263 24.6497 35.0299 24.7152 30.8969C24.7807 26.7639 21.6214 23.3617 17.666 23.3012C13.7056 23.2407 10.4455 26.5371 10.38 30.6701C10.3145 34.8031 13.4738 38.2053 17.4292 38.2658Z" fill="#B1488A"/>
<path d="M50.6548 17.5102C53.6629 15.0808 57.4319 14.2491 61.9617 15.0203C63.171 15.2269 64.1284 15.5949 64.8338 16.114C65.8416 16.8549 67.071 17.5757 67.847 18.5434C68.8295 19.7632 69.6257 21.1089 70.2404 22.5857C70.4722 23.1503 70.6435 23.7954 70.7493 24.5162C70.8551 25.2067 70.9055 25.867 70.9055 26.5071C70.9357 33.135 70.9408 39.6874 70.9206 46.1642C70.9206 46.2549 70.845 46.3254 70.7543 46.3254L61.4679 46.3002C61.2815 46.3002 61.1908 46.2095 61.1908 46.023C61.1757 40.6551 61.1807 34.8084 61.216 28.4879C61.2311 26.2803 60.1427 24.3851 58.0416 23.5585C55.3711 22.5051 53.0986 23.115 51.2292 25.378C50.5742 26.1694 50.2467 27.3992 50.2517 29.0776C50.2668 34.6522 50.2719 40.3527 50.2668 46.1793C50.2668 46.2851 50.2114 46.3406 50.1056 46.3406L40.9451 46.2902C40.7335 46.2902 40.6277 46.1793 40.6327 45.9676L40.6529 15.6251C40.6529 15.4235 40.7537 15.3227 40.9552 15.3227H49.9947C50.166 15.3227 50.2517 15.4084 50.2567 15.5797L50.2819 17.3338C50.2819 17.4598 50.3877 17.5656 50.5137 17.5606C50.5641 17.5606 50.6145 17.5404 50.6548 17.5102Z" fill="#B1488A"/>
<path d="M97.51 42.9734C97.2278 43.2103 96.9204 43.417 96.5929 43.5833C94.4716 44.6519 91.8716 45.4835 89.4732 45.3676C85.8705 45.1962 81.8596 43.7295 79.4461 40.9422C77.2844 38.4473 75.8887 36.1288 75.4201 32.6762C74.9817 29.4403 75.3093 26.4061 76.3926 23.5734C76.705 22.7569 77.1131 22.016 77.612 21.3557C78.9472 19.5765 79.7383 18.4172 81.8143 17.0564C82.9833 16.2852 84.0112 15.761 84.903 15.4838C88.5813 14.3396 94.4061 14.2086 97.4696 17.0513C97.5704 17.1471 97.7367 17.142 97.8324 17.0412C97.8627 17.011 97.8828 16.9757 97.8929 16.9354C98.0037 16.5473 98.039 16.134 98.0037 15.7005C97.9836 15.4485 98.0995 15.3225 98.3514 15.3225H107.295C107.502 15.3175 107.603 15.4233 107.603 15.6299C107.557 24.8889 107.562 34.2134 107.613 43.6035C107.628 45.9371 107.366 47.8978 106.837 49.4855C105.28 54.1175 101.798 57.439 97.1169 59.0771C92.2747 60.7707 87.4022 60.7102 82.4995 58.8957C79.6527 57.8423 77.355 56.1891 75.5965 53.926C75.5058 53.81 75.4957 53.684 75.5713 53.553C76.0248 52.7617 76.5941 52.1014 77.2744 51.5822C78.5441 50.6145 79.5317 49.425 80.5495 48.1851C80.9879 47.6559 81.4263 47.6508 81.8647 48.1851C84.0767 50.8413 87.3015 51.9603 91.534 51.547C96.3007 51.0833 98.3262 47.802 97.8929 43.1347C97.8677 42.8374 97.7367 42.787 97.51 42.9785V42.9734ZM98.3514 29.1429C98.3162 25.8113 95.5902 23.14 92.2596 23.1752L91.0906 23.1853C87.76 23.2206 85.0895 25.9474 85.1247 29.279L85.1398 30.7004C85.1751 34.032 87.9011 36.7033 91.2317 36.6681L92.4007 36.658C95.7313 36.6227 98.4018 33.8959 98.3665 30.5643L98.3514 29.1429Z" fill="#B1488A"/>
</svg>
