<svg width="249" height="63" viewBox="0 0 249 63" fill="none" xmlns="http://www.w3.org/2000/svg">
<path d="M221.944 7.89697H214.251C214.093 7.89697 213.965 8.02536 213.965 8.18372V46.9325C213.965 47.0909 214.093 47.2192 214.251 47.2192H221.944C222.102 47.2192 222.231 47.0909 222.231 46.9325V8.18372C222.231 8.02536 222.102 7.89697 221.944 7.89697Z" fill="white"/>
<path d="M232.413 47.0523C230.253 46.3975 228.131 45.1863 226.056 43.4231C225.799 43.2048 225.79 42.9737 226.03 42.7383L230.266 38.5014C230.373 38.3944 230.484 38.3901 230.595 38.4971C233.042 40.8167 235.849 41.7026 239.019 41.1548C239.477 41.0735 239.841 40.9023 240.11 40.6327C240.799 39.9479 240.701 38.6383 239.768 38.2104C238.51 37.6326 237.239 37.0249 235.853 36.6953C231.241 35.5869 227.472 33.7937 227.741 28.153C227.844 26.0859 228.636 23.8133 230.403 22.6663C231.173 22.1656 231.746 21.5108 232.636 21.1727C237.898 19.1784 244.885 19.9401 248.753 24.4938C248.881 24.6479 248.877 24.7977 248.736 24.9389L244.598 29.1501C244.466 29.2871 244.329 29.2871 244.196 29.1544C242.16 27.1344 238.938 26.0003 236.178 27.22C236.033 27.2842 235.93 27.3912 235.866 27.5367C235.348 28.7479 235.751 29.5653 237.064 29.9804C239.054 30.6095 241.073 31.2815 243.122 32.0047C243.82 32.2487 244.573 32.6296 245.381 33.1432C245.976 33.5155 246.477 33.9777 246.883 34.5255C248.308 36.43 248.47 38.2574 248.308 40.4957C248.094 43.4274 246.314 45.4089 243.794 46.6629C242.994 47.0609 242.143 47.3391 241.244 47.4931C238.099 48.0324 235.156 47.8869 232.413 47.0523Z" fill="white"/>
<path d="M191.054 36.6783C190.861 36.6783 190.707 36.8367 190.711 37.025C190.711 37.0678 190.72 37.1063 190.733 37.1448C191.828 39.9523 193.903 41.4074 196.962 41.5102C199.572 41.6 201.686 40.7698 203.307 39.0151C203.427 38.8867 203.551 38.8824 203.675 39.0065L207.774 43.0551C207.898 43.1793 207.906 43.3076 207.799 43.4489C206.755 44.7585 205.639 45.3919 204.278 46.2093C201.544 47.857 197.095 47.9982 194.173 47.5146C189.488 46.74 186.074 44.2963 183.939 40.1877C183.233 38.831 182.809 37.4701 182.668 36.1134C182.377 33.2374 182.574 30.5027 183.986 27.8621C184.743 26.454 185.509 25.3413 186.292 24.5239C187.58 23.18 189.757 21.7463 191.601 21.1386C195.234 19.936 198.789 20.0087 202.276 21.3569C203.174 21.7035 204.278 22.3925 205.583 23.424C206.781 24.3698 207.346 25.4697 208.206 26.6466C208.552 27.126 208.831 27.6566 209.036 28.243C209.956 30.8536 210.148 33.5327 209.618 36.2803C209.579 36.4986 209.447 36.6099 209.224 36.6099L191.054 36.6783ZM190.981 31.2388L202.079 31.1446C202.122 31.1446 202.16 31.1061 202.156 31.059V31.0077C202.131 28.5383 199.64 26.561 196.59 26.5867H196.385C193.334 26.6124 190.874 28.6367 190.895 31.1061V31.1575C190.9 31.2003 190.938 31.2388 190.981 31.2388Z" fill="white"/>
<path d="M107.521 22.6107V21.1342C107.521 20.9887 107.59 20.916 107.731 20.916L115.432 20.8988C115.513 20.8988 115.556 20.9416 115.556 21.023L115.569 47.0609C115.569 47.1765 115.513 47.2321 115.398 47.2321L107.881 47.1979C107.645 47.1979 107.525 47.0823 107.525 46.8469V45.5073C107.525 45.4004 107.436 45.3148 107.333 45.3105C107.294 45.3105 107.256 45.3233 107.222 45.3447C106.233 46.0038 105.275 46.7185 104.12 47.0951C102.25 47.7029 100.239 47.8612 98.083 47.5659C96.1534 47.3006 94.3308 46.4788 92.6066 45.1051C89.7272 42.8154 88.1142 39.6398 87.7634 35.5826C87.5024 32.5996 87.9302 29.8949 89.0469 27.4768C90.5786 24.1557 94.0826 21.0957 97.9418 20.5779C100.607 20.2226 102.858 20.4452 104.693 21.2455C105.587 21.635 106.362 22.294 107.205 22.7905C107.419 22.9146 107.525 22.8547 107.521 22.6107ZM101.792 40.3888C105.155 40.4401 107.923 37.6412 107.979 34.1318C108.035 30.6224 105.352 27.7336 101.993 27.6822C98.6306 27.6309 95.8625 30.4298 95.8068 33.9392C95.7512 37.4486 98.4338 40.3374 101.792 40.3888Z" fill="white"/>
<path d="M130.005 22.7648C132.559 20.702 135.759 19.9958 139.605 20.6507C140.632 20.8261 141.445 21.1385 142.044 21.5793C142.9 22.2085 143.944 22.8205 144.603 23.6422C145.437 24.6779 146.113 25.8206 146.635 27.0745C146.832 27.5539 146.977 28.1017 147.067 28.7137C147.157 29.3 147.2 29.8607 147.2 30.4042C147.225 36.032 147.23 41.5957 147.212 47.0952C147.212 47.1722 147.148 47.2321 147.071 47.2321L139.186 47.2107C139.028 47.2107 138.951 47.1337 138.951 46.9753C138.938 42.4174 138.942 37.4529 138.972 32.0861C138.985 30.2116 138.061 28.6024 136.277 27.9005C134.009 27.0061 132.08 27.5239 130.492 29.4455C129.936 30.1174 129.658 31.1617 129.662 32.5868C129.675 37.3202 129.679 42.1606 129.675 47.108C129.675 47.1979 129.628 47.245 129.538 47.245L121.76 47.2022C121.58 47.2022 121.49 47.108 121.495 46.9283L121.512 21.1642C121.512 20.993 121.597 20.9074 121.769 20.9074H129.444C129.59 20.9074 129.662 20.9802 129.667 21.1257L129.688 22.615C129.688 22.722 129.778 22.8119 129.885 22.8076C129.928 22.8076 129.97 22.7905 130.005 22.7648Z" fill="white"/>
<path d="M169.79 44.3861C169.55 44.5873 169.289 44.7628 169.011 44.904C167.21 45.8113 165.002 46.5175 162.966 46.419C159.907 46.2735 156.501 45.0281 154.452 42.6614C152.616 40.5429 151.431 38.5743 151.033 35.6426C150.661 32.895 150.939 30.3186 151.859 27.9134C152.124 27.2201 152.471 26.591 152.894 26.0303C154.028 24.5196 154.7 23.5353 156.462 22.3797C157.455 21.7249 158.328 21.2798 159.085 21.0444C162.208 20.0729 167.154 19.9617 169.755 22.3754C169.841 22.4568 169.982 22.4525 170.064 22.3669C170.089 22.3412 170.106 22.3112 170.115 22.277C170.209 21.9475 170.239 21.5965 170.209 21.2285C170.192 21.0145 170.29 20.9075 170.504 20.9075H178.098C178.274 20.9032 178.359 20.9931 178.359 21.1685C178.321 29.0304 178.325 36.948 178.368 44.9211C178.381 46.9026 178.158 48.5675 177.709 49.9156C176.387 53.8487 173.431 56.669 169.456 58.0599C165.344 59.4979 161.207 59.4465 157.044 57.9058C154.627 57.0114 152.676 55.6076 151.183 53.686C151.106 53.5876 151.097 53.4806 151.161 53.3693C151.546 52.6974 152.03 52.1368 152.607 51.6959C153.686 50.8742 154.524 49.8642 155.388 48.8114C155.761 48.362 156.133 48.3577 156.505 48.8114C158.383 51.0668 161.122 52.0169 164.715 51.666C168.763 51.2722 170.483 48.4861 170.115 44.5231C170.093 44.2706 169.982 44.2278 169.79 44.3904V44.3861ZM170.504 32.6425C170.474 29.8136 168.16 27.5454 165.332 27.5753L164.339 27.5839C161.511 27.6138 159.243 29.9292 159.273 32.7581L159.286 33.965C159.316 36.7939 161.631 39.0621 164.459 39.0322L165.451 39.0236C168.279 38.9937 170.547 36.6783 170.517 33.8494L170.504 32.6425Z" fill="white"/>
<path d="M19.2864 59.2285L21.6367 57.0017" stroke="#974278" stroke-width="2"/>
<path d="M21.6367 57.0018C22.4311 56.2611 23.2536 55.5063 24.1042 54.7375C24.219 54.632 24.2964 54.5148 24.3362 54.3835" stroke="#6F2950" stroke-width="2"/>
<path d="M24.3362 54.3836C24.3643 54.3672 24.3924 54.3578 24.4205 54.3554C24.4955 54.3484 24.5611 54.3179 24.6174 54.2664C25.8874 53.1295 27.2231 52.0818 28.6267 51.1231C28.765 51.0293 28.8775 50.9121 28.9665 50.7715C29.0532 50.6379 29.147 50.5347 29.2454 50.4597" stroke="#C95B88" stroke-width="2"/>
<path d="M29.2454 50.4596C29.4633 50.462 29.639 50.4198 29.7773 50.3284C33.7679 47.6843 37.9835 45.7037 42.4193 44.3887" stroke="#D699BF" stroke-width="2"/>
<path d="M42.4192 44.3889C42.9183 44.2553 43.3776 44.1287 43.797 44.0092C43.8134 44.0045 44.2399 43.9084 45.0788 43.7185C45.6436 43.5896 46.1544 43.3857 46.6113 43.1021" stroke="#C95B88" stroke-width="2"/>
<path d="M46.6116 43.102C46.6819 43.1629 46.8342 43.1489 47.0662 43.0622C49.6438 42.0824 51.8816 40.8635 53.782 39.4055C55.0873 38.4023 56.1535 37.4037 56.9759 36.4075C58.2671 34.8441 59.1482 33.079 59.6192 31.1101C59.7809 30.435 59.9355 29.6756 60.0832 28.8317C60.1652 28.3699 60.1066 27.9926 59.9121 27.7019" stroke="#974278" stroke-width="2"/>
<path d="M59.9122 27.7017L60.2145 25.5194C60.2285 25.4233 60.2824 25.3694 60.3785 25.353C61.2853 25.2077 62.1664 25.0483 63.0241 24.8725C64.73 24.5232 65.9672 22.6433 65.679 20.8666C65.4072 19.1976 64.9268 17.5006 63.2022 16.924C61.5759 16.3825 60.2402 16.7482 59.1975 18.0233C59.1506 18.0819 59.0639 18.0889 59.0053 18.0397C58.9842 18.0233 58.9702 17.9998 58.9631 17.9764C58.375 16.0215 57.7235 14.1744 57.0065 12.4352C56.9971 12.4117 56.9807 12.3977 56.9573 12.3953L56.8776 12.3836C56.8589 12.3813 56.8518 12.3883 56.8565 12.4047C56.9995 13.1501 57.0346 13.8978 56.9596 14.6479C56.9503 14.737 56.9011 14.7909 56.8144 14.8097C52.8237 15.6605 49.0979 15.0956 45.6415 13.1126C44.5543 12.4891 43.6896 11.6874 42.7546 10.9092C42.6656 10.8366 42.6117 10.8553 42.5953 10.9702C42.0282 14.7628 40.266 17.8498 37.3065 20.2337C37.2619 20.2712 37.2268 20.3181 37.2057 20.3767C37.1799 20.44 37.1612 20.5009 37.1448 20.5618" stroke="#D47293" stroke-width="2"/>
<path d="M37.1447 20.5618C37.0862 20.5032 37.0252 20.4962 36.962 20.543C36.0387 21.2298 35.0451 21.7854 33.9836 22.2143C33.9063 22.2448 33.8407 22.2284 33.7868 22.1674C32.2871 20.4962 31.5185 18.3725 30.9866 16.1855" stroke="#6F2950" stroke-width="2"/>
<path d="M30.9864 16.1856L30.8879 13.408" stroke="#974278" stroke-width="2"/>
<path d="M30.8879 13.4081L31.0801 11.4016" stroke="#6F2950" stroke-width="2"/>
<path d="M31.0801 11.4015C31.1433 11.2538 31.2277 10.9421 31.3378 10.4662C31.5745 9.42784 32.0877 8.26287 32.875 6.96898C33.0367 6.70411 33.4046 6.2189 33.9787 5.51101C34.2552 5.17113 34.677 4.75625 35.2464 4.26635C35.6917 3.88193 36.1135 3.45767 36.5118 2.99121" stroke="#974278" stroke-width="2"/>
<path d="M46.6116 43.1018C46.1312 41.6016 45.4798 40.3101 44.6526 39.2295" stroke="#AF5576" stroke-width="2"/>
<path d="M44.6526 39.2297C43.8606 38.0624 42.8647 37.0404 41.6672 36.1614" stroke="#BB93AD" stroke-width="2"/>
<path d="M41.4705 31.4031C41.7118 31.2953 42.0563 31.2367 42.5038 31.2273" stroke="#AF5576" stroke-width="2"/>
<path d="M59.912 27.7019C59.4433 29.6404 58.5693 31.3164 57.2922 32.7345C56.1463 34.0026 54.8247 35.0504 53.325 35.8754C51.6964 36.7732 50.1123 36.9842 48.5728 36.5083C47.3168 36.1192 45.9296 35.0339 45.0274 34.0987C44.5798 33.6322 43.7386 32.6735 42.5037 31.2273" stroke="#B96C81" stroke-width="2"/>
<path d="M42.5036 31.2272L42.6981 30.9881C42.745 30.9318 42.7403 30.8803 42.6817 30.8357C42.6489 30.81 42.6138 30.8053 42.5739 30.817C41.6764 31.1053 40.7555 31.2248 39.8088 31.1756C39.6214 31.1662 39.5159 31.0678 39.4948 30.8803C39.4316 30.381 39.3168 30.3669 39.148 30.8428C39.0988 30.9858 39.0918 31.0983 39.1269 31.1827C39.2441 31.4592 39.5417 31.6163 39.8346 31.553C40.4228 31.4288 40.9664 31.3795 41.4702 31.403" stroke="#EC8591" stroke-width="2"/>
<path d="M41.4705 31.4031C41.9836 32.9618 42.0493 34.5464 41.6673 36.1614" stroke="#B96C81" stroke-width="2"/>
<path d="M41.6672 36.1614C41.6227 36.1825 41.5828 36.2528 41.5477 36.37C41.2032 37.4975 40.6924 38.496 40.0152 39.3656C37.304 42.8488 32.8939 44.2013 28.5635 43.4653C26.0585 43.041 23.2138 41.5737 21.7727 39.3797C21.6344 39.1711 21.4821 38.9765 21.311 38.796" stroke="#F8C3C8" stroke-width="2"/>
<path d="M20.3313 28.5973L20.4977 30.3576C20.507 30.4537 20.5914 30.524 20.6875 30.5146C20.6992 30.5146 20.7109 30.5123 20.7203 30.5076C23.094 29.8044 24.5539 28.1917 25.0999 25.6696C25.1116 25.618 25.1608 25.5852 25.2147 25.5946C25.2241 25.5946 25.2311 25.5993 25.2381 25.604C26.616 26.3072 28.5492 26.1923 29.9036 25.6251C30.8035 25.2477 31.7876 24.7906 32.3946 23.9913C32.4485 23.9233 32.5164 23.8975 32.6008 23.9139C33.6716 24.1226 34.7097 24.0522 35.7127 23.7077C35.7994 23.6772 35.8486 23.7077 35.8603 23.8014C36.0079 25.1539 36.6312 26.4455 37.7349 27.6784C38.2317 28.2316 38.9605 28.6348 39.6142 28.9981C39.6822 29.0379 39.7665 29.0145 39.8064 28.9465C39.8087 28.9418 39.8111 28.9371 39.8134 28.9324C40.2375 27.9808 40.4648 26.8463 40.4977 25.5313C40.5141 24.8562 39.9001 24.1038 39.5088 23.6069C38.7121 22.5989 37.7701 21.652 37.1444 20.562" stroke="#915359" stroke-width="2"/>
<path d="M24.3363 54.3837C21.522 52.5695 19.5232 50.0426 18.3398 46.8032" stroke="#873C4E" stroke-width="2"/>
<path d="M31.0802 11.4016C29.714 11.329 28.5166 11.6712 27.4879 12.426C26.5412 13.1174 25.7187 13.9543 25.4141 15.1403C25.3532 15.3818 25.3977 15.4029 25.5477 15.206C25.9695 14.6481 26.5225 14.1535 27.2067 13.7245C28.3409 13.012 29.5687 12.9065 30.888 13.4081" stroke="#54233E" stroke-width="2"/>
<path d="M30.9863 16.1855C30.5481 16.9122 30.1099 17.3013 29.6764 17.3529C26.0443 17.7818 23.3449 19.4578 21.578 22.3831C20.4157 24.3052 20.0596 26.396 20.3314 28.597" stroke="#54233E" stroke-width="2"/>
<path d="M20.3316 28.5972C19.0053 28.4824 18.0586 28.9278 17.4915 29.9357C17.2806 30.3084 17.1682 30.7373 17.1564 31.2225C17.1353 31.9961 17.201 32.5774 17.3509 32.9665C17.7751 34.0705 18.628 34.6706 19.9098 34.7643C19.9918 34.769 20.0363 34.8112 20.0434 34.8932C20.1535 36.3348 20.5776 37.6357 21.3111 38.796" stroke="#B96C81" stroke-width="2"/>
<path d="M21.3109 38.7959C20.022 40.5094 19.1363 42.3705 18.6536 44.3817" stroke="#BB93AD" stroke-width="2"/>
<path d="M18.6538 44.3818L18.3398 46.8032" stroke="#AF5576" stroke-width="2"/>
<path d="M18.3395 46.8032C18.1262 50.6497 19.2252 54.0509 21.6365 57.002" stroke="#54233E" stroke-width="2"/>
<path d="M44.6523 39.2295C44.2587 40.9781 43.5135 42.6986 42.4192 44.3886" stroke="#EEACBD" stroke-width="2"/>
<path d="M29.2452 50.4598C27.8275 50.2348 26.8949 50.052 26.4497 49.9137C23.2628 48.9151 20.6641 47.0704 18.6536 44.3818" stroke="#EEACBD" stroke-width="2"/>
<path d="M45.1589 16.2516C46.5414 15.6327 47.9615 15.6773 49.4166 16.3828C49.5502 16.4485 49.7119 16.3922 49.7775 16.2563C49.7822 16.2492 49.7845 16.2398 49.7869 16.2328C49.8408 16.0851 49.8009 15.9562 49.6697 15.8507C49.3417 15.5859 48.962 15.403 48.5285 15.3069C46.3165 14.8147 44.5028 15.4218 43.0851 17.1259C42.8297 17.4353 42.6047 17.8197 42.4126 18.2768C42.3774 18.3635 42.3727 18.4502 42.4008 18.537C42.4383 18.6565 42.5203 18.7268 42.6469 18.7479C42.7547 18.7643 42.8367 18.7268 42.8906 18.6331C43.4413 17.6673 44.0974 16.7251 45.1589 16.2516Z" stroke="#915359" stroke-width="2"/>
<path d="M45.9062 22.6246C45.9132 22.6926 45.9038 22.7559 45.8734 22.8192C45.6531 23.2786 45.3461 23.6513 44.9548 23.9349C44.9243 23.956 44.9197 23.9842 44.9407 24.017C44.9595 24.0451 44.9829 24.0498 45.011 24.0334C45.5922 23.6888 46.0796 23.2505 46.4709 22.7184C46.5131 22.6645 46.5764 22.634 46.642 22.6364H46.7521C46.8341 22.6411 46.8529 22.6786 46.8107 22.7489L46.2647 23.6748C46.185 23.8084 46.2085 23.8318 46.3373 23.7427C46.7357 23.4708 47.12 23.0794 47.4879 22.5707C47.659 22.3363 47.7714 22.3621 47.8253 22.6481C47.8558 22.8005 47.83 22.9458 47.7527 23.0817C47.6824 23.2083 47.7105 23.2388 47.8394 23.1708C48.1909 22.9856 48.1932 22.6129 48.2893 22.273C48.3127 22.191 48.3643 22.1207 48.4346 22.0738C49.0509 21.6542 49.4516 21.0495 49.6344 20.2642C49.6672 20.1236 49.6414 20.1119 49.557 20.2291C49.3625 20.501 49.2618 20.8456 49.0392 21.1057C48.1182 22.1769 46.8786 22.5379 45.3204 22.1934C45.1493 22.1558 45.0813 22.2238 45.1212 22.3949C45.1493 22.5168 45.1024 22.6247 44.9782 22.7208C44.7252 22.9153 44.4838 23.1145 44.2542 23.3161C44.144 23.4122 44.1581 23.438 44.2963 23.3935C44.8564 23.2083 45.3485 22.9341 45.775 22.5707C45.8078 22.5426 45.8593 22.545 45.8874 22.5801C45.8991 22.5918 45.9038 22.6082 45.9062 22.6246Z" stroke="#915359" stroke-width="2"/>
<path d="M49.7984 29.5653C49.7609 31.8718 48.0198 32.1203 46.1335 31.9187C46.0866 31.914 46.0421 31.9468 46.0374 31.996V32.0007V32.0687C46.0304 32.1554 46.0702 32.207 46.1569 32.2187C48.3362 32.5375 50.0233 31.9538 50.1921 29.4715C50.1968 29.4059 50.1452 29.3497 50.0796 29.345C50.0702 29.345 50.0632 29.345 50.0538 29.345L49.9882 29.352C49.864 29.3684 49.8007 29.4411 49.7984 29.5653Z" stroke="#915359" stroke-width="2"/>
<path d="M36.4603 31.3046L37.1774 31.2718C37.3437 31.2647 37.3578 31.2132 37.2242 31.1171L36.7462 30.7772C36.6876 30.735 36.6689 30.6553 36.7017 30.592C36.7743 30.4537 36.7978 30.3764 36.7673 30.3553C36.7673 30.3553 36.7673 30.3553 36.7649 30.3553C36.7368 30.3389 36.7134 30.3459 36.697 30.3717C36.4439 30.7631 36.1955 31.1264 35.9542 31.4616C35.5113 32.0687 34.9817 32.1672 34.3654 31.7593C34.028 31.5366 33.7351 31.1124 33.4867 30.4842C33.4867 30.4818 33.482 30.4795 33.4797 30.4795L33.4234 30.4982C33.3765 30.5147 33.3601 30.5451 33.3765 30.5897C33.6741 31.4968 34.2061 32.4438 35.2957 32.3383C35.4035 32.3266 35.5043 32.3852 35.5511 32.4813C35.5956 32.5703 35.6589 32.643 35.7409 32.7016C35.8511 32.779 35.9026 32.7508 35.8932 32.6149C35.8745 32.3969 35.8932 32.1883 35.9425 31.989C35.9659 31.9023 36.0221 31.8695 36.1088 31.8929L36.5775 32.0218C36.8329 32.0922 36.8681 32.0312 36.6876 31.8367L36.3783 31.5062C36.3338 31.4569 36.3385 31.3819 36.3877 31.3374C36.4088 31.3186 36.4345 31.3093 36.4603 31.3069" stroke="#915359" stroke-width="2"/>
<path d="M26.1803 31.4711L25.9788 31.9868C25.8827 32.2282 25.939 32.2704 26.1452 32.111C26.2413 32.036 26.3491 31.9797 26.4686 31.9446C26.5717 31.9118 26.6818 31.9704 26.7146 32.0735C26.7287 32.1157 26.7263 32.1626 26.7099 32.2048C26.642 32.3759 26.6068 32.5587 26.6045 32.7509C26.6045 32.8681 26.649 32.8892 26.7404 32.8165C26.8318 32.7439 26.9021 32.6548 26.956 32.5493C26.9817 32.4931 27.0263 32.4673 27.0872 32.4743C27.1458 32.4813 27.1973 32.5024 27.2418 32.5423C27.5746 32.854 28.1229 32.7322 28.4393 32.4626C28.9431 32.0336 29.2946 31.4523 29.4914 30.7187C29.5008 30.6882 29.4914 30.6671 29.4586 30.6577L29.393 30.6343C29.393 30.6343 29.3789 30.6343 29.3742 30.6413C29.093 31.3633 28.7111 31.8743 28.2307 32.1766C27.359 32.7204 26.4756 31.4383 26.1194 30.8101C26.0866 30.7491 26.0116 30.728 25.9507 30.7609C25.9296 30.7726 25.9132 30.789 25.9015 30.8101C25.7679 31.0562 25.6156 31.3 25.4492 31.5461C25.4328 31.5719 25.4281 31.6 25.4399 31.6281C25.4422 31.6399 25.4492 31.6469 25.4586 31.6516C25.4961 31.668 25.5312 31.6656 25.5664 31.6422C25.7281 31.5273 25.8945 31.4336 26.0655 31.3609C26.1921 31.307 26.2295 31.3422 26.1803 31.4711Z" stroke="#915359" stroke-width="2"/>
<path d="M30.5529 36.377C30.192 36.2106 29.8522 35.8543 29.5312 35.3081C29.5031 35.2636 29.4445 35.2472 29.4 35.2753C29.3906 35.28 29.3836 35.287 29.3765 35.2964L29.3344 35.348C29.2617 35.4347 29.257 35.5261 29.3156 35.6222C30.0631 36.8013 31.0192 37.1036 32.1815 36.534C32.6853 36.2879 33.1258 35.8051 33.5359 35.4183C33.6554 35.3058 33.6413 35.2167 33.4984 35.1511C33.4117 35.1112 33.3086 35.1323 33.2453 35.2026C32.5587 35.9574 31.5886 36.8505 30.5529 36.377Z" stroke="#915359" stroke-width="2"/>
<path d="M19.2861 59.2287L21.6365 57.0019C22.4308 56.2612 23.2533 55.5064 24.1039 54.7376C24.2188 54.6321 24.2961 54.5149 24.3359 54.3836C24.364 54.3672 24.3922 54.3578 24.4203 54.3555C24.4953 54.3484 24.5609 54.318 24.6171 54.2664C25.8872 53.1296 27.2229 52.0818 28.6265 51.1231C28.7647 51.0293 28.8772 50.9121 28.9663 50.7715C29.053 50.6379 29.1467 50.5348 29.2451 50.4598C29.463 50.4621 29.6388 50.4199 29.777 50.3285C33.7677 47.6845 37.9832 45.7038 42.4191 44.3888C42.9182 44.2552 43.3775 44.1286 43.7969 44.0091C43.8133 44.0044 44.2398 43.9083 45.0787 43.7184C45.6435 43.5895 46.1543 43.3856 46.6112 43.1019C46.6815 43.1629 46.8338 43.1488 47.0658 43.0621C49.6435 42.0823 51.8813 40.8634 53.7817 39.4054C55.0869 38.4022 56.1531 37.4037 56.9756 36.4075C58.2668 34.844 59.1478 33.079 59.6188 31.11C59.7805 30.4349 59.9352 29.6755 60.0828 28.8316C60.1648 28.3699 60.1062 27.9925 59.9117 27.7018L60.214 25.5196C60.2281 25.4235 60.282 25.3695 60.3781 25.3531C61.2849 25.2078 62.166 25.0484 63.0236 24.8726C64.7296 24.5234 65.9668 22.6435 65.6786 20.8667C65.4068 19.1978 64.9264 17.5007 63.2017 16.9241C61.5755 16.3826 60.2398 16.7483 59.197 18.0234C59.1502 18.082 59.0635 18.0891 59.0049 18.0398C58.9838 18.0234 58.9697 18 58.9627 17.9766C58.3745 16.0217 57.7231 14.1746 57.0061 12.4353C56.9967 12.4119 56.9803 12.3978 56.9569 12.3955L56.8772 12.3838C56.8584 12.3814 56.8514 12.3885 56.8561 12.4049C56.999 13.1503 57.0342 13.898 56.9592 14.6481C56.9498 14.7371 56.9006 14.7911 56.8139 14.8098C52.8233 15.6607 49.0975 15.0958 45.6411 13.1128C44.5538 12.4892 43.6892 11.6876 42.7542 10.9094C42.6651 10.8367 42.6112 10.8555 42.5948 10.9703C42.0278 14.7629 40.2656 17.85 37.306 20.2338C37.2615 20.2713 37.2264 20.3182 37.2053 20.3768C37.1795 20.4401 37.1607 20.501 37.1443 20.562C37.0858 20.5034 37.0248 20.4964 36.9616 20.5432C36.0383 21.23 35.0448 21.7856 33.9832 22.2145C33.9059 22.245 33.8403 22.2286 33.7864 22.1676C32.2867 20.4964 31.5181 18.3727 30.9862 16.1857L30.8878 13.4081L31.0799 11.4016C31.1432 11.254 31.2275 10.9422 31.3377 10.4664C31.5743 9.42798 32.0875 8.26301 32.8749 6.96912C33.0366 6.70425 33.4045 6.21904 33.9786 5.51115C34.2551 5.17127 34.6769 4.75638 35.2463 4.26649C35.6915 3.88207 36.1133 3.4578 36.5117 2.99135C36.9124 2.86477 37.6247 2.55536 38.644 2.06078C39.8508 1.47712 41.4279 1.12318 43.3705 0.996601C43.8836 0.963785 44.4062 0.877057 44.9381 0.73876C46.8549 0.2348 48.5421 -0.0113205 49.9996 0.000399546C52.4765 0.0214956 54.801 0.607496 56.9733 1.76075C57.8262 2.21314 58.6698 2.78976 59.504 3.49531C60.275 4.1446 60.9943 4.87358 61.6598 5.68461C62.5644 6.78394 63.3423 7.8364 63.9914 8.84198C64.4156 9.50064 64.835 10.1945 65.2474 10.9211C65.6645 11.6595 66.0348 12.3791 66.3581 13.0799C66.9346 14.3387 67.2978 15.1731 67.4478 15.5857C70.3745 23.649 70.4355 31.6937 67.6282 39.7195C66.2433 43.6762 64.0781 47.3821 61.1326 50.8371C60.7881 51.2426 60.446 51.606 60.1086 51.9294C59.6142 52.4006 59.2486 52.9467 58.712 53.3569C58.0371 53.8726 57.4724 54.5032 56.7975 55.0423C54.4894 56.887 52.0524 58.4106 49.4888 59.6178C48.6686 60.0045 47.6657 60.4124 46.4824 60.8413C45.3646 61.2445 44.3406 61.5586 43.4056 61.786C37.1584 63.3002 30.9065 63.1736 24.6499 61.4062C24.35 61.3219 23.9985 61.1953 23.5931 61.0242C23.2369 60.8742 22.8831 60.7429 22.5292 60.628C21.4396 60.2741 20.357 59.8076 19.2861 59.2287Z" fill="#B1488A"/>
<path d="M36.5116 2.99121C36.1133 3.45767 35.6915 3.88193 35.2463 4.26635C34.6768 4.75625 34.255 5.17113 33.9785 5.51101C33.4044 6.2189 33.0365 6.70411 32.8748 6.96898C32.0875 8.26287 31.5743 9.42784 31.3376 10.4662C31.2275 10.9421 31.1432 11.2538 31.0799 11.4015C29.7137 11.3288 28.5163 11.6711 27.4876 12.4258C26.5409 13.1173 25.7184 13.9541 25.4138 15.1402C25.3529 15.3816 25.3974 15.4027 25.5474 15.2058C25.9692 14.6479 26.5222 14.1534 27.2064 13.7244C28.3406 13.0118 29.5685 12.9063 30.8877 13.408L30.9862 16.1856C30.548 16.9122 30.1098 17.3013 29.6763 17.3529C26.0442 17.7819 23.3447 19.4578 21.5778 22.3831C20.4156 24.3052 20.0594 26.3961 20.3312 28.5971C19.0049 28.4822 18.0582 28.9276 17.4911 29.9355C17.2803 30.3082 17.1678 30.7372 17.1561 31.2224C17.135 31.9959 17.2006 32.5772 17.3505 32.9663C17.7747 34.0703 18.6276 34.6704 19.9094 34.7642C19.9914 34.7689 20.036 34.811 20.043 34.8931C20.1531 36.3347 20.5773 37.6356 21.3107 38.7959C20.0219 40.5093 19.1361 42.3705 18.6534 44.3816L18.3394 46.803C18.1262 50.6495 19.2252 54.0506 21.6364 57.0017L19.2861 59.2285C18.7214 58.9543 18.1402 58.6542 17.545 58.3331C16.9311 58.0003 16.3968 57.5854 15.7899 57.2408C15.5532 57.1049 15.3213 56.9572 15.0916 56.7955C12.9756 55.3117 11.0377 53.6521 9.27792 51.8191C8.97563 51.5027 8.70147 51.1839 8.45542 50.8628C8.10627 50.4034 7.68448 50.0307 7.34001 49.5712C6.42144 48.3406 5.47944 47.1405 4.77411 45.8091C4.4273 45.1551 3.98911 44.5855 3.67511 43.8964C3.13615 42.7174 2.51049 41.5079 2.09104 40.3382C1.02953 37.3801 0.20001 34.354 0.000830193 31.2224C-0.00619968 31.0981 0.031293 30.9903 0.117995 30.8989C0.307801 30.6973 0.490577 30.6997 0.67101 30.9059C1.14201 31.4474 1.58489 31.9701 1.99497 32.4764C2.30428 32.8608 2.72373 33.107 3.11506 33.4C3.9938 34.0586 5.16778 34.4219 6.29725 34.2274C8.7577 33.8008 10.5972 33.0718 12.7226 31.6888C13.1397 31.4193 13.5099 31.1333 13.8356 30.8309C14.309 30.3926 14.8479 30.0551 15.3072 29.5769C15.729 29.1386 16.125 28.7213 16.4952 28.3228C17.5146 27.2282 18.6066 25.8007 19.7759 24.0404C20.9311 22.2964 22.159 20.2314 23.4572 17.8428C23.7876 17.231 24.1344 16.6146 24.4929 15.991C25.1842 14.7839 25.8239 13.5439 26.5667 12.3649C27.1127 11.4953 27.6329 10.553 28.2937 9.76304C28.8163 9.13953 29.1818 8.47149 29.8122 7.92299C30.2621 7.53154 30.5667 7.06509 31.04 6.66661C31.6423 6.15796 32.2468 5.64697 32.8584 5.12894C33.606 4.49372 34.8245 3.78114 36.5116 2.99121Z" fill="#7C3B66"/>
<path d="M59.9119 27.7017C59.4432 29.6402 58.5692 31.3161 57.2921 32.7342C56.1462 34.0024 54.8246 35.0501 53.3249 35.8752C51.6963 36.773 50.1122 36.9839 48.5727 36.5081C47.3167 36.119 45.9295 35.0337 45.0273 34.0985C44.5797 33.632 43.7385 32.6733 42.5036 31.2271L42.6981 30.988C42.7449 30.9317 42.7402 30.8801 42.6817 30.8356C42.6488 30.8098 42.6137 30.8051 42.5739 30.8169C41.6764 31.1052 40.7555 31.2247 39.8088 31.1755C39.6213 31.1661 39.5159 31.0677 39.4948 30.8801C39.4315 30.3809 39.3167 30.3668 39.148 30.8426C39.0988 30.9856 39.0917 31.0981 39.1269 31.1825C39.244 31.4591 39.5416 31.6162 39.8346 31.5529C40.4227 31.4286 40.9664 31.3794 41.4702 31.4029C41.9834 32.9616 42.049 34.5462 41.667 36.1612C41.6225 36.1823 41.5826 36.2526 41.5475 36.3698C41.203 37.4973 40.6922 38.4958 40.015 39.3654C37.3038 42.8486 32.8937 44.2011 28.5633 43.4651C26.0584 43.0408 23.2136 41.5735 21.7725 39.3795C21.6342 39.1709 21.4819 38.9763 21.3108 38.7958C20.5774 37.6356 20.1533 36.3346 20.0431 34.8931C20.0361 34.811 19.9916 34.7688 19.9096 34.7642C18.6278 34.6704 17.7748 34.0703 17.3507 32.9663C17.2007 32.5772 17.1351 31.9959 17.1562 31.2224C17.1679 30.7372 17.2804 30.3082 17.4913 29.9355C18.0584 28.9276 19.0051 28.4822 20.3314 28.5971L20.4977 30.3574C20.5071 30.4535 20.5915 30.5239 20.6875 30.5145C20.6992 30.5145 20.711 30.5121 20.7203 30.5074C23.0941 29.8042 24.554 28.1916 25.1 25.6694C25.1117 25.6179 25.1609 25.585 25.2148 25.5944C25.2241 25.5944 25.2312 25.5991 25.2382 25.6038C26.6161 26.307 28.5493 26.1921 29.9037 25.6249C30.8035 25.2475 31.7877 24.7904 32.3946 23.9911C32.4485 23.9231 32.5165 23.8974 32.6008 23.9138C33.6717 24.1224 34.7098 24.0521 35.7127 23.7075C35.7994 23.677 35.8486 23.7075 35.8603 23.8013C36.008 25.1537 36.6313 26.4453 37.735 27.6782C38.2317 28.2314 38.9605 28.6346 39.6143 28.9979C39.6822 29.0378 39.7666 29.0143 39.8064 28.9463C39.8088 28.9417 39.8111 28.937 39.8135 28.9323C40.2376 27.9806 40.4649 26.8461 40.4977 25.5311C40.5141 24.8561 39.9002 24.1036 39.5088 23.6067C38.7121 22.5988 37.7701 21.6518 37.1445 20.5618C37.1609 20.5009 37.1796 20.44 37.2054 20.3767C37.2265 20.3181 37.2616 20.2712 37.3061 20.2337C40.2657 17.8498 42.0279 14.7628 42.5949 10.9702C42.6114 10.8553 42.6653 10.8366 42.7543 10.9092C43.6893 11.6874 44.5539 12.4891 45.6412 13.1126C49.0976 15.0956 52.8234 15.6605 56.814 14.8097C56.9007 14.7909 56.9499 14.737 56.9593 14.6479C57.0343 13.8978 56.9992 13.1501 56.8562 12.4047C56.8515 12.3883 56.8586 12.3813 56.8773 12.3836L56.957 12.3953C56.9804 12.3977 56.9968 12.4117 57.0062 12.4352C57.7232 14.1744 58.3747 16.0215 58.9628 17.9764C58.9839 18.0491 59.0613 18.0889 59.1339 18.0655C59.1597 18.0584 59.1808 18.042 59.1972 18.0233C60.2399 16.7482 61.5756 16.3825 63.2018 16.924C64.9265 17.5006 65.4069 19.1976 65.6787 20.8666C65.9669 22.6433 64.7297 24.5232 63.0238 24.8725C62.1661 25.0483 61.285 25.2077 60.3782 25.353C60.2821 25.3694 60.2282 25.4233 60.2141 25.5194L59.9119 27.7017ZM45.1585 16.2512C46.541 15.6324 47.9611 15.6769 49.4163 16.3825C49.5498 16.4481 49.7115 16.3919 49.7771 16.2559C49.7818 16.2489 49.7842 16.2395 49.7865 16.2325C49.8404 16.0848 49.8006 15.9559 49.6693 15.8504C49.3413 15.5855 48.9617 15.4027 48.5282 15.3066C46.3161 14.8143 44.5024 15.4214 43.0847 17.1255C42.8293 17.4349 42.6043 17.8194 42.4122 18.2764C42.377 18.3632 42.3723 18.4499 42.4005 18.5366C42.438 18.6562 42.52 18.7265 42.6465 18.7476C42.7543 18.764 42.8363 18.7265 42.8902 18.6327C43.4409 17.667 44.097 16.7247 45.1585 16.2512ZM45.906 22.6246C45.913 22.6925 45.9037 22.7558 45.8732 22.8191C45.6529 23.2785 45.346 23.6512 44.9546 23.9349C44.9242 23.956 44.9195 23.9841 44.9406 24.0169C44.9593 24.045 44.9828 24.0497 45.0109 24.0333C45.592 23.6887 46.0794 23.2504 46.4708 22.7183C46.5129 22.6644 46.5762 22.6339 46.6418 22.6363H46.7519C46.834 22.641 46.8527 22.6785 46.8105 22.7488L46.2645 23.6747C46.1849 23.8083 46.2083 23.8317 46.3372 23.7427C46.7355 23.4708 47.1198 23.0793 47.4877 22.5707C47.6588 22.3363 47.7713 22.362 47.8252 22.648C47.8556 22.8004 47.8299 22.9457 47.7525 23.0816C47.6822 23.2082 47.7104 23.2387 47.8392 23.1707C48.1907 22.9855 48.1931 22.6128 48.2891 22.273C48.3126 22.1909 48.3641 22.1206 48.4344 22.0737C49.0507 21.6541 49.4514 21.0494 49.6342 20.2642C49.667 20.1235 49.6412 20.1118 49.5569 20.229C49.3624 20.5009 49.2616 20.8455 49.039 21.1057C48.1181 22.1769 46.8785 22.5378 45.3202 22.1933C45.1491 22.1558 45.0812 22.2237 45.121 22.3949C45.1491 22.5167 45.1023 22.6246 44.9781 22.7207C44.725 22.9152 44.4836 23.1145 44.254 23.316C44.1439 23.4122 44.1579 23.4379 44.2962 23.3934C44.8562 23.2082 45.3483 22.934 45.7748 22.5707C45.8076 22.5425 45.8592 22.5449 45.8873 22.58C45.899 22.5918 45.9037 22.6082 45.906 22.6246ZM49.7982 29.5652C49.7607 31.8717 48.0197 32.1201 46.1333 31.9185C46.0865 31.9138 46.0419 31.9467 46.0372 31.9959V32.0006V32.0686C46.0302 32.1553 46.0701 32.2068 46.1568 32.2186C48.336 32.5374 50.0232 31.9537 50.1919 29.4714C50.1966 29.4058 50.145 29.3495 50.0794 29.3448C50.07 29.3448 50.063 29.3448 50.0536 29.3448L49.988 29.3519C49.8638 29.3683 49.8006 29.4409 49.7982 29.5652ZM36.4602 31.3044L37.1773 31.2716C37.3436 31.2646 37.3577 31.213 37.2241 31.1169L36.7461 30.777C36.6875 30.7348 36.6688 30.6551 36.7016 30.5918C36.7742 30.4535 36.7977 30.3762 36.7672 30.3551C36.7672 30.3551 36.7672 30.3551 36.7648 30.3551C36.7367 30.3387 36.7133 30.3457 36.6969 30.3715C36.4438 30.7629 36.1954 31.1263 35.9541 31.4615C35.5112 32.0686 34.9816 32.167 34.3653 31.7591C34.0279 31.5365 33.735 31.1122 33.4866 30.484C33.4866 30.4817 33.4819 30.4793 33.4796 30.4793L33.4233 30.4981C33.3764 30.5145 33.36 30.545 33.3764 30.5895C33.674 31.4966 34.206 32.4436 35.2956 32.3381C35.4034 32.3264 35.5042 32.385 35.551 32.4811C35.5955 32.5702 35.6588 32.6428 35.7408 32.7014C35.851 32.7788 35.9025 32.7507 35.8931 32.6147C35.8744 32.3967 35.8931 32.1881 35.9424 31.9889C35.9658 31.9021 36.022 31.8693 36.1087 31.8928L36.5774 32.0217C36.8328 32.092 36.868 32.031 36.6875 31.8365L36.3782 31.506C36.3337 31.4568 36.3384 31.3818 36.3876 31.3372C36.4087 31.3185 36.4344 31.3091 36.4602 31.3068V31.3044ZM26.1802 31.4708L25.9787 31.9865C25.8826 32.2279 25.9388 32.2701 26.1451 32.1107C26.2411 32.0357 26.3489 31.9795 26.4684 31.9443C26.5715 31.9115 26.6817 31.9701 26.7145 32.0732C26.7285 32.1154 26.7262 32.1623 26.7098 32.2045C26.6418 32.3756 26.6067 32.5585 26.6043 32.7507C26.6043 32.8679 26.6489 32.889 26.7403 32.8163C26.8316 32.7436 26.9019 32.6546 26.9558 32.5491C26.9816 32.4928 27.0261 32.467 27.0871 32.4741C27.1456 32.4811 27.1972 32.5022 27.2417 32.542C27.5745 32.8538 28.1228 32.7319 28.4391 32.4623C28.9429 32.0334 29.2944 31.4521 29.4913 30.7184C29.5006 30.6879 29.4913 30.6668 29.4585 30.6575L29.3929 30.634C29.3929 30.634 29.3788 30.634 29.3741 30.6411C29.0929 31.363 28.711 31.874 28.2306 32.1764C27.3589 32.7202 26.4755 31.438 26.1193 30.8098C26.0865 30.7489 26.0115 30.7278 25.9506 30.7606C25.9295 30.7723 25.9131 30.7887 25.9014 30.8098C25.7678 31.0559 25.6155 31.2997 25.4491 31.5458C25.4327 31.5716 25.428 31.5998 25.4397 31.6279C25.4421 31.6396 25.4491 31.6466 25.4585 31.6513C25.496 31.6677 25.5311 31.6654 25.5663 31.6419C25.728 31.5271 25.8943 31.4333 26.0654 31.3607C26.1919 31.3068 26.2294 31.3419 26.1802 31.4708ZM30.5528 36.3768C30.1919 36.2104 29.8521 35.8541 29.5311 35.308C29.503 35.2634 29.4444 35.247 29.3999 35.2752C29.3905 35.2798 29.3835 35.2869 29.3765 35.2962L29.3343 35.3478C29.2616 35.4345 29.2569 35.526 29.3155 35.6221C30.063 36.8011 31.0191 37.1035 32.1814 36.5339C32.6852 36.2878 33.1257 35.8049 33.5358 35.4181C33.6553 35.3056 33.6412 35.2166 33.4983 35.1509C33.4116 35.1111 33.3085 35.1322 33.2452 35.2025C32.5586 35.9573 31.5885 36.8503 30.5528 36.3768Z" fill="#F69C9C"/>
<path d="M30.9861 16.1855C31.518 18.3725 32.2866 20.4962 33.7863 22.1674C33.8402 22.2284 33.9058 22.2448 33.9831 22.2143C35.0447 21.7854 36.0382 21.2298 36.9615 20.543C37.0247 20.4962 37.0857 20.5032 37.1442 20.5618C37.7699 21.6518 38.7119 22.5987 39.5086 23.6067C39.9 24.1036 40.5139 24.856 40.4975 25.5311C40.4647 26.8461 40.2374 27.9806 39.8133 28.9322C39.7828 29.0026 39.6984 29.0354 39.6281 29.0049C39.6234 29.0049 39.6188 29.0002 39.6141 28.9979C38.9603 28.6345 38.2315 28.2314 37.7348 27.6782C36.6311 26.4452 36.0078 25.1537 35.8601 23.8012C35.8484 23.7098 35.7992 23.677 35.7125 23.7075C34.7096 24.052 33.6715 24.1223 32.6006 23.9137C32.5163 23.8973 32.4483 23.9231 32.3944 23.9911C31.7875 24.7904 30.8033 25.2475 29.9035 25.6248C28.5491 26.1921 26.6158 26.307 25.238 25.6038C25.1911 25.5803 25.1325 25.5967 25.1091 25.6459C25.1044 25.653 25.1021 25.6624 25.0997 25.6694C24.5538 28.1915 23.0939 29.8042 20.7201 30.5074C20.6287 30.5355 20.5327 30.484 20.5045 30.3902C20.5022 30.3785 20.4999 30.3668 20.4975 30.3574L20.3311 28.597C20.0593 26.396 20.4155 24.3052 21.5778 22.3831C23.3446 19.4578 26.0441 17.7818 29.6762 17.3529C30.1097 17.3013 30.5479 16.9122 30.9861 16.1855Z" fill="#2C0A15"/>
<path d="M46.6114 43.1018C46.131 41.6016 45.4796 40.3101 44.6524 39.2295C43.8604 38.0622 42.8645 37.0402 41.6671 36.1612C42.049 34.5461 41.9834 32.9616 41.4702 31.4028C41.7116 31.295 42.056 31.2364 42.5036 31.227C43.7385 32.6733 44.5798 33.632 45.0273 34.0984C45.9295 35.0337 47.3167 36.119 48.5727 36.5081C50.1123 36.9839 51.6963 36.773 53.3249 35.8752C54.8246 35.0501 56.1462 34.0023 57.2921 32.7342C58.5692 31.3161 59.4432 29.6402 59.9119 27.7017C60.1064 27.9923 60.165 28.3697 60.083 28.8315C59.9353 29.6753 59.7807 30.4348 59.619 31.1098C59.148 33.0788 58.2669 34.8438 56.9758 36.4073C56.1533 37.4035 55.0871 38.402 53.7819 39.4053C51.8814 40.8632 49.6436 42.0821 47.066 43.0619C46.834 43.1486 46.6817 43.1627 46.6114 43.1018Z" fill="#7C3B66"/>
<path d="M49.7981 29.5653C49.8005 29.441 49.8637 29.3684 49.9879 29.352L50.0535 29.3449C50.1191 29.3356 50.1824 29.3825 50.1918 29.4457C50.1918 29.4528 50.1918 29.4621 50.1918 29.4715C50.0231 31.9538 48.3359 32.5375 46.1566 32.2187C46.0699 32.207 46.0301 32.1554 46.0348 32.0687V32.0007C46.0395 31.9538 46.0793 31.9163 46.1285 31.9187H46.1332C48.0196 32.1202 49.7606 31.8718 49.7981 29.5653Z" fill="#2C0A15"/>
<path d="M36.4601 31.3045C36.3945 31.3092 36.3429 31.3654 36.3476 31.4311C36.3476 31.4592 36.3593 31.485 36.3781 31.5037L36.6874 31.8342C36.8678 32.0288 36.8327 32.0897 36.5772 32.0194L36.1086 31.8905C36.0219 31.867 35.9656 31.8999 35.9422 31.9866C35.8907 32.1858 35.8743 32.3944 35.893 32.6124C35.9024 32.7484 35.8508 32.7765 35.7407 32.6992C35.6587 32.6406 35.5954 32.5679 35.5509 32.4788C35.504 32.3827 35.4033 32.3241 35.2955 32.3358C34.2058 32.4413 33.6739 31.4944 33.3763 30.5872C33.3599 30.5427 33.3763 30.5122 33.4232 30.4958L33.4794 30.4771C33.4794 30.4771 33.4841 30.4771 33.4864 30.4817C33.7348 31.1099 34.0277 31.5342 34.3652 31.7569C34.9815 32.1647 35.511 32.0663 35.9539 31.4592C36.1953 31.124 36.4437 30.7607 36.6967 30.3692C36.7132 30.3434 36.7366 30.3364 36.7647 30.3528H36.767C36.7975 30.3739 36.7741 30.4513 36.7014 30.5896C36.6686 30.6529 36.6874 30.7325 36.746 30.7747L37.224 31.1146C37.3576 31.2107 37.3435 31.2623 37.1771 31.2693L36.4601 31.3021V31.3045Z" fill="#2C0A15"/>
<path d="M42.5034 31.2272C42.0558 31.2366 41.7114 31.2952 41.47 31.403C40.9662 31.3795 40.4225 31.4288 39.8344 31.553C39.5415 31.6163 39.2439 31.4592 39.1267 31.1827C39.0916 31.0983 39.0986 30.9858 39.1478 30.8428C39.3165 30.3669 39.4313 30.381 39.4946 30.8803C39.5157 31.0678 39.6211 31.1662 39.8086 31.1756C40.7553 31.2248 41.6762 31.1053 42.5737 30.817C42.6135 30.8053 42.6487 30.81 42.6815 30.8357C42.7401 30.8803 42.7447 30.9318 42.6979 30.9881L42.5034 31.2272Z" fill="#E16E86"/>
<path d="M26.0653 31.3608C25.8942 31.4335 25.7278 31.5272 25.5662 31.6421C25.531 31.6655 25.4959 31.6679 25.4584 31.6515C25.449 31.6468 25.442 31.6398 25.4396 31.628C25.4279 31.5999 25.4326 31.5718 25.449 31.546C25.6154 31.2999 25.7677 31.0561 25.9012 30.81C25.934 30.749 26.009 30.7279 26.07 30.7608C26.091 30.7725 26.1075 30.7889 26.1192 30.81C26.4753 31.4382 27.3588 32.7203 28.2305 32.1765C28.7108 31.8742 29.0928 31.3632 29.374 30.6412C29.3787 30.6342 29.3857 30.6318 29.3927 30.6342L29.4584 30.6576C29.4888 30.667 29.5005 30.6881 29.4912 30.7186C29.2943 31.4522 28.9428 32.0336 28.439 32.4625C28.1227 32.7321 27.5744 32.854 27.2416 32.5422C27.1971 32.5023 27.1455 32.4813 27.0869 32.4742C27.026 32.4672 26.9815 32.493 26.9557 32.5492C26.9018 32.6547 26.8315 32.7438 26.7401 32.8164C26.6488 32.8891 26.6019 32.868 26.6042 32.7508C26.6066 32.5586 26.6417 32.3758 26.7097 32.2047C26.7495 32.1039 26.7003 31.989 26.5995 31.9492C26.5574 31.9328 26.5128 31.9304 26.4683 31.9445C26.3488 31.9796 26.241 32.0359 26.1449 32.1109C25.9387 32.2703 25.8825 32.2281 25.9786 31.9867L26.1801 31.471C26.2293 31.3421 26.1918 31.3069 26.0653 31.3608Z" fill="#2C0A15"/>
<path d="M30.5526 36.377C31.5884 36.8505 32.5585 35.9574 33.2451 35.2026C33.3083 35.1323 33.4114 35.1112 33.4981 35.1511C33.6411 35.2167 33.6551 35.3058 33.5356 35.4183C33.1256 35.8051 32.685 36.2879 32.1812 36.534C31.0189 37.1036 30.0629 36.8013 29.3154 35.6222C29.2568 35.5261 29.2615 35.4347 29.3341 35.348L29.3763 35.2964C29.4091 35.2566 29.4677 35.2495 29.5099 35.2847C29.5192 35.2917 29.5263 35.3011 29.531 35.3081C29.852 35.8543 30.1918 36.2106 30.5526 36.377Z" fill="#2C0A15"/>
<path d="M41.6668 36.1614C42.8642 37.0404 43.8601 38.0624 44.6521 39.2297C44.2584 40.9783 43.5133 42.6988 42.419 44.3888C37.9831 45.7038 33.7675 47.6845 29.7769 50.3285C29.6387 50.4199 29.4629 50.4621 29.245 50.4598C27.8273 50.2348 26.8947 50.0519 26.4494 49.9136C23.2626 48.9151 20.6639 47.0704 18.6533 44.3818C19.136 42.3706 20.0218 40.5095 21.3106 38.796C21.4817 38.9765 21.634 39.1711 21.7722 39.3797C23.2134 41.5737 26.0581 43.041 28.5631 43.4653C32.8935 44.2013 37.3036 42.8488 40.0148 39.3656C40.692 38.496 41.2028 37.4975 41.5473 36.37C41.5824 36.2528 41.6222 36.1825 41.6668 36.1614Z" fill="#FAEAF4"/>
<path d="M44.6521 39.2295C45.4793 40.3101 46.1307 41.6016 46.6111 43.1018C46.1541 43.3854 45.6433 43.5893 45.0786 43.7183C44.2397 43.9081 43.8132 44.0042 43.7968 44.0089C43.3774 44.1285 42.9181 44.255 42.4189 44.3886C43.5133 42.6986 44.2584 40.9781 44.6521 39.2295Z" fill="#E16E86"/>
<path d="M18.6534 44.3816C20.6639 47.0702 23.2626 48.9149 26.4495 49.9134C26.8947 50.0517 27.8273 50.2346 29.245 50.4596C29.1466 50.5346 29.0529 50.6377 28.9662 50.7713C28.8771 50.912 28.7647 51.0292 28.6264 51.1229C27.2228 52.0816 25.8871 53.1294 24.617 54.2663C24.5608 54.3178 24.4952 54.3483 24.4202 54.3553C24.3921 54.3577 24.364 54.367 24.3358 54.3835C21.5215 52.5692 19.5227 50.0424 18.3394 46.8029L18.6534 44.3816Z" fill="#E16E86"/>
<path d="M18.3395 46.803C19.5228 50.0424 21.5217 52.5692 24.3359 54.3835C24.2961 54.5147 24.2188 54.6319 24.104 54.7374C23.2533 55.5063 22.4309 56.261 21.6365 57.0017C19.2252 54.0506 18.1262 50.6495 18.3395 46.803Z" fill="#2C0A15"/>
</svg>
